<svg width="56" height="72" viewBox="0 0 56 72" fill="none" xmlns="http://www.w3.org/2000/svg">
<path d="M28 39.5983C26.9344 39.5855 25.8906 39.9088 25.009 40.5246C24.1275 41.1405 23.4505 42.0194 23.0692 43.043C22.688 44.0666 22.6207 45.1857 22.8765 46.2499C23.1323 47.314 23.6989 48.2719 24.5 48.9948V53.999C24.5 54.9539 24.8687 55.8696 25.5251 56.5448C26.1815 57.2199 27.0717 57.5992 28 57.5992C28.9283 57.5992 29.8185 57.2199 30.4749 56.5448C31.1313 55.8696 31.5 54.9539 31.5 53.999V48.9948C32.3011 48.2719 32.8677 47.314 33.1235 46.2499C33.3793 45.1857 33.312 44.0666 32.9308 43.043C32.5495 42.0194 31.8725 41.1405 30.991 40.5246C30.1094 39.9088 29.0656 39.5855 28 39.5983ZM45.5 25.1975H17.5V17.9971C17.4949 15.8593 18.1067 13.768 19.2579 11.9881C20.4091 10.2082 22.048 8.81971 23.9669 7.99856C25.8858 7.1774 27.9985 6.9605 30.0373 7.37531C32.0762 7.79012 33.9495 8.81799 35.42 10.3287C36.7358 11.7115 37.677 13.4243 38.15 15.297C38.2649 15.7556 38.4665 16.1864 38.7433 16.5649C39.0201 16.9434 39.3666 17.262 39.7631 17.5027C40.1596 17.7434 40.5983 17.9014 41.0542 17.9677C41.5101 18.034 41.9742 18.0073 42.42 17.8891C42.8658 17.7709 43.2847 17.5636 43.6526 17.2789C44.0205 16.9942 44.3303 16.6377 44.5643 16.2299C44.7983 15.822 44.952 15.3707 45.0164 14.9018C45.0809 14.4329 45.0549 13.9555 44.94 13.4969C44.1426 10.382 42.5612 7.53836 40.355 5.25247C37.9056 2.74086 34.7877 1.0321 31.3949 0.341969C28.002 -0.348162 24.4865 0.0112809 21.2921 1.37491C18.0977 2.73854 15.3678 5.04521 13.447 8.00364C11.5262 10.9621 10.5007 14.4396 10.5 17.9971V25.1975C7.71523 25.1975 5.04451 26.3354 3.07538 28.3609C1.10625 30.3864 0 33.1336 0 35.9981V61.1994C0 64.0639 1.10625 66.8111 3.07538 68.8366C5.04451 70.8621 7.71523 72 10.5 72H45.5C48.2848 72 50.9555 70.8621 52.9246 68.8366C54.8938 66.8111 56 64.0639 56 61.1994V35.9981C56 33.1336 54.8938 30.3864 52.9246 28.3609C50.9555 26.3354 48.2848 25.1975 45.5 25.1975ZM49 61.1994C49 62.1543 48.6313 63.07 47.9749 63.7452C47.3185 64.4203 46.4283 64.7996 45.5 64.7996H10.5C9.57174 64.7996 8.6815 64.4203 8.02513 63.7452C7.36875 63.07 7 62.1543 7 61.1994V35.9981C7 35.0433 7.36875 34.1275 8.02513 33.4524C8.6815 32.7772 9.57174 32.3979 10.5 32.3979H45.5C46.4283 32.3979 47.3185 32.7772 47.9749 33.4524C48.6313 34.1275 49 35.0433 49 35.9981V61.1994Z" fill="#252A34"/>
</svg>
