<svg width="45" height="57" viewBox="0 0 45 57" fill="none" xmlns="http://www.w3.org/2000/svg">
<path d="M37.5808 30.2895C37.5118 23.0698 43.2896 19.6068 43.5466 19.4358C40.2998 14.5334 35.2432 13.8636 33.4416 13.7866C29.1393 13.3363 25.0443 16.4003 22.8586 16.4003C20.6812 16.4003 17.3101 13.8522 13.7401 13.9206C9.05372 13.9918 4.72934 16.7309 2.31431 21.0633C-2.55995 29.785 1.06535 42.7108 5.81527 49.7851C8.13634 53.2481 10.9051 57.1387 14.5386 56.9962C18.0368 56.8537 19.3604 54.6619 23.5908 54.6619C27.8213 54.6619 29.0122 56.9991 32.7149 56.9278C36.4811 56.8537 38.8657 53.3964 41.1702 49.9248C43.8367 45.9059 44.9337 42.0154 45 41.8158C44.9171 41.7788 37.6555 38.9086 37.5836 30.2866L37.5808 30.2895ZM30.6231 9.10366C32.5518 6.68951 33.8533 3.34048 33.4969 0C30.7199 0.114009 27.3515 1.90966 25.3593 4.31811C23.5715 6.45579 22.0048 9.86182 22.4248 13.1367C25.5251 13.3876 28.6917 11.5121 30.6231 9.10366Z" fill="#252A34"/>
</svg>
