<svg width="76" height="71" viewBox="0 0 76 71" fill="none" xmlns="http://www.w3.org/2000/svg">
<path d="M27.6364 46.15C26.9531 46.15 26.2852 46.3582 25.7171 46.7483C25.149 47.1384 24.7062 47.6928 24.4448 48.3415C24.1833 48.9902 24.1149 49.7039 24.2482 50.3926C24.3815 51.0812 24.7105 51.7138 25.1936 52.2102C25.6768 52.7067 26.2923 53.0448 26.9624 53.1818C27.6325 53.3188 28.3271 53.2485 28.9584 52.9798C29.5896 52.7111 30.1291 52.2561 30.5087 51.6723C30.8883 51.0885 31.0909 50.4021 31.0909 49.7C31.0909 48.7585 30.7269 47.8555 30.0791 47.1898C29.4312 46.524 28.5526 46.15 27.6364 46.15ZM3.45455 42.6C2.53834 42.6 1.65967 42.974 1.01181 43.6398C0.36396 44.3055 0 45.2085 0 46.15V53.25C0 54.1915 0.36396 55.0945 1.01181 55.7602C1.65967 56.426 2.53834 56.8 3.45455 56.8C4.37075 56.8 5.24943 56.426 5.89728 55.7602C6.54513 55.0945 6.90909 54.1915 6.90909 53.25V46.15C6.90909 45.2085 6.54513 44.3055 5.89728 43.6398C5.24943 42.974 4.37075 42.6 3.45455 42.6ZM72.5455 42.6C71.6292 42.6 70.7506 42.974 70.1027 43.6398C69.4549 44.3055 69.0909 45.2085 69.0909 46.15V53.25C69.0909 54.1915 69.4549 55.0945 70.1027 55.7602C70.7506 56.426 71.6292 56.8 72.5455 56.8C73.4617 56.8 74.3403 56.426 74.9882 55.7602C75.636 55.0945 76 54.1915 76 53.25V46.15C76 45.2085 75.636 44.3055 74.9882 43.6398C74.3403 42.974 73.4617 42.6 72.5455 42.6ZM55.2727 17.75H41.4545V13.206C42.4988 12.5865 43.3671 11.6969 43.9731 10.6258C44.5791 9.55457 44.9018 8.33905 44.9091 7.1C44.9091 5.21696 44.1812 3.41105 42.8855 2.07954C41.5898 0.748033 39.8324 0 38 0C36.1676 0 34.4102 0.748033 33.1145 2.07954C31.8188 3.41105 31.0909 5.21696 31.0909 7.1C31.0982 8.33905 31.4209 9.55457 32.0269 10.6258C32.633 11.6969 33.5012 12.5865 34.5455 13.206V17.75H20.7273C17.9787 17.75 15.3426 18.8721 13.3991 20.8693C11.4555 22.8666 10.3636 25.5754 10.3636 28.4V60.35C10.3636 63.1746 11.4555 65.8834 13.3991 67.8807C15.3426 69.878 17.9787 71 20.7273 71H55.2727C58.0213 71 60.6574 69.878 62.6009 67.8807C64.5445 65.8834 65.6364 63.1746 65.6364 60.35V28.4C65.6364 25.5754 64.5445 22.8666 62.6009 20.8693C60.6574 18.8721 58.0213 17.75 55.2727 17.75ZM43.9418 24.85L42.2145 31.95H33.7855L32.0582 24.85H43.9418ZM58.7273 60.35C58.7273 61.2915 58.3633 62.1945 57.7155 62.8602C57.0676 63.526 56.1889 63.9 55.2727 63.9H20.7273C19.8111 63.9 18.9324 63.526 18.2845 62.8602C17.6367 62.1945 17.2727 61.2915 17.2727 60.35V28.4C17.2727 27.4585 17.6367 26.5555 18.2845 25.8898C18.9324 25.224 19.8111 24.85 20.7273 24.85H24.9418L27.6364 36.352C27.8255 37.1397 28.2715 37.837 28.9 38.3279C29.5286 38.8188 30.3018 39.0736 31.0909 39.05H44.9091C45.6982 39.0736 46.4714 38.8188 47.1 38.3279C47.7285 37.837 48.1745 37.1397 48.3636 36.352L51.0582 24.85H55.2727C56.1889 24.85 57.0676 25.224 57.7155 25.8898C58.3633 26.5555 58.7273 27.4585 58.7273 28.4V60.35ZM48.3636 46.15C47.6804 46.15 47.0125 46.3582 46.4444 46.7483C45.8763 47.1384 45.4335 47.6928 45.1721 48.3415C44.9106 48.9902 44.8422 49.7039 44.9755 50.3926C45.1088 51.0812 45.4378 51.7138 45.9209 52.2102C46.404 52.7067 47.0196 53.0448 47.6897 53.1818C48.3598 53.3188 49.0544 53.2485 49.6856 52.9798C50.3169 52.7111 50.8564 52.2561 51.236 51.6723C51.6156 51.0885 51.8182 50.4021 51.8182 49.7C51.8182 48.7585 51.4542 47.8555 50.8064 47.1898C50.1585 46.524 49.2798 46.15 48.3636 46.15Z" fill="#252A34"/>
</svg>
