<svg width="1872" height="4949" viewBox="0 0 1872 4949" fill="none" xmlns="http://www.w3.org/2000/svg">
<path d="M1417.8 904.876L1412.97 902.59L1400.89 928.102L1405.72 930.388L1417.8 904.876Z" fill="white"/>
<path d="M1420.89 925.079L1423.18 920.25L1397.66 908.174L1395.37 913.003L1420.89 925.079Z" fill="white"/>
<path d="M202.627 241.906C202.636 245.151 201.657 248.325 199.814 251.027C197.971 253.728 195.347 255.836 192.275 257.082C189.203 258.327 185.82 258.656 182.556 258.025C179.292 257.394 176.294 255.832 173.941 253.538C171.588 251.243 169.987 248.319 169.34 245.136C168.693 241.953 169.03 238.655 170.307 235.658C171.585 232.662 173.746 230.103 176.516 228.306C179.286 226.509 182.541 225.554 185.869 225.563C190.313 225.563 194.576 227.284 197.719 230.349C200.862 233.414 202.627 237.571 202.627 241.906V241.906Z" stroke="white" stroke-width="2" stroke-miterlimit="10"/>
<path d="M1614.31 356.493C1614.32 361.348 1612.85 366.096 1610.09 370.137C1607.34 374.178 1603.41 377.33 1598.81 379.193C1594.22 381.057 1589.16 381.55 1584.27 380.608C1579.39 379.666 1574.9 377.333 1571.38 373.903C1567.85 370.473 1565.45 366.101 1564.48 361.34C1563.5 356.579 1564 351.644 1565.9 347.157C1567.81 342.671 1571.03 338.836 1575.17 336.138C1579.31 333.44 1584.17 332 1589.15 332C1595.82 332 1602.21 334.579 1606.93 339.171C1611.64 343.763 1614.3 349.993 1614.31 356.493V356.493Z" stroke="white" stroke-width="2" stroke-miterlimit="10"/>
<path d="M1818.16 23.8325C1818.16 25.7771 1817.57 27.6781 1816.46 29.2951C1815.35 30.912 1813.78 32.1723 1811.93 32.9165C1810.09 33.6607 1808.06 33.8553 1806.11 33.476C1804.15 33.0966 1802.36 32.1602 1800.95 30.7851C1799.54 29.41 1798.57 27.658 1798.19 25.7507C1797.8 23.8434 1798 21.8664 1798.76 20.0698C1799.52 18.2731 1800.82 16.7375 1802.47 15.6571C1804.13 14.5767 1806.08 14 1808.07 14C1809.4 14 1810.71 14.2544 1811.93 14.7485C1813.16 15.2427 1814.27 15.9669 1815.2 16.8799C1816.14 17.793 1816.88 18.8769 1817.39 20.0698C1817.9 21.2627 1818.16 22.5412 1818.16 23.8325V23.8325Z" stroke="white" stroke-width="2" stroke-miterlimit="10"/>
<path d="M206.897 5.43265L188.836 4L181.067 97.1456L199.129 98.5782L206.897 5.43265Z" fill="white"/>
<path d="M240.976 63.938L242.445 46.3242L146.933 38.7481L145.463 56.3619L240.976 63.938Z" fill="white"/>
<path d="M336.239 451.835L333.555 444.352L293 458.186L295.685 465.669L336.239 451.835Z" fill="white"/>
<path d="M317.76 476.169L325.434 473.551L311.248 434.002L303.574 436.619L317.76 476.169Z" fill="white"/>
<path d="M1585.41 4.01716L1576.7 0L1554.94 44.8365L1563.64 48.8536L1585.41 4.01716Z" fill="white"/>
<path d="M1590.97 39.5181L1595.09 31.0312L1549.12 9.8085L1545 18.2953L1590.97 39.5181Z" fill="white"/>
<path d="M1609.76 961.952C1609.76 963.447 1609.31 964.909 1608.48 966.152C1607.65 967.396 1606.47 968.365 1605.09 968.937C1603.71 969.509 1602.19 969.659 1600.72 969.367C1599.25 969.076 1597.91 968.355 1596.85 967.298C1595.79 966.241 1595.07 964.894 1594.78 963.427C1594.49 961.96 1594.64 960.44 1595.21 959.059C1595.78 957.677 1596.75 956.497 1597.99 955.666C1599.24 954.835 1600.7 954.392 1602.2 954.392C1603.19 954.375 1604.18 954.559 1605.11 954.932C1606.03 955.306 1606.87 955.863 1607.58 956.568C1608.29 957.274 1608.84 958.114 1609.22 959.039C1609.59 959.964 1609.77 960.955 1609.76 961.952V961.952Z" stroke="white" stroke-width="2" stroke-miterlimit="10"/>
<path d="M1727.98 701.37C1727.99 703.216 1727.44 705.022 1726.42 706.56C1725.4 708.097 1723.94 709.296 1722.24 710.005C1720.53 710.714 1718.65 710.9 1716.84 710.541C1715.03 710.182 1713.37 709.294 1712.06 707.988C1710.75 706.683 1709.87 705.019 1709.51 703.208C1709.15 701.397 1709.33 699.52 1710.04 697.815C1710.75 696.11 1711.95 694.654 1713.49 693.631C1715.03 692.609 1716.83 692.065 1718.68 692.07C1721.15 692.07 1723.51 693.05 1725.26 694.794C1727 696.538 1727.98 698.903 1727.98 701.37V701.37Z" stroke="white" stroke-width="2" stroke-miterlimit="10"/>
<path d="M1815.1 421.815L1805.07 421L1800.76 474L1810.78 474.815L1815.1 421.815Z" fill="white"/>
<path d="M1834.01 455.104L1834.83 445.082L1781.81 440.771L1781 450.794L1834.01 455.104Z" fill="white"/>
<path d="M123.998 699.145L122.508 694.887L99.9986 702.759L101.488 707.017L123.998 699.145Z" fill="white"/>
<path d="M113.741 712.993L118 711.504L110.126 689L105.867 690.49L113.741 712.993Z" fill="white"/>
<path d="M1441.8 2372.88L1436.97 2370.59L1424.89 2396.1L1429.72 2398.39L1441.8 2372.88Z" fill="white"/>
<path d="M1444.89 2393.08L1447.18 2388.25L1421.66 2376.17L1419.37 2381L1444.89 2393.08Z" fill="white"/>
<path d="M226.627 1709.91C226.636 1713.15 225.657 1716.33 223.814 1719.03C221.971 1721.73 219.347 1723.84 216.275 1725.08C213.203 1726.33 209.82 1726.66 206.556 1726.02C203.292 1725.39 200.294 1723.83 197.941 1721.54C195.588 1719.24 193.987 1716.32 193.34 1713.14C192.693 1709.95 193.03 1706.65 194.307 1703.66C195.585 1700.66 197.746 1698.1 200.516 1696.31C203.286 1694.51 206.541 1693.55 209.869 1693.56C214.313 1693.56 218.576 1695.28 221.719 1698.35C224.862 1701.41 226.627 1705.57 226.627 1709.91V1709.91Z" stroke="white" stroke-width="2" stroke-miterlimit="10"/>
<path d="M1638.31 1824.49C1638.32 1829.35 1636.85 1834.1 1634.09 1838.14C1631.34 1842.18 1627.41 1845.33 1622.81 1847.19C1618.22 1849.06 1613.16 1849.55 1608.27 1848.61C1603.39 1847.67 1598.9 1845.33 1595.38 1841.9C1591.85 1838.47 1589.45 1834.1 1588.48 1829.34C1587.5 1824.58 1588 1819.64 1589.9 1815.16C1591.81 1810.67 1595.03 1806.84 1599.17 1804.14C1603.31 1801.44 1608.17 1800 1613.15 1800C1619.82 1800 1626.21 1802.58 1630.93 1807.17C1635.64 1811.76 1638.3 1817.99 1638.31 1824.49V1824.49Z" stroke="white" stroke-width="2" stroke-miterlimit="10"/>
<path d="M1842.16 1491.83C1842.16 1493.78 1841.57 1495.68 1840.46 1497.3C1839.35 1498.91 1837.78 1500.17 1835.93 1500.92C1834.09 1501.66 1832.06 1501.86 1830.11 1501.48C1828.15 1501.1 1826.36 1500.16 1824.95 1498.79C1823.54 1497.41 1822.57 1495.66 1822.19 1493.75C1821.8 1491.84 1822 1489.87 1822.76 1488.07C1823.52 1486.27 1824.82 1484.74 1826.47 1483.66C1828.13 1482.58 1830.08 1482 1832.07 1482C1833.4 1482 1834.71 1482.25 1835.93 1482.75C1837.16 1483.24 1838.27 1483.97 1839.2 1484.88C1840.14 1485.79 1840.88 1486.88 1841.39 1488.07C1841.9 1489.26 1842.16 1490.54 1842.16 1491.83V1491.83Z" stroke="white" stroke-width="2" stroke-miterlimit="10"/>
<path d="M230.897 1473.43L212.836 1472L205.067 1565.15L223.129 1566.58L230.897 1473.43Z" fill="white"/>
<path d="M264.976 1531.94L266.445 1514.32L170.933 1506.75L169.463 1524.36L264.976 1531.94Z" fill="white"/>
<path d="M360.239 1919.83L357.555 1912.35L317 1926.19L319.685 1933.67L360.239 1919.83Z" fill="white"/>
<path d="M341.76 1944.17L349.434 1941.55L335.248 1902L327.574 1904.62L341.76 1944.17Z" fill="white"/>
<path d="M1570.4 1471.02L1561.7 1467L1539.93 1511.84L1548.64 1515.85L1570.4 1471.02Z" fill="white"/>
<path d="M1575.97 1506.52L1580.09 1498.03L1534.11 1476.81L1529.99 1485.3L1575.97 1506.52Z" fill="white"/>
<path d="M1633.76 2429.95C1633.76 2431.45 1633.31 2432.91 1632.48 2434.15C1631.65 2435.4 1630.47 2436.36 1629.09 2436.94C1627.71 2437.51 1626.19 2437.66 1624.72 2437.37C1623.25 2437.08 1621.91 2436.36 1620.85 2435.3C1619.79 2434.24 1619.07 2432.89 1618.78 2431.43C1618.49 2429.96 1618.64 2428.44 1619.21 2427.06C1619.78 2425.68 1620.75 2424.5 1621.99 2423.67C1623.24 2422.84 1624.7 2422.39 1626.2 2422.39C1627.19 2422.37 1628.18 2422.56 1629.11 2422.93C1630.03 2423.31 1630.87 2423.86 1631.58 2424.57C1632.29 2425.27 1632.84 2426.11 1633.22 2427.04C1633.59 2427.96 1633.77 2428.95 1633.76 2429.95V2429.95Z" stroke="white" stroke-width="2" stroke-miterlimit="10"/>
<path d="M1751.98 2169.37C1751.99 2171.22 1751.44 2173.02 1750.42 2174.56C1749.4 2176.1 1747.94 2177.3 1746.24 2178C1744.53 2178.71 1742.65 2178.9 1740.84 2178.54C1739.03 2178.18 1737.37 2177.29 1736.06 2175.99C1734.75 2174.68 1733.87 2173.02 1733.51 2171.21C1733.15 2169.4 1733.33 2167.52 1734.04 2165.81C1734.75 2164.11 1735.95 2162.65 1737.49 2161.63C1739.03 2160.61 1740.83 2160.07 1742.68 2160.07C1745.15 2160.07 1747.51 2161.05 1749.26 2162.79C1751 2164.54 1751.98 2166.9 1751.98 2169.37V2169.37Z" stroke="white" stroke-width="2" stroke-miterlimit="10"/>
<path d="M1839.1 1889.82L1829.07 1889L1824.76 1942L1834.78 1942.82L1839.1 1889.82Z" fill="white"/>
<path d="M1858.01 1923.1L1858.83 1913.08L1805.81 1908.77L1805 1918.79L1858.01 1923.1Z" fill="white"/>
<path d="M147.998 2167.14L146.508 2162.89L123.999 2170.76L125.488 2175.02L147.998 2167.14Z" fill="white"/>
<path d="M137.741 2180.99L142 2179.5L134.126 2157L129.867 2158.49L137.741 2180.99Z" fill="white"/>
<path d="M1409.8 4922.88L1404.97 4920.59L1392.89 4946.1L1397.72 4948.39L1409.8 4922.88Z" fill="white"/>
<path d="M1412.89 4943.08L1415.18 4938.25L1389.66 4926.17L1387.37 4931L1412.89 4943.08Z" fill="white"/>
<path d="M194.627 4259.91C194.636 4263.15 193.657 4266.33 191.814 4269.03C189.971 4271.73 187.347 4273.84 184.275 4275.08C181.203 4276.33 177.82 4276.66 174.556 4276.02C171.292 4275.39 168.294 4273.83 165.941 4271.54C163.588 4269.24 161.987 4266.32 161.34 4263.14C160.693 4259.95 161.03 4256.65 162.307 4253.66C163.585 4250.66 165.746 4248.1 168.516 4246.31C171.286 4244.51 174.541 4243.55 177.869 4243.56C182.313 4243.56 186.576 4245.28 189.719 4248.35C192.862 4251.41 194.627 4255.57 194.627 4259.91V4259.91Z" stroke="white" stroke-width="2" stroke-miterlimit="10"/>
<path d="M1606.31 4374.49C1606.32 4379.35 1604.85 4384.1 1602.09 4388.14C1599.34 4392.18 1595.41 4395.33 1590.81 4397.19C1586.22 4399.06 1581.16 4399.55 1576.27 4398.61C1571.39 4397.67 1566.9 4395.33 1563.38 4391.9C1559.85 4388.47 1557.45 4384.1 1556.48 4379.34C1555.5 4374.58 1556 4369.64 1557.9 4365.16C1559.81 4360.67 1563.03 4356.84 1567.17 4354.14C1571.31 4351.44 1576.17 4350 1581.15 4350C1587.82 4350 1594.21 4352.58 1598.93 4357.17C1603.64 4361.76 1606.3 4367.99 1606.31 4374.49V4374.49Z" stroke="white" stroke-width="2" stroke-miterlimit="10"/>
<path d="M1810.16 4041.83C1810.16 4043.78 1809.57 4045.68 1808.46 4047.3C1807.35 4048.91 1805.78 4050.17 1803.93 4050.92C1802.09 4051.66 1800.06 4051.86 1798.11 4051.48C1796.15 4051.1 1794.36 4050.16 1792.95 4048.79C1791.54 4047.41 1790.57 4045.66 1790.19 4043.75C1789.8 4041.84 1790 4039.87 1790.76 4038.07C1791.52 4036.27 1792.82 4034.74 1794.47 4033.66C1796.13 4032.58 1798.08 4032 1800.07 4032C1801.4 4032 1802.71 4032.25 1803.93 4032.75C1805.16 4033.24 1806.27 4033.97 1807.2 4034.88C1808.14 4035.79 1808.88 4036.88 1809.39 4038.07C1809.9 4039.26 1810.16 4040.54 1810.16 4041.83V4041.83Z" stroke="white" stroke-width="2" stroke-miterlimit="10"/>
<path d="M198.897 4023.43L180.836 4022L173.067 4115.15L191.129 4116.58L198.897 4023.43Z" fill="white"/>
<path d="M232.976 4081.94L234.445 4064.32L138.933 4056.75L137.463 4074.36L232.976 4081.94Z" fill="white"/>
<path d="M328.239 4469.83L325.555 4462.35L285 4476.19L287.685 4483.67L328.239 4469.83Z" fill="white"/>
<path d="M309.76 4494.17L317.434 4491.55L303.248 4452L295.574 4454.62L309.76 4494.17Z" fill="white"/>
<path d="M1538.4 4021.02L1529.7 4017L1507.93 4061.84L1516.64 4065.85L1538.4 4021.02Z" fill="white"/>
<path d="M1543.97 4056.52L1548.09 4048.03L1502.11 4026.81L1497.99 4035.3L1543.97 4056.52Z" fill="white"/>
<path d="M1719.98 4719.37C1719.99 4721.22 1719.44 4723.02 1718.42 4724.56C1717.4 4726.1 1715.94 4727.3 1714.24 4728C1712.53 4728.71 1710.65 4728.9 1708.84 4728.54C1707.03 4728.18 1705.37 4727.29 1704.06 4725.99C1702.75 4724.68 1701.87 4723.02 1701.51 4721.21C1701.15 4719.4 1701.33 4717.52 1702.04 4715.81C1702.75 4714.11 1703.95 4712.65 1705.49 4711.63C1707.03 4710.61 1708.83 4710.07 1710.68 4710.07C1713.15 4710.07 1715.51 4711.05 1717.26 4712.79C1719 4714.54 1719.98 4716.9 1719.98 4719.37V4719.37Z" stroke="white" stroke-width="2" stroke-miterlimit="10"/>
<path d="M1807.1 4439.82L1797.07 4439L1792.76 4492L1802.78 4492.82L1807.1 4439.82Z" fill="white"/>
<path d="M1826.01 4473.1L1826.83 4463.08L1773.81 4458.77L1773 4468.79L1826.01 4473.1Z" fill="white"/>
<path d="M115.998 4717.14L114.508 4712.89L91.9986 4720.76L93.4885 4725.02L115.998 4717.14Z" fill="white"/>
<path d="M105.741 4730.99L110 4729.5L102.126 4707L97.8671 4708.49L105.741 4730.99Z" fill="white"/>
<path d="M1454.8 3820.88L1449.97 3818.59L1437.89 3844.1L1442.72 3846.39L1454.8 3820.88Z" fill="white"/>
<path d="M1457.89 3841.08L1460.18 3836.25L1434.66 3824.17L1432.37 3829L1457.89 3841.08Z" fill="white"/>
<path d="M239.627 3157.91C239.636 3161.15 238.657 3164.33 236.814 3167.03C234.971 3169.73 232.347 3171.84 229.275 3173.08C226.203 3174.33 222.82 3174.66 219.556 3174.02C216.292 3173.39 213.294 3171.83 210.941 3169.54C208.588 3167.24 206.987 3164.32 206.34 3161.14C205.693 3157.95 206.03 3154.65 207.307 3151.66C208.585 3148.66 210.746 3146.1 213.516 3144.31C216.286 3142.51 219.541 3141.55 222.869 3141.56C227.313 3141.56 231.576 3143.28 234.719 3146.35C237.862 3149.41 239.627 3153.57 239.627 3157.91V3157.91Z" stroke="white" stroke-width="2" stroke-miterlimit="10"/>
<path d="M1651.31 3272.49C1651.32 3277.35 1649.85 3282.1 1647.09 3286.14C1644.34 3290.18 1640.41 3293.33 1635.81 3295.19C1631.22 3297.06 1626.16 3297.55 1621.27 3296.61C1616.39 3295.67 1611.9 3293.33 1608.38 3289.9C1604.85 3286.47 1602.45 3282.1 1601.48 3277.34C1600.5 3272.58 1601 3267.64 1602.9 3263.16C1604.81 3258.67 1608.03 3254.84 1612.17 3252.14C1616.31 3249.44 1621.17 3248 1626.15 3248C1632.82 3248 1639.21 3250.58 1643.93 3255.17C1648.64 3259.76 1651.3 3265.99 1651.31 3272.49V3272.49Z" stroke="white" stroke-width="2" stroke-miterlimit="10"/>
<path d="M1855.16 2939.83C1855.16 2941.78 1854.57 2943.68 1853.46 2945.3C1852.35 2946.91 1850.78 2948.17 1848.93 2948.92C1847.09 2949.66 1845.06 2949.86 1843.11 2949.48C1841.15 2949.1 1839.36 2948.16 1837.95 2946.79C1836.54 2945.41 1835.57 2943.66 1835.19 2941.75C1834.8 2939.84 1835 2937.87 1835.76 2936.07C1836.52 2934.27 1837.82 2932.74 1839.47 2931.66C1841.13 2930.58 1843.08 2930 1845.07 2930C1846.4 2930 1847.71 2930.25 1848.93 2930.75C1850.16 2931.24 1851.27 2931.97 1852.2 2932.88C1853.14 2933.79 1853.88 2934.88 1854.39 2936.07C1854.9 2937.26 1855.16 2938.54 1855.16 2939.83V2939.83Z" stroke="white" stroke-width="2" stroke-miterlimit="10"/>
<path d="M243.897 2921.43L225.836 2920L218.067 3013.15L236.129 3014.58L243.897 2921.43Z" fill="white"/>
<path d="M277.976 2979.94L279.445 2962.32L183.933 2954.75L182.463 2972.36L277.976 2979.94Z" fill="white"/>
<path d="M373.239 3367.83L370.555 3360.35L330 3374.19L332.685 3381.67L373.239 3367.83Z" fill="white"/>
<path d="M354.76 3392.17L362.434 3389.55L348.248 3350L340.574 3352.62L354.76 3392.17Z" fill="white"/>
<path d="M1583.4 2919.02L1574.7 2915L1552.93 2959.84L1561.64 2963.85L1583.4 2919.02Z" fill="white"/>
<path d="M1588.97 2954.52L1593.09 2946.03L1547.11 2924.81L1542.99 2933.3L1588.97 2954.52Z" fill="white"/>
<path d="M1646.76 3877.95C1646.76 3879.45 1646.31 3880.91 1645.48 3882.15C1644.65 3883.4 1643.47 3884.36 1642.09 3884.94C1640.71 3885.51 1639.19 3885.66 1637.72 3885.37C1636.25 3885.08 1634.91 3884.36 1633.85 3883.3C1632.79 3882.24 1632.07 3880.89 1631.78 3879.43C1631.49 3877.96 1631.64 3876.44 1632.21 3875.06C1632.78 3873.68 1633.75 3872.5 1634.99 3871.67C1636.24 3870.84 1637.7 3870.39 1639.2 3870.39C1640.19 3870.37 1641.18 3870.56 1642.11 3870.93C1643.03 3871.31 1643.87 3871.86 1644.58 3872.57C1645.29 3873.27 1645.84 3874.11 1646.22 3875.04C1646.59 3875.96 1646.77 3876.95 1646.76 3877.95V3877.95Z" stroke="white" stroke-width="2" stroke-miterlimit="10"/>
<path d="M1764.98 3617.37C1764.99 3619.22 1764.44 3621.02 1763.42 3622.56C1762.4 3624.1 1760.94 3625.3 1759.24 3626C1757.53 3626.71 1755.65 3626.9 1753.84 3626.54C1752.03 3626.18 1750.37 3625.29 1749.06 3623.99C1747.75 3622.68 1746.87 3621.02 1746.51 3619.21C1746.15 3617.4 1746.33 3615.52 1747.04 3613.81C1747.75 3612.11 1748.95 3610.65 1750.49 3609.63C1752.03 3608.61 1753.83 3608.07 1755.68 3608.07C1758.15 3608.07 1760.51 3609.05 1762.26 3610.79C1764 3612.54 1764.98 3614.9 1764.98 3617.37V3617.37Z" stroke="white" stroke-width="2" stroke-miterlimit="10"/>
<path d="M1852.1 3337.82L1842.07 3337L1837.76 3390L1847.78 3390.82L1852.1 3337.82Z" fill="white"/>
<path d="M1871.01 3371.1L1871.83 3361.08L1818.81 3356.77L1818 3366.79L1871.01 3371.1Z" fill="white"/>
<path d="M160.998 3615.14L159.508 3610.89L136.999 3618.76L138.488 3623.02L160.998 3615.14Z" fill="white"/>
<path d="M150.741 3628.99L155 3627.5L147.126 3605L142.867 3606.49L150.741 3628.99Z" fill="white"/>
</svg>
