<svg width="513" height="448" viewBox="0 0 513 448" fill="none" xmlns="http://www.w3.org/2000/svg">
<path d="M394.571 406.009C396.747 399.775 403.236 397.38 409.013 396.503C421.682 416.32 437.513 420.269 446.178 420.781L443.655 435.645H415.119L413.583 423.779C406.271 423.652 399.946 421.183 396.509 416.942C395.243 415.457 394.396 413.661 394.055 411.739C393.714 409.817 393.893 407.839 394.571 406.009ZM401.993 412.5C403.693 414.602 407.478 416.43 412.669 416.704L410.951 403.377C406.71 403.889 402.322 405.205 401.226 408.349C400.959 409.045 400.889 409.8 401.025 410.533C401.16 411.265 401.495 411.946 401.993 412.5Z" fill="#00AED6"/>
<path d="M409.014 396.502L410.056 396.338L408.227 382.955C408.204 382.768 408.221 382.579 408.276 382.398C408.332 382.218 408.425 382.052 408.549 381.91C408.673 381.769 408.826 381.655 408.998 381.577C409.169 381.498 409.355 381.457 409.544 381.456H451.114C451.339 381.452 451.563 381.5 451.767 381.596C451.971 381.693 452.15 381.835 452.29 382.012C452.43 382.189 452.527 382.396 452.573 382.617C452.62 382.838 452.615 383.066 452.558 383.284L446.178 420.872C437.513 420.269 421.682 416.32 409.014 396.502Z" fill="#00B7D8"/>
<path d="M428.059 375.898C432.173 373.704 436.103 365.807 437.73 362.15C438.623 360.357 439.113 358.39 439.163 356.387C439.214 354.385 438.824 352.395 438.022 350.559C436.505 347.543 433.598 345.459 431.789 342.607C430.852 341.131 430.228 339.479 429.955 337.753C429.681 336.027 429.764 334.263 430.198 332.57C431.441 327.817 435.335 324.032 436.231 319.206C437.273 313.538 433.982 308.09 432.575 302.514C431.247 297.347 431.508 291.9 433.324 286.883C429.303 289.26 426.889 293.574 424.659 297.706C422.648 301.454 420.546 305.476 420.839 309.754C421.228 312.411 421.985 315.002 423.087 317.451C424.787 322.003 425.957 327.012 424.751 331.711C422.923 338.822 415.903 344.398 416.177 351.821C416.403 353.997 417.089 356.1 418.189 357.991C419.289 359.882 420.778 361.518 422.557 362.79C424.948 364.324 427.082 366.224 428.882 368.421C430.436 370.798 430.491 374.509 428.096 376.008" fill="#D5D5D5"/>
<path d="M174.525 160.589C177.803 167.826 180.173 175.44 181.582 183.259C182.807 190.864 183.227 198.615 185.128 206.093C186.949 212.666 189.448 219.032 192.587 225.088C192.914 225.644 193.102 226.271 193.135 226.916C193.039 227.515 192.806 228.084 192.454 228.579C192.102 229.074 191.641 229.481 191.106 229.768C183.587 235.143 174.834 238.534 165.657 239.627C156.479 240.72 147.175 239.479 138.604 236.02" fill="#4B3C51"/>
<path d="M178.474 211.909C170.377 211.909 163.813 203.749 163.813 193.682C163.813 183.616 170.377 175.455 178.474 175.455C186.571 175.455 193.135 183.616 193.135 193.682C193.135 203.749 186.571 211.909 178.474 211.909Z" fill="#00B7D8"/>
<path d="M171.583 214.487C163.485 214.487 156.921 206.327 156.921 196.26C156.921 186.194 163.485 178.033 171.583 178.033C179.68 178.033 186.244 186.194 186.244 196.26C186.244 206.327 179.68 214.487 171.583 214.487Z" fill="#04A2BC"/>
<path d="M138.605 236.004L169.188 171.835C172.57 183.096 175.952 194.376 179.151 205.711C180.328 209.453 181.154 213.297 181.619 217.192C181.929 220.608 181.694 224.051 180.925 227.394C180.287 230.687 178.8 233.756 176.61 236.297C176.182 236.723 175.73 237.126 175.258 237.504C163.23 241.226 150.288 240.697 138.605 236.004Z" fill="#3E3244"/>
<path d="M145.022 233.792C143.651 241.581 142.499 250.429 147.344 256.7C148.612 257.891 149.486 259.441 149.848 261.142C149.958 263.409 147.783 265.091 145.753 266.097C141.801 268.042 137.494 269.164 133.094 269.393C128.694 269.622 124.294 268.955 120.16 267.431C119.462 267.222 118.831 266.83 118.332 266.298C117.29 265.018 117.948 263.135 118.588 261.618C121.479 254.617 122.929 247.106 122.85 239.532C122.772 231.959 121.167 224.479 118.131 217.54" fill="#E8A17E"/>
<path d="M145.717 231.524C144.209 236.832 143.652 242.365 144.072 247.868C144.101 247.96 144.107 248.058 144.091 248.153C144.075 248.248 144.037 248.338 143.981 248.416C143.798 248.617 143.505 248.544 143.25 248.416C141.428 247.833 139.684 247.028 138.058 246.021C135.078 243.937 132.63 241.181 130.91 237.977C128.991 234.142 128.138 229.86 128.442 225.582" fill="#D88D6C"/>
<path d="M163.741 161.631C169.226 167.847 170.578 176.677 171.31 184.959C172.158 192.247 172.158 199.609 171.31 206.898C170.459 214.237 167.593 221.198 163.028 227.008C161.047 229.401 158.718 231.484 156.118 233.187C154.359 234.391 152.395 235.265 150.323 235.765C146.356 236.624 142.262 235.472 138.423 234.229C129.648 231.395 120.599 227.538 115.188 220.079C108.131 210.335 103.452 184.74 101.624 172.856" fill="#E8A17E"/>
<path d="M174.798 169.202C166.531 176.327 156.462 181.039 145.695 182.822C139.467 183.709 133.17 184.021 126.885 183.755C124.526 183.781 122.172 183.548 119.865 183.06C116.632 182.379 113.792 180.464 111.949 177.722C111.052 176.351 110.564 174.753 110.541 173.115C110.518 171.477 110.962 169.866 111.821 168.471" fill="#D88D6C"/>
<path d="M103.963 136.751C119.612 129.183 142.261 130.755 153.65 137.263C165.039 143.772 169.755 149.622 175.697 163.187C176.044 164.01 178.11 169.001 177.799 169.824C177.69 170.193 177.493 170.53 177.226 170.807C176.958 171.084 176.628 171.292 176.263 171.414C162.206 176.789 149.848 177.758 134.803 178.508C129.799 178.913 124.764 178.599 119.849 177.575C112.957 200.665 116.54 217.229 128.021 238.418C120.562 241.562 91.4593 243.39 77.6757 232.677C74.0211 229.999 70.9592 226.594 68.6816 222.677C63.1974 212.64 65.5373 200.263 68.5353 189.221C70.5266 180.932 73.4711 172.901 77.3101 165.29C83.5255 153.772 91.9346 141.925 103.963 136.751Z" fill="#4B3C51"/>
<path d="M158.767 212.528C157.615 216.057 156.317 219.311 153.283 221.304C151.674 222.204 149.868 222.693 148.025 222.728C146.182 222.763 144.358 222.343 142.717 221.505C139.389 219.933 136.227 216.02 133.905 213.186C142.216 214.047 150.604 213.826 158.858 212.528" fill="white"/>
<path d="M93.8913 231.085C94.8771 230.366 95.6585 229.402 96.1581 228.288C96.7433 225.992 96.5438 223.566 95.5914 221.396C94.3501 217.596 93.7327 213.62 93.7633 209.622C93.8073 205.607 95.2415 201.73 97.8216 198.653C101.697 194.357 107.766 193.004 113.433 191.852L117.089 191.139C114.969 207.703 119.009 221.634 128.058 238.453C120.581 241.598 91.4965 243.426 77.6946 232.713C77.1827 232.31 76.7074 231.89 76.2139 231.469C77.0529 231.97 77.9265 232.41 78.828 232.786C81.2765 233.805 83.9443 234.184 86.5798 233.887C89.2153 233.589 91.7316 232.625 93.8913 231.085Z" fill="#3E3244"/>
<path d="M144.855 191.707C145.91 191.105 147.104 190.788 148.319 190.788C149.534 190.788 150.728 191.105 151.783 191.707L152.533 190.611C151.275 189.871 149.842 189.481 148.383 189.481C146.924 189.481 145.491 189.871 144.233 190.611L144.855 191.707Z" fill="#161119"/>
<path d="M116.886 191.322L120.377 191.267V189.932H117.05L116.886 191.322Z" fill="#161119"/>
<path d="M149.372 194.118L153.595 207.08L146.941 207.61" fill="#D88D6C"/>
<path d="M136.156 183.825C135.882 183.661 135.589 183.533 135.315 183.386L134.785 183.149H134.986C134.547 182.966 134.108 182.801 133.651 182.655C133.095 182.47 132.527 182.323 131.951 182.216C131.586 182.216 131.22 182.07 130.854 182.033H131.056C129.99 181.885 128.911 181.854 127.838 181.942L126.833 182.033H127.052C125.962 182.177 124.89 182.434 123.853 182.801L122.902 183.167H123.085C121.922 183.66 120.813 184.273 119.776 184.995C119.678 185.036 119.572 185.058 119.466 185.058C119.359 185.058 119.253 185.036 119.155 184.995C118.958 184.934 118.789 184.804 118.68 184.629C118.598 184.43 118.598 184.207 118.68 184.008C118.739 183.81 118.869 183.641 119.045 183.533C120.682 182.397 122.49 181.533 124.401 180.973C125.963 180.517 127.583 180.295 129.209 180.315C130.541 180.33 131.866 180.502 133.158 180.827C134.111 181.067 135.041 181.392 135.937 181.796C136.305 181.96 136.665 182.143 137.015 182.344C137.195 182.448 137.326 182.619 137.381 182.82C137.462 183.019 137.462 183.242 137.381 183.441C137.271 183.616 137.103 183.746 136.905 183.807C136.694 183.86 136.471 183.827 136.284 183.715L136.156 183.825Z" fill="#3E3244"/>
<path d="M157.727 183.826C157.954 183.605 158.198 183.403 158.458 183.222L158.933 182.912L158.769 183.021C159.153 182.765 159.555 182.528 159.975 182.29C160.492 182.017 161.023 181.773 161.566 181.559C161.912 181.412 162.266 181.284 162.626 181.175H162.425C163.449 180.844 164.502 180.612 165.569 180.48H166.575H166.355C167.456 180.422 168.559 180.483 169.646 180.663C169.984 180.706 170.32 180.767 170.651 180.846H170.432C171.675 181.12 170.03 181.961 172.26 181.376C171.897 180.748 171.398 180.209 170.801 179.798C170.203 179.387 169.521 179.114 168.805 178.999C167.188 178.834 165.556 178.908 163.961 179.219C162.648 179.481 161.372 179.898 160.158 180.462C159.27 180.867 158.42 181.351 157.617 181.906C157.276 182.131 156.952 182.382 156.648 182.656C156.494 182.8 156.397 182.994 156.374 183.204C156.366 183.31 156.38 183.417 156.415 183.517C156.449 183.618 156.504 183.71 156.575 183.789C156.64 183.869 156.721 183.934 156.812 183.981C156.903 184.029 157.003 184.056 157.105 184.063C157.213 184.075 157.322 184.065 157.426 184.034C157.529 184.002 157.626 183.95 157.709 183.881L157.727 183.826Z" fill="#3E3244"/>
<path d="M135.643 192.711V192.62V192.711L135.314 192.309L134.748 191.742L134.309 191.395H134.419C134.074 191.123 133.7 190.89 133.303 190.7L132.938 190.517H133.047C132.7 190.372 132.339 190.262 131.969 190.188C131.86 190.171 131.749 190.171 131.64 190.188H131.75C131.391 190.152 131.03 190.152 130.671 190.188H130.342H130.47C130.064 190.24 129.665 190.338 129.282 190.481L128.916 190.609H129.026C128.501 190.836 128 191.111 127.527 191.431L127.088 191.76L126.722 192.053C126.684 192.098 126.636 192.134 126.583 192.159C126.529 192.185 126.471 192.198 126.412 192.199C126.35 192.198 126.289 192.185 126.232 192.16C126.175 192.135 126.125 192.098 126.083 192.053C126.04 192.014 126.007 191.965 125.985 191.912C125.962 191.858 125.952 191.8 125.955 191.742C125.951 191.681 125.96 191.62 125.982 191.564C126.004 191.507 126.039 191.455 126.083 191.413C126.61 190.964 127.18 190.566 127.783 190.225C128.284 189.942 128.818 189.721 129.373 189.567C129.863 189.439 130.366 189.365 130.872 189.347C131.32 189.345 131.767 189.387 132.207 189.475C132.615 189.571 133.013 189.705 133.395 189.877C133.717 190.026 134.029 190.197 134.327 190.389C134.619 190.586 134.9 190.8 135.168 191.029C135.369 191.194 135.552 191.377 135.735 191.559C135.918 191.742 135.991 191.834 136.1 191.98L136.338 192.291C136.382 192.402 136.382 192.526 136.338 192.638C136.323 192.697 136.296 192.752 136.258 192.799C136.22 192.846 136.173 192.885 136.119 192.912C136.064 192.936 136.005 192.948 135.945 192.948C135.885 192.948 135.826 192.936 135.771 192.912C135.658 192.872 135.561 192.795 135.497 192.693L135.643 192.711Z" fill="#3E3244"/>
<path d="M168.86 191.525L168.769 191.415C168.67 191.278 168.56 191.15 168.44 191.031C168.257 190.83 168.074 190.647 167.873 190.465C167.741 190.339 167.601 190.223 167.453 190.117H167.544C167.198 189.842 166.824 189.603 166.429 189.404L166.063 189.24H166.173C165.826 189.092 165.465 188.981 165.095 188.911H164.766H164.893C164.535 188.874 164.174 188.874 163.815 188.911H163.486H163.596C163.191 188.971 162.794 189.069 162.407 189.203L162.06 189.349H162.17C161.639 189.572 161.136 189.854 160.671 190.19C160.524 190.3 160.378 190.392 160.232 190.519H160.323C160.194 190.607 160.071 190.705 159.958 190.812C159.866 190.891 159.75 190.936 159.629 190.94C159.508 190.933 159.393 190.889 159.3 190.812C159.221 190.72 159.175 190.604 159.172 190.483C159.17 190.361 159.216 190.243 159.3 190.154C159.828 189.71 160.397 189.319 161 188.984C161.507 188.695 162.047 188.468 162.608 188.307C163.092 188.18 163.589 188.106 164.089 188.088C164.544 188.091 164.997 188.14 165.442 188.234C165.849 188.332 166.247 188.467 166.63 188.636C166.952 188.786 167.264 188.957 167.562 189.148C167.852 189.335 168.127 189.543 168.385 189.77L168.97 190.318C169.098 190.446 169.208 190.593 169.336 190.739C169.418 190.829 169.492 190.927 169.555 191.031C169.601 191.143 169.601 191.267 169.555 191.379C169.541 191.436 169.517 191.489 169.482 191.536C169.448 191.583 169.404 191.623 169.354 191.653C169.243 191.699 169.118 191.699 169.007 191.653C168.895 191.619 168.798 191.548 168.732 191.452L168.86 191.525Z" fill="#3E3244"/>
<path opacity="0.45" d="M125.535 210.281C122.375 210.281 119.814 207.719 119.814 204.559C119.814 201.399 122.375 198.837 125.535 198.837C128.696 198.837 131.257 201.399 131.257 204.559C131.257 207.719 128.696 210.281 125.535 210.281Z" fill="#F27B53"/>
<path opacity="0.45" d="M166.757 207.154C164.091 207.154 161.931 204.994 161.931 202.328C161.931 199.662 164.091 197.502 166.757 197.502C169.422 197.502 171.583 199.662 171.583 202.328C171.583 204.994 169.422 207.154 166.757 207.154Z" fill="#F27B53"/>
<path d="M164.344 204.25C166.851 204.253 169.303 203.513 171.389 202.122C173.475 200.732 175.102 198.753 176.063 196.437C177.024 194.122 177.276 191.573 176.788 189.113C176.3 186.654 175.093 184.395 173.32 182.622C171.547 180.849 169.288 179.642 166.829 179.154C164.37 178.665 161.821 178.918 159.506 179.879C157.19 180.84 155.212 182.467 153.821 184.553C152.431 186.639 151.69 189.091 151.694 191.599C151.703 194.951 153.039 198.163 155.41 200.534C157.78 202.904 160.992 204.24 164.344 204.25ZM164.344 180.483C166.561 180.48 168.729 181.134 170.575 182.363C172.42 183.592 173.859 185.341 174.71 187.389C175.561 189.436 175.786 191.69 175.355 193.865C174.925 196.04 173.859 198.039 172.293 199.608C170.726 201.177 168.729 202.246 166.555 202.68C164.381 203.114 162.127 202.893 160.078 202.046C158.029 201.198 156.278 199.762 155.046 197.918C153.814 196.075 153.156 193.907 153.156 191.69C153.147 190.213 153.429 188.748 153.986 187.38C154.544 186.012 155.366 184.768 156.405 183.718C157.444 182.669 158.681 181.835 160.043 181.264C161.405 180.693 162.867 180.397 164.344 180.392V180.483Z" fill="#161119"/>
<path d="M132.497 204.25C135.005 204.253 137.456 203.513 139.543 202.122C141.629 200.732 143.255 198.753 144.216 196.437C145.177 194.122 145.43 191.573 144.942 189.113C144.453 186.654 143.246 184.395 141.474 182.622C139.701 180.849 137.442 179.642 134.983 179.154C132.524 178.665 129.975 178.918 127.659 179.879C125.344 180.84 123.365 182.467 121.975 184.553C120.584 186.639 119.844 189.091 119.847 191.599C119.857 194.951 121.193 198.163 123.563 200.534C125.933 202.904 129.145 204.24 132.497 204.25ZM132.497 180.483C134.715 180.48 136.883 181.134 138.728 182.363C140.573 183.592 142.013 185.341 142.863 187.389C143.714 189.436 143.939 191.69 143.509 193.865C143.078 196.04 142.012 198.039 140.446 199.608C138.88 201.177 136.883 202.246 134.709 202.68C132.534 203.114 130.28 202.893 128.232 202.046C126.183 201.198 124.432 199.762 123.199 197.918C121.967 196.075 121.31 193.907 121.31 191.69C121.3 190.213 121.582 188.748 122.139 187.38C122.697 186.012 123.519 184.768 124.558 183.718C125.598 182.669 126.834 181.835 128.196 181.264C129.559 180.693 131.02 180.397 132.497 180.392V180.483Z" fill="#161119"/>
<path d="M145.244 231.971C142.822 231.737 141.006 230.016 141.189 228.127C141.371 226.237 143.482 224.895 145.904 225.129C148.326 225.362 150.141 227.084 149.959 228.973C149.777 230.862 147.666 232.205 145.244 231.971Z" fill="#161119"/>
<path d="M137.597 229.202C139.577 229.395 141.569 229.45 143.557 229.367V227.539C120.596 228.453 102.955 209.915 102.772 209.714L101.401 211.012C101.493 211.14 116.757 227.191 137.597 229.202Z" fill="#161119"/>
<path d="M177.322 176.697C175.494 163.899 168.749 149.676 157.707 142.4C147.817 135.891 134.582 135.471 123.687 139.657C114.291 143.314 108.075 151.285 105.004 160.645C102.408 168.616 102.061 176.806 101.439 185.07C101.238 187.812 96.9606 187.83 97.1617 185.07C97.7467 177.19 98.0575 169.347 100.215 161.687C103.03 151.705 108.788 142.546 118.111 137.537C123.839 134.565 130.159 132.912 136.608 132.697C143.057 132.482 149.472 133.71 155.386 136.293C164.691 140.571 171.509 148.89 175.842 157.994C178.582 163.572 180.485 169.522 181.49 175.655C181.874 178.36 177.834 179.512 177.359 176.788L177.322 176.697Z" fill="#00B7D8"/>
<path d="M101.623 217.045C93.5255 217.045 86.9615 208.884 86.9615 198.818C86.9615 188.751 93.5255 180.591 101.623 180.591C109.72 180.591 116.284 188.751 116.284 198.818C116.284 208.884 109.72 217.045 101.623 217.045Z" fill="#00B7D8"/>
<path d="M99.3192 216.131C91.626 216.131 85.3894 208.38 85.3894 198.818C85.3894 189.256 91.626 181.505 99.3192 181.505C107.013 181.505 113.249 189.256 113.249 198.818C113.249 208.38 107.013 216.131 99.3192 216.131Z" fill="#04A2BC"/>
<path opacity="0.07" d="M11.7011 56.0078H83.5441C88.3499 56.0078 92.2457 59.9039 92.2457 64.71V107.106C92.2457 111.912 88.3499 115.808 83.5441 115.808H11.7011C6.89534 115.808 2.99948 111.912 2.99948 107.106V64.71C2.99948 59.9039 6.89534 56.0078 11.7011 56.0078Z" fill="black"/>
<path d="M13.7987 54H85.6418C90.4475 54 94.3434 57.8961 94.3434 62.7022V105.098C94.3434 109.904 90.4475 113.8 85.6418 113.8H13.7987C8.99297 113.8 5.09711 109.904 5.09711 105.098V62.7022C5.09711 57.8961 8.99297 54 13.7987 54Z" fill="#00BEDD"/>
<path d="M43.6732 64.9871C41.9373 65.7956 40.4528 67.0591 39.3772 68.6435C38.3403 70.148 37.7915 71.9352 37.8051 73.7625C37.7944 75.0168 38.0368 76.2604 38.518 77.4189C38.9685 78.4295 39.5865 79.3566 40.3461 80.1612C41.2013 81.0809 42.1174 81.9421 43.0882 82.7389C44.3444 83.7775 45.4789 84.9551 46.4701 86.2491C47.2445 87.3689 47.6357 88.7094 47.5853 90.07V90.8013C47.5853 90.9909 47.6226 91.1787 47.6952 91.354C47.7677 91.5292 47.8741 91.6884 48.0082 91.8225C48.1423 91.9566 48.3015 92.063 48.4768 92.1356C48.652 92.2082 48.8397 92.2456 49.0294 92.2456H50.9854C51.1727 92.2469 51.3583 92.2103 51.5311 92.138C51.7039 92.0658 51.8603 91.9593 51.9909 91.8251C52.1283 91.693 52.2366 91.5338 52.309 91.3575C52.3814 91.1812 52.4162 90.9918 52.4113 90.8013V89.6861C52.4289 88.4293 52.1797 87.183 51.6801 86.0297C51.2153 85.027 50.5987 84.1021 49.852 83.2874C49.1574 82.5561 48.2251 81.642 47.0551 80.5816C45.8318 79.5855 44.7222 78.4574 43.7463 77.2178C43.006 76.2134 42.6201 74.9916 42.6495 73.7442C42.6306 72.946 42.8153 72.1562 43.1864 71.4493C43.5574 70.7424 44.1024 70.1417 44.77 69.7039C46.2753 68.693 48.0578 68.1755 49.8703 68.223C51.574 68.1633 53.2501 68.6643 54.6416 69.649C55.9695 70.7572 56.8789 72.2859 57.2192 73.9818C57.2786 74.308 57.4499 74.6032 57.7034 74.8167C57.957 75.0302 58.277 75.1488 58.6085 75.1519H60.8753C61.0314 75.1521 61.186 75.1215 61.3303 75.0619C61.4746 75.0023 61.6057 74.9148 61.7162 74.8045C61.8358 74.7069 61.9275 74.5794 61.9821 74.4349C62.0366 74.2905 62.0521 74.1342 62.027 73.9818C61.9092 72.2534 61.3762 70.579 60.4731 69.1005C59.4615 67.4466 58.0297 66.0903 56.3234 65.1699C54.3122 64.0986 52.0567 63.5693 49.7789 63.6342C47.6686 63.6278 45.5832 64.0898 43.6732 64.9871ZM47.3293 100.948C47.4639 101.082 47.6237 101.188 47.7993 101.26C47.975 101.332 48.1631 101.369 48.353 101.368H51.3693C51.5566 101.37 51.7422 101.333 51.915 101.261C52.0878 101.188 52.2442 101.082 52.3748 100.948C52.5108 100.819 52.6183 100.662 52.6907 100.489C52.7631 100.316 52.7987 100.13 52.7952 99.9423V96.8526C52.7987 96.665 52.7631 96.4787 52.6907 96.3056C52.6183 96.1325 52.5108 95.9764 52.3748 95.8471C52.2442 95.7129 52.0878 95.6064 51.915 95.5342C51.7422 95.4619 51.5566 95.4253 51.3693 95.4266H48.353C47.9731 95.4266 47.6085 95.5762 47.3382 95.8432C47.0679 96.1101 46.9136 96.4727 46.9088 96.8526V99.8874C46.919 100.08 46.9679 100.268 47.0528 100.441C47.1376 100.613 47.2566 100.767 47.4024 100.893L47.3293 100.948Z" fill="white"/>
<path opacity="0.07" d="M176.371 1.94032H247.519C249.928 1.9644 252.229 2.93809 253.924 4.64976C255.618 6.36143 256.568 8.67273 256.568 11.0813V52.7643C256.568 55.1729 255.618 57.4842 253.924 59.1958C252.229 60.9075 249.928 61.8812 247.519 61.9053H197.065L177.943 75.4705V61.759H176.371C173.963 61.7349 171.661 60.7613 169.967 59.0496C168.272 57.3379 167.322 55.0266 167.322 52.618V11.0082C167.341 8.61229 168.3 6.31965 169.992 4.62373C171.685 2.92781 173.975 1.9642 176.371 1.94032Z" fill="black"/>
<path d="M178.512 0H249.66C252.085 0 254.409 0.963067 256.124 2.67734C257.838 4.39161 258.801 6.71666 258.801 9.141V50.824C258.777 53.2324 257.803 55.5341 256.092 57.2286C254.38 58.9232 252.069 59.8737 249.66 59.8736H199.261L180.157 73.4571V59.8004H178.585C176.177 59.8005 173.866 58.85 172.154 57.1555C170.443 55.4609 169.469 53.1593 169.445 50.7508V9.06787C169.464 6.66883 170.425 4.37347 172.122 2.67704C173.818 0.980614 176.113 0.0191167 178.512 0Z" fill="#00BEDD"/>
<path d="M178.803 15.4514H249.348C249.537 15.4514 249.719 15.5265 249.852 15.6602C249.986 15.7939 250.061 15.9753 250.061 16.1644C250.061 16.3535 249.986 16.5348 249.852 16.6685C249.719 16.8022 249.537 16.8773 249.348 16.8773H178.803C178.614 16.8773 178.433 16.8022 178.299 16.6685C178.165 16.5348 178.09 16.3535 178.09 16.1644C178.09 15.9753 178.165 15.7939 178.299 15.6602C178.433 15.5265 178.614 15.4514 178.803 15.4514Z" fill="white"/>
<path d="M178.803 24.7728H249.348C249.537 24.7728 249.719 24.8479 249.852 24.9817C249.986 25.1154 250.061 25.2967 250.061 25.4858C250.061 25.6749 249.986 25.8563 249.852 25.99C249.719 26.1237 249.537 26.1988 249.348 26.1988H178.803C178.614 26.1988 178.433 26.1237 178.299 25.99C178.165 25.8563 178.09 25.6749 178.09 25.4858C178.09 25.2967 178.165 25.1154 178.299 24.9817C178.433 24.8479 178.614 24.7728 178.803 24.7728Z" fill="white"/>
<path d="M199.881 34.0423H249.348C249.537 34.0423 249.719 34.1175 249.852 34.2512C249.986 34.3849 250.061 34.5662 250.061 34.7553C250.061 34.9444 249.986 35.1258 249.852 35.2595C249.719 35.3932 249.537 35.4683 249.348 35.4683H199.881C199.692 35.4683 199.51 35.3932 199.377 35.2595C199.243 35.1258 199.168 34.9444 199.168 34.7553C199.168 34.5662 199.243 34.3849 199.377 34.2512C199.51 34.1175 199.692 34.0423 199.881 34.0423Z" fill="white"/>
<path d="M199.879 43.3312H249.347C249.519 43.3586 249.675 43.4464 249.788 43.5787C249.901 43.7111 249.963 43.8793 249.963 44.0533C249.963 44.2273 249.901 44.3956 249.788 44.5279C249.675 44.6603 249.519 44.748 249.347 44.7755H199.879C199.708 44.748 199.551 44.6603 199.438 44.5279C199.325 44.3956 199.263 44.2273 199.263 44.0533C199.263 43.8793 199.325 43.7111 199.438 43.5787C199.551 43.4464 199.708 43.3586 199.879 43.3312Z" fill="white"/>
<path opacity="0.07" d="M214.47 76.2551H260.684C262.245 76.2551 263.742 76.8753 264.846 77.9793C265.95 79.0832 266.57 80.5806 266.57 82.1418V109.217C266.57 110.779 265.95 112.276 264.846 113.38C263.742 114.484 262.245 115.104 260.684 115.104H227.907L215.494 123.916V115.104H214.47C212.912 115.099 211.42 114.477 210.32 113.374C209.22 112.27 208.602 110.776 208.602 109.217V82.1418C208.602 80.5837 209.22 79.0892 210.32 77.9857C211.42 76.8822 212.912 76.2599 214.47 76.2551Z" fill="black"/>
<path d="M215.858 74.9962H262.071C263.632 74.9962 265.13 75.6165 266.233 76.7205C267.337 77.8244 267.958 79.3218 267.958 80.8831V107.959C267.958 109.52 267.337 111.017 266.233 112.121C265.13 113.225 263.632 113.846 262.071 113.846H229.294L216.881 122.657V113.846H215.858C214.3 113.841 212.807 113.218 211.707 112.115C210.607 111.011 209.989 109.517 209.99 107.959V80.8831C209.989 79.3249 210.607 77.8304 211.707 76.7269C212.807 75.6234 214.3 75.0011 215.858 74.9962Z" fill="#00BEDD"/>
<path d="M216.06 85.1037H261.89C261.997 85.1252 262.094 85.1834 262.164 85.2684C262.234 85.3534 262.272 85.4599 262.272 85.5699C262.272 85.6799 262.234 85.7864 262.164 85.8714C262.094 85.9564 261.997 86.0146 261.89 86.0361H216.06C215.952 86.0146 215.855 85.9564 215.785 85.8714C215.715 85.7864 215.677 85.6799 215.677 85.5699C215.677 85.4599 215.715 85.3534 215.785 85.2684C215.855 85.1834 215.952 85.1252 216.06 85.1037Z" fill="#FFFEFA"/>
<path d="M216.06 91.065H261.89C261.997 91.0865 262.094 91.1447 262.164 91.2297C262.234 91.3147 262.272 91.4212 262.272 91.5312C262.272 91.6411 262.234 91.7477 262.164 91.8327C262.094 91.9177 261.997 91.9759 261.89 91.9974H216.06C215.952 91.9759 215.855 91.9177 215.785 91.8327C215.715 91.7477 215.677 91.6411 215.677 91.5312C215.677 91.4212 215.715 91.3147 215.785 91.2297C215.855 91.1447 215.952 91.0865 216.06 91.065Z" fill="#FFFEFA"/>
<path d="M229.752 97.099H261.89C261.997 97.1205 262.094 97.1787 262.164 97.2637C262.234 97.3487 262.272 97.4553 262.272 97.5652C262.272 97.6752 262.234 97.7817 262.164 97.8667C262.094 97.9517 261.997 98.0099 261.89 98.0314H229.752C229.644 98.0099 229.547 97.9517 229.477 97.8667C229.408 97.7817 229.37 97.6752 229.37 97.5652C229.37 97.4553 229.408 97.3487 229.477 97.2637C229.547 97.1787 229.644 97.1205 229.752 97.099Z" fill="#FFFEFA"/>
<path d="M229.751 103.149H261.888C262.009 103.149 262.126 103.197 262.211 103.283C262.297 103.369 262.345 103.485 262.345 103.606C262.345 103.727 262.297 103.844 262.211 103.929C262.126 104.015 262.009 104.063 261.888 104.063H229.751C229.629 104.063 229.513 104.015 229.428 103.929C229.342 103.844 229.294 103.727 229.294 103.606C229.294 103.485 229.342 103.369 229.428 103.283C229.513 103.197 229.629 103.149 229.751 103.149Z" fill="#FFFEFA"/>
<path opacity="0.07" d="M305.287 143.113H377.13C381.936 143.113 385.832 147.009 385.832 151.815V194.211C385.832 199.017 381.936 202.913 377.13 202.913H305.287C300.481 202.913 296.585 199.017 296.585 194.211V151.815C296.585 147.009 300.481 143.113 305.287 143.113Z" fill="black"/>
<path d="M307.937 140.735H379.78C384.586 140.735 388.482 144.632 388.482 149.438V191.834C388.482 196.64 384.586 200.536 379.78 200.536H307.937C303.131 200.536 299.235 196.64 299.235 191.834V149.438C299.235 144.632 303.131 140.735 307.937 140.735Z" fill="#00BEDD"/>
<path d="M352.013 154.868C351.373 161.632 344.153 160.554 344.153 160.554C339.729 161.212 340.387 170.865 340.387 170.865C340.387 170.865 340.862 180.536 345.322 180.664C345.322 180.664 352.379 178.836 353.786 185.417C355.194 191.999 351.209 195.472 344.646 195.015C344.646 195.015 335.506 194.138 334.244 171.011C333.495 147.592 341.813 146.385 341.813 146.385C348.266 145.179 352.635 148.086 352.013 154.868Z" fill="white"/>
<path d="M120.085 257.557C100.89 258.362 80.1049 264.157 66.047 277.265C64.7865 278.294 63.8004 279.62 63.1769 281.123C62.7263 283.454 63.0073 285.868 63.9813 288.033C72.2961 314.384 72.7409 342.588 65.261 369.187C63.3049 376.098 60.8005 382.917 60.1241 390.065C59.4477 397.213 60.8736 404.965 65.8094 410.175C67.9992 412.367 70.554 414.162 73.3593 415.477C88.7333 423.247 106.776 422.954 123.979 422.242C134.6 421.803 145.312 421.254 155.513 418.347C165.713 415.441 175.493 410.011 181.672 401.382C187.851 392.753 190.081 381.272 190.813 370.302C192.641 345.494 189.295 320.612 188.838 295.73C188.692 288.417 188.838 281.104 191.672 274.377C178.565 265.236 162.898 259.751 147.268 256.698C145.663 258.799 143.598 260.503 141.23 261.679C138.862 262.855 136.256 263.472 133.612 263.481C131.04 263.627 128.469 263.168 126.107 262.139C123.744 261.11 121.656 259.541 120.012 257.557" fill="#FFCE45"/>
<path d="M68.187 387.013C68.8085 379.847 63.7265 371.583 65.5363 364.673C70.1247 347.104 78.808 330.028 76.9434 311.893C80.9408 313.641 84.2815 316.61 86.4859 320.375C88.0113 323.677 88.7438 327.289 88.6248 330.924C88.6248 338.237 87.3451 345.367 87.0709 352.607C86.7967 359.846 87.6925 367.488 91.7691 373.412C96.4672 380.267 104.566 383.723 112.518 385.843C117.856 387.212 123.262 388.298 128.714 389.097C134.936 390.325 141.3 390.664 147.616 390.103C154.013 389.492 159.954 386.528 164.288 381.785C170.833 373.997 170.632 362.698 171.802 352.534C173.102 341.331 176.461 330.466 181.71 320.485C183.064 317.399 185.215 314.73 187.944 312.752C188.913 330.906 199.424 349.992 198.181 368.11C197.431 379.079 186.39 389.408 180.467 398.293C174.599 406.581 166.049 412.587 156.263 415.296C146.83 418.202 136.941 418.751 127.142 419.19C111.256 419.921 94.5843 420.195 80.3802 412.425C77.7627 411.085 75.4043 409.29 73.4152 407.124C68.8816 401.895 67.6385 394.162 68.187 387.013Z" fill="#FFA748"/>
<path d="M183.756 269.443C177.815 295.805 182.934 326.921 189.515 353.12C191.471 360.908 191.05 369.445 188.272 373.413C185.493 377.38 180.393 379.957 175.841 382.06C166.003 386.595 157.18 393.068 149.9 401.091C146.502 404.321 143.899 408.295 142.296 412.701C141.517 414.909 141.29 417.275 141.634 419.591C141.978 421.908 142.883 424.105 144.27 425.992C145.804 427.624 147.674 428.904 149.75 429.744C151.827 430.583 154.061 430.962 156.299 430.855C160.759 430.608 165.175 429.847 169.461 428.588C176.744 426.883 184.154 425.776 191.617 425.279C198.07 424.84 204.633 424.84 210.848 423.012C219.744 420.264 227.273 414.257 231.926 406.192C236.503 398.122 238.422 388.815 237.41 379.592C236.796 374.692 235.787 369.85 234.394 365.113C229.092 345.368 221.78 328.091 215.089 308.786C211.942 300.38 207.701 292.426 202.476 285.129C197.65 278.291 192.074 270.85 183.829 269.443" fill="#FFCE45"/>
<path d="M181.581 319.644C177.924 303.355 179.277 285.347 183.116 269.277C183.299 268.437 184.597 268.784 184.396 269.625C181.681 281.085 180.604 292.872 181.197 304.635C181.346 309.549 181.909 314.441 182.878 319.261C183.061 320.101 181.782 320.449 181.581 319.608V319.644Z" fill="white"/>
<path d="M133.009 412.881C133.009 412.881 150.65 408.493 157.267 412.277C163.885 416.062 173.884 421.583 173.592 428.603V431.492C173.592 431.492 126.282 432.863 122.406 428.603" fill="#E8A17E"/>
<path d="M80.2874 267.467C71.6224 268.472 62.153 278.545 56.1752 287.284C50.1974 296.023 46.1025 305.859 42.0807 315.658L19.431 370.614C16.8952 376.206 14.9411 382.044 13.5995 388.036C12.6614 393.063 12.5811 398.212 13.3618 403.265C13.8382 407.432 15.3808 411.405 17.8406 414.801C21.4967 419.445 27.2552 421.803 32.7576 423.942C44.4207 428.366 56.358 432.516 68.7888 433.376C73.6906 433.641 78.603 433.641 83.5048 433.376C97.0507 432.882 110.67 432.388 123.996 429.902C124.976 429.808 125.917 429.475 126.739 428.933C127.484 428.242 128.054 427.383 128.402 426.429L132.424 417.635C133.312 416.061 133.784 414.287 133.795 412.479C133.322 410.089 131.989 407.955 130.047 406.483C125.341 402.125 119.957 398.562 114.107 395.934C102.078 390.45 88.3674 389.188 77.07 382.405C75.6775 381.628 74.4032 380.655 73.2859 379.517C69.1179 375.111 69.3738 367.981 71.6955 362.387C74.0171 356.792 75.6624 351.417 77.9657 345.805C83.066 333.318 85.6071 325.165 85.8813 314.47C86.2835 299.259 85.1501 281.928 80.2874 267.521" fill="#FFCE45"/>
<path d="M126.138 403.395C124.602 405.598 123.303 407.958 122.262 410.434C119.481 416.752 117.829 423.509 117.381 430.397C117.381 431.257 115.992 431.257 116.047 430.397C116.497 423.468 118.13 416.666 120.873 410.287C121.948 407.603 123.328 405.051 124.986 402.682C125.498 402.006 126.65 402.682 126.138 403.358V403.395Z" fill="#FFA748"/>
<path d="M85.8087 320.377C86.9238 302.936 85.5894 284.124 79.6482 267.633C79.3557 266.829 80.6353 266.482 80.9278 267.286C86.9055 283.868 88.24 302.844 87.1432 320.304C87.1432 321.145 85.7539 321.163 85.8087 320.304V320.377Z" fill="white"/>
<path d="M4.51065 435.162H507.52C510.003 435.162 512.015 437.746 512.015 440.933V441.391C512.015 444.578 510.003 447.162 507.52 447.162H4.51065C2.02792 447.162 0.0152588 444.578 0.0152588 441.391V440.933C0.0152588 437.746 2.02792 435.162 4.51065 435.162Z" fill="#345D95"/>
<path d="M51.8977 430.289H265.251C265.756 430.289 266.166 430.698 266.166 431.203V434.731C266.166 435.236 265.756 435.645 265.251 435.645H51.8977C51.3929 435.645 50.9837 435.236 50.9837 434.731V431.203C50.9837 430.698 51.3929 430.289 51.8977 430.289Z" fill="#26476D"/>
<path d="M171.729 435.644H355.321L364.188 308.164H184.287L171.729 435.644Z" fill="#26476D"/>
<path d="M177.983 435.644H361.575L370.442 308.164H190.523L177.983 435.644Z" fill="#C5E1F9"/>
<path opacity="0.27" d="M274.211 382.864C268.154 382.864 263.243 377.953 263.243 371.895C263.243 365.836 268.154 360.925 274.211 360.925C280.269 360.925 285.18 365.836 285.18 371.895C285.18 377.953 280.269 382.864 274.211 382.864Z" fill="#26476D"/>
<path opacity="0.07" d="M368.906 330.194L361.594 435.535H177.983L180.432 410.635C277.064 398.13 343.679 350.999 368.906 330.194Z" fill="#26476D"/>
</svg>
