<svg width="70" height="72" viewBox="0 0 70 72" fill="none" xmlns="http://www.w3.org/2000/svg">
<path d="M62.0605 9.31115C60.7487 6.48717 58.6791 4.10955 56.0967 2.4597C53.5143 0.809854 50.5272 -0.0431398 47.489 0.00167963C44.4508 0.0464991 41.4887 0.987255 38.9532 2.7126C36.4177 4.43794 34.415 6.87564 33.1822 9.73716H19.0612C16.5307 9.73716 14.1038 10.7729 12.3145 12.6166C10.5251 14.4603 9.51989 16.9608 9.51989 19.5681V32.6761C9.51989 33.5452 9.85497 34.3787 10.4514 34.9933C11.0479 35.6078 11.8568 35.9531 12.7003 35.9531C13.5438 35.9531 14.3528 35.6078 14.9492 34.9933C15.5457 34.3787 15.8807 33.5452 15.8807 32.6761V19.5681C15.8807 18.699 16.2158 17.8655 16.8123 17.251C17.4087 16.6364 18.2177 16.2911 19.0612 16.2911H27.9027C26.3196 18.0857 25.436 20.42 25.422 22.8451C25.422 25.4525 26.4272 27.953 28.2166 29.7967C30.0059 31.6403 32.4328 32.6761 34.9633 32.6761H58.2758C61.0451 32.6967 63.7308 31.6992 65.8506 29.8629C67.9704 28.0265 69.3853 25.4717 69.8412 22.6571C70.2971 19.8425 69.7641 16.9527 68.3381 14.5066C66.912 12.0605 64.6862 10.2184 62.0605 9.31115ZM58.2758 26.1221H34.9633C34.1198 26.1221 33.3108 25.7769 32.7144 25.1623C32.1179 24.5478 31.7828 23.7142 31.7828 22.8451C31.7828 21.976 32.1179 21.1425 32.7144 20.5279C33.3108 19.9134 34.1198 19.5681 34.9633 19.5681C35.8068 19.5681 36.6157 19.2229 37.2122 18.6083C37.8086 17.9938 38.1437 17.1603 38.1437 16.2911C38.118 13.9525 38.9024 11.6811 40.3558 9.88475C41.8093 8.08839 43.8367 6.88477 46.074 6.49005C48.3113 6.09532 50.6118 6.53534 52.5626 7.73109C54.5133 8.92684 55.9864 10.8 56.7174 13.0142C56.8992 13.5773 57.226 14.079 57.6629 14.4656C58.0998 14.8523 58.6304 15.1095 59.1981 15.2097C60.4418 15.4221 61.5698 16.0886 62.3758 17.0875C63.1817 18.0864 63.6117 19.3508 63.5871 20.6495C63.5871 21.3682 63.4497 22.0798 63.1828 22.7438C62.9159 23.4078 62.5246 24.0111 62.0314 24.5192C61.5382 25.0274 60.9527 25.4305 60.3083 25.7055C59.6639 25.9806 58.9733 26.1221 58.2758 26.1221ZM57.2262 39.2301C56.3827 39.2301 55.5738 39.5753 54.9773 40.1899C54.3809 40.8044 54.0458 41.638 54.0458 42.5071V52.3381C54.0458 53.2072 53.7107 54.0407 53.1143 54.6552C52.5178 55.2698 51.7089 55.615 50.8654 55.615H43.6776C43.063 53.9933 42.113 52.5289 40.8937 51.3235C39.6745 50.1182 38.2151 49.2008 36.6171 48.635C35.1759 45.4836 32.7973 42.8875 29.8267 41.2237C26.8561 39.5599 23.4481 38.915 20.0976 39.3826C16.7471 39.8502 13.6284 41.406 11.1944 43.8241C8.7604 46.2422 7.13777 49.3967 6.5621 52.8296C4.40827 53.559 2.57691 55.0548 1.39614 57.049C0.215383 59.0432 -0.237603 61.4055 0.11835 63.7125C0.474304 66.0196 1.61593 68.1207 3.33869 69.6393C5.06144 71.1579 7.25272 71.9948 9.51989 72H32.8324C35.5555 72 38.1924 71.0163 40.2844 69.2201C42.3763 67.4239 43.7909 64.9288 44.2819 62.169H50.8654C53.3959 62.169 55.8227 61.1333 57.6121 59.2896C59.4014 57.4459 60.4067 54.9454 60.4067 52.3381V42.5071C60.4067 41.638 60.0716 40.8044 59.4751 40.1899C58.8787 39.5753 58.0697 39.2301 57.2262 39.2301ZM32.8324 65.446H9.51989C8.67639 65.446 7.86744 65.1008 7.271 64.4862C6.67455 63.8717 6.33947 63.0381 6.33947 62.169C6.33947 61.2999 6.67455 60.4664 7.271 59.8518C7.86744 59.2373 8.67639 58.892 9.51989 58.892C10.3634 58.892 11.1723 58.5468 11.7688 57.9322C12.3652 57.3177 12.7003 56.4842 12.7003 55.615C12.6747 53.2764 13.459 51.005 14.9125 49.2086C16.3659 47.4123 18.3934 46.2087 20.6306 45.8139C22.8679 45.4192 25.1685 45.8592 27.1192 47.055C29.0699 48.2507 30.543 50.1239 31.274 52.3381C31.4558 52.9012 31.7826 53.4029 32.2195 53.7895C32.6564 54.1762 33.187 54.4334 33.7547 54.5336C34.9985 54.7459 36.1264 55.4125 36.9324 56.4114C37.7383 57.4103 38.1683 58.6747 38.1437 59.9734C38.1437 60.6921 38.0063 61.4037 37.7394 62.0677C37.4725 62.7317 37.0812 63.335 36.588 63.8431C36.0948 64.3513 35.5093 64.7544 34.8649 65.0294C34.2205 65.3045 33.5299 65.446 32.8324 65.446Z" fill="#252A34"/>
</svg>
