<svg width="67" height="71" viewBox="0 0 67 71" fill="none" xmlns="http://www.w3.org/2000/svg">
<path d="M60.3771 27.5842V27.0089C60.3974 21.2527 58.5875 15.6417 55.2133 11.0005C51.8392 6.35918 47.0786 2.93239 41.6313 1.22366H41.4301C38.6167 0.358171 35.6853 -0.0529734 32.7447 0.00545659C25.7421 0.393225 19.1501 3.46295 14.3141 8.58812C9.47805 13.7133 6.76258 20.5075 6.72186 27.5842C4.75677 28.2818 3.05473 29.5777 1.85069 31.293C0.646653 33.0084 0 35.0586 0 37.1606C0 39.2627 0.646653 41.3129 1.85069 43.0283C3.05473 44.7436 4.75677 46.0395 6.72186 46.7371C7.41256 53.4195 10.5412 59.604 15.4994 64.0882C20.4577 68.5724 26.8913 71.0359 33.5495 70.9996H34.3208C40.7593 70.6851 46.8791 68.0788 51.594 63.6433C56.3089 59.2077 59.3137 53.2299 60.0753 46.7709C62.0635 46.1128 63.7989 44.8455 65.0398 43.1455C66.2808 41.4454 66.9655 39.3972 66.9987 37.286C67.0319 35.1749 66.412 33.1058 65.2251 31.3668C64.0383 29.6279 62.3436 28.3057 60.3771 27.5842ZM34.1531 64.2318C29.2986 64.3735 24.5572 62.7387 20.8037 59.629C17.0502 56.5194 14.538 52.1447 13.7306 47.3123H53.2007C52.3823 51.887 50.0551 56.0481 46.5972 59.1196C43.1393 62.1912 38.7538 63.9928 34.1531 64.2318ZM57.0237 40.5445H10.0753C9.18592 40.5445 8.33296 40.188 7.70407 39.5534C7.07517 38.9188 6.72186 38.0581 6.72186 37.1606C6.72186 36.2632 7.07517 35.4025 7.70407 34.7679C8.33296 34.1333 9.18592 33.7767 10.0753 33.7767H16.7822C17.6716 33.7767 18.5246 33.4202 19.1535 32.7856C19.7824 32.151 20.1357 31.2903 20.1357 30.3928C20.1357 29.4954 19.7824 28.6347 19.1535 28.0001C18.5246 27.3655 17.6716 27.0089 16.7822 27.0089H13.4288C13.5789 23.4985 14.5732 20.0777 16.3259 17.0416C18.0786 14.0055 20.537 11.4453 23.4891 9.58188V20.2412C23.4891 21.1386 23.8424 21.9993 24.4713 22.6339C25.1002 23.2685 25.9532 23.6251 26.8426 23.6251C27.732 23.6251 28.5849 23.2685 29.2138 22.6339C29.8427 21.9993 30.196 21.1386 30.196 20.2412V7.01012C31.1063 6.85667 32.0243 6.75499 32.9459 6.70557H33.5495C34.6733 6.72154 35.7943 6.82335 36.9029 7.01012V20.2412C36.9029 21.1386 37.2562 21.9993 37.8851 22.6339C38.514 23.2685 39.367 23.6251 40.2564 23.6251C41.1458 23.6251 41.9987 23.2685 42.6276 22.6339C43.2565 21.9993 43.6098 21.1386 43.6098 20.2412V9.48037C45.0324 10.3115 46.3595 11.2989 47.5669 12.4244C49.5004 14.319 51.0369 16.5863 52.0854 19.0916C53.1338 21.597 53.6727 24.2894 53.6702 27.0089H50.3167C49.4274 27.0089 48.5744 27.3655 47.9455 28.0001C47.3166 28.6347 46.9633 29.4954 46.9633 30.3928C46.9633 31.2903 47.3166 32.151 47.9455 32.7856C48.5744 33.4202 49.4274 33.7767 50.3167 33.7767H57.0237C57.913 33.7767 58.766 34.1333 59.3949 34.7679C60.0238 35.4025 60.3771 36.2632 60.3771 37.1606C60.3771 38.0581 60.0238 38.9188 59.3949 39.5534C58.766 40.188 57.913 40.5445 57.0237 40.5445Z" fill="#252A34"/>
</svg>
