<svg width="55" height="71" viewBox="0 0 55 71" fill="none" xmlns="http://www.w3.org/2000/svg">
<path d="M55 24.637C54.9642 24.3109 54.8951 23.9896 54.7938 23.6785V23.359C54.6285 22.994 54.408 22.6585 54.1406 22.365L33.5156 1.065C33.2315 0.788867 32.9066 0.561187 32.5531 0.3905H32.2438C31.8946 0.183681 31.5089 0.0509219 31.1094 0H10.3125C7.57746 0 4.95443 1.12205 3.02046 3.11931C1.08649 5.11658 0 7.82544 0 10.65V60.35C0 63.1746 1.08649 65.8834 3.02046 67.8807C4.95443 69.878 7.57746 71 10.3125 71H44.6875C47.4225 71 50.0456 69.878 51.9795 67.8807C53.9135 65.8834 55 63.1746 55 60.35V24.85V24.637ZM34.375 12.1055L43.2781 21.3H37.8125C36.9008 21.3 36.0265 20.926 35.3818 20.2602C34.7372 19.5945 34.375 18.6915 34.375 17.75V12.1055ZM48.125 60.35C48.125 61.2915 47.7628 62.1945 47.1182 62.8602C46.4735 63.526 45.5992 63.9 44.6875 63.9H10.3125C9.40082 63.9 8.52648 63.526 7.88182 62.8602C7.23716 62.1945 6.875 61.2915 6.875 60.35V10.65C6.875 9.70848 7.23716 8.80553 7.88182 8.13977C8.52648 7.47402 9.40082 7.1 10.3125 7.1H27.5V17.75C27.5 20.5746 28.5865 23.2834 30.5205 25.2807C32.4544 27.278 35.0775 28.4 37.8125 28.4H48.125V60.35Z" fill="#252A34"/>
</svg>
