<svg width="164" height="46" viewBox="0 0 164 46" fill="none" xmlns="http://www.w3.org/2000/svg">
<path d="M20.5041 33.05C20.9374 33.05 21.2874 33.2 21.5541 33.5C21.8541 33.8 22.0041 34.15 22.0041 34.55C22.0041 34.9833 21.8541 35.3333 21.5541 35.6C21.2874 35.8667 20.9374 36 20.5041 36H2.1541C1.72077 36 1.3541 35.8667 1.0541 35.6C0.787435 35.3 0.654102 34.9333 0.654102 34.5V2.5C0.654102 2.06667 0.787435 1.71666 1.0541 1.45C1.3541 1.15 1.72077 0.999998 2.1541 0.999998H20.5041C20.9374 0.999998 21.2874 1.15 21.5541 1.45C21.8541 1.71666 22.0041 2.06667 22.0041 2.5C22.0041 2.93333 21.8541 3.28333 21.5541 3.55C21.2874 3.81666 20.9374 3.95 20.5041 3.95H3.8041V16.5H18.2541C18.6874 16.5 19.0374 16.65 19.3041 16.95C19.6041 17.2167 19.7541 17.5667 19.7541 18C19.7541 18.4333 19.6041 18.7833 19.3041 19.05C19.0374 19.3167 18.6874 19.45 18.2541 19.45H3.8041V33.05H20.5041ZM49.0721 10.45C49.5054 10.45 49.8554 10.6 50.1221 10.9C50.4221 11.2 50.5721 11.5667 50.5721 12V34.5C50.5721 34.9333 50.4221 35.3 50.1221 35.6C49.8554 35.8667 49.5054 36 49.0721 36C48.6387 36 48.2721 35.8667 47.9721 35.6C47.7054 35.3 47.5721 34.9333 47.5721 34.5V31.15C46.7387 32.65 45.4887 33.9167 43.8221 34.95C42.1554 35.9833 40.3387 36.5 38.3721 36.5C36.1387 36.5 34.1221 35.9167 32.3221 34.75C30.5554 33.5833 29.1554 31.9833 28.1221 29.95C27.1221 27.9167 26.6221 25.6333 26.6221 23.1C26.6221 20.5667 27.1387 18.3 28.1721 16.3C29.2054 14.2667 30.6054 12.6833 32.3721 11.55C34.1721 10.4167 36.1554 9.85 38.3221 9.85C40.3221 9.85 42.1554 10.3333 43.8221 11.3C45.4887 12.2667 46.7387 13.5333 47.5721 15.1V12C47.5721 11.5667 47.7054 11.2 47.9721 10.9C48.2721 10.6 48.6387 10.45 49.0721 10.45ZM38.6721 33.7C40.4054 33.7 41.9554 33.25 43.3221 32.35C44.7221 31.4167 45.8054 30.15 46.5721 28.55C47.3721 26.9167 47.7721 25.1 47.7721 23.1C47.7721 21.1667 47.3721 19.4 46.5721 17.8C45.8054 16.2 44.7221 14.95 43.3221 14.05C41.9554 13.1167 40.4054 12.65 38.6721 12.65C36.9387 12.65 35.3721 13.1 33.9721 14C32.6054 14.9 31.5221 16.15 30.7221 17.75C29.9554 19.3167 29.5721 21.1 29.5721 23.1C29.5721 25.1 29.9554 26.9167 30.7221 28.55C31.4887 30.15 32.5554 31.4167 33.9221 32.35C35.3221 33.25 36.9054 33.7 38.6721 33.7ZM56.9502 31.95C56.6835 31.5167 56.5502 31.15 56.5502 30.85C56.5502 30.4167 56.7669 30.0833 57.2002 29.85C57.4002 29.65 57.6669 29.55 58.0002 29.55C58.4002 29.55 58.7669 29.7167 59.1002 30.05C61.0669 32.65 63.6835 33.95 66.9502 33.95C68.5502 33.95 69.9335 33.5833 71.1002 32.85C72.3002 32.0833 72.9002 30.9833 72.9002 29.55C72.9002 28.15 72.3502 27.1 71.2502 26.4C70.1502 25.7 68.6169 25.1 66.6502 24.6C63.8835 23.9 61.7169 23 60.1502 21.9C58.5835 20.7667 57.8002 19.1167 57.8002 16.95C57.8002 15.5833 58.1835 14.3667 58.9502 13.3C59.7169 12.2 60.7502 11.35 62.0502 10.75C63.3835 10.15 64.8835 9.85 66.5502 9.85C67.9835 9.85 69.4169 10.1333 70.8502 10.7C72.3169 11.2333 73.5669 12.1 74.6002 13.3C74.9002 13.5333 75.0502 13.8667 75.0502 14.3C75.0502 14.7 74.8835 15.05 74.5502 15.35C74.3169 15.55 74.0169 15.65 73.6502 15.65C73.3169 15.65 73.0169 15.5167 72.7502 15.25C71.9502 14.35 71.0002 13.6667 69.9002 13.2C68.8002 12.7333 67.6169 12.5 66.3502 12.5C64.7835 12.5 63.4335 12.8667 62.3002 13.6C61.2002 14.3333 60.6502 15.4333 60.6502 16.9C60.7169 18.2333 61.3169 19.25 62.4502 19.95C63.6169 20.65 65.3169 21.2833 67.5502 21.85C69.2835 22.2833 70.7169 22.7667 71.8502 23.3C72.9835 23.8333 73.9002 24.5833 74.6002 25.55C75.3335 26.5167 75.7002 27.8 75.7002 29.4C75.7002 31.5667 74.8335 33.3 73.1002 34.6C71.3669 35.8667 69.2169 36.5 66.6502 36.5C62.5835 36.5 59.3502 34.9833 56.9502 31.95ZM100.888 10C101.321 10 101.671 10.15 101.938 10.45C102.238 10.7167 102.388 11.0667 102.388 11.5V33.55C102.388 36.1833 101.871 38.4333 100.838 40.3C99.8044 42.1667 98.371 43.5833 96.5377 44.55C94.7044 45.5167 92.6377 46 90.3377 46C88.9377 46 87.621 45.85 86.3877 45.55C85.1877 45.25 84.1877 44.85 83.3877 44.35C82.6877 43.9167 82.3377 43.4333 82.3377 42.9C82.3377 42.8333 82.371 42.6667 82.4377 42.4C82.5377 42.0667 82.7044 41.8167 82.9377 41.65C83.171 41.4833 83.421 41.4 83.6877 41.4C83.8877 41.4 84.0877 41.45 84.2877 41.55C86.421 42.7167 88.4544 43.3 90.3877 43.3C93.1544 43.3 95.3377 42.4333 96.9377 40.7C98.571 38.9667 99.3877 36.6 99.3877 33.6V31.85C98.5544 33.25 97.3544 34.3833 95.7877 35.25C94.221 36.0833 92.521 36.5 90.6877 36.5C87.7877 36.5 85.5877 35.6333 84.0877 33.9C82.5877 32.1667 81.8377 29.8167 81.8377 26.85V11.5C81.8377 11.0667 81.971 10.7167 82.2377 10.45C82.5377 10.15 82.9044 10 83.3377 10C83.771 10 84.121 10.15 84.3877 10.45C84.6877 10.7167 84.8377 11.0667 84.8377 11.5V26.4C84.8377 28.8 85.3544 30.6167 86.3877 31.85C87.4544 33.0833 89.1044 33.7 91.3377 33.7C92.7044 33.7 94.0044 33.3667 95.2377 32.7C96.5044 32 97.5044 31.1 98.2377 30C99.0044 28.8667 99.3877 27.6667 99.3877 26.4V11.5C99.3877 11.0667 99.521 10.7167 99.7877 10.45C100.088 10.15 100.454 10 100.888 10ZM130.856 33.05C131.289 33.05 131.639 33.2 131.906 33.5C132.206 33.8 132.356 34.15 132.356 34.55C132.356 34.9833 132.206 35.3333 131.906 35.6C131.639 35.8667 131.289 36 130.856 36H112.506C112.072 36 111.706 35.8667 111.406 35.6C111.139 35.3 111.006 34.9333 111.006 34.5V2.5C111.006 2.06667 111.139 1.71666 111.406 1.45C111.706 1.15 112.072 0.999998 112.506 0.999998H130.856C131.289 0.999998 131.639 1.15 131.906 1.45C132.206 1.71666 132.356 2.06667 132.356 2.5C132.356 2.93333 132.206 3.28333 131.906 3.55C131.639 3.81666 131.289 3.95 130.856 3.95H114.156V16.5H128.606C129.039 16.5 129.389 16.65 129.656 16.95C129.956 17.2167 130.106 17.5667 130.106 18C130.106 18.4333 129.956 18.7833 129.656 19.05C129.389 19.3167 129.039 19.45 128.606 19.45H114.156V33.05H130.856ZM162.974 33.75C163.207 34.0833 163.324 34.3833 163.324 34.65C163.324 35.1167 163.157 35.5 162.824 35.8C162.524 36.0667 162.174 36.2 161.774 36.2C161.274 36.2 160.874 35.9833 160.574 35.55L149.774 20.9L139.024 35.5C138.724 35.9667 138.324 36.2 137.824 36.2C137.424 36.2 137.09 36.0667 136.824 35.8C136.59 35.5 136.474 35.1833 136.474 34.85C136.474 34.5167 136.59 34.1833 136.824 33.85L148.074 18.55L136.774 3.25C136.54 2.98333 136.424 2.68333 136.424 2.35C136.424 1.95 136.574 1.6 136.874 1.3C137.207 1 137.574 0.85 137.974 0.85C138.474 0.85 138.89 1.05 139.224 1.45L149.974 16.1L160.674 1.5C161.04 1.06667 161.44 0.85 161.874 0.85C162.274 0.85 162.607 0.983332 162.874 1.25C163.174 1.48333 163.324 1.78333 163.324 2.15C163.324 2.41666 163.207 2.73333 162.974 3.1L151.724 18.45L162.974 33.75Z" fill="white"/>
</svg>
