<svg width="131" height="37" viewBox="0 0 131 37" fill="none" xmlns="http://www.w3.org/2000/svg">
<path d="M16.5033 26.64C16.8499 26.64 17.1299 26.76 17.3433 27C17.5833 27.24 17.7033 27.52 17.7033 27.84C17.7033 28.1867 17.5833 28.4667 17.3433 28.68C17.1299 28.8933 16.8499 29 16.5033 29H1.82328C1.47661 29 1.18328 28.8933 0.943281 28.68C0.729948 28.44 0.623281 28.1467 0.623281 27.8V2.2C0.623281 1.85333 0.729948 1.57333 0.943281 1.36C1.18328 1.12 1.47661 0.999998 1.82328 0.999998H16.5033C16.8499 0.999998 17.1299 1.12 17.3433 1.36C17.5833 1.57333 17.7033 1.85333 17.7033 2.2C17.7033 2.54667 17.5833 2.82667 17.3433 3.04C17.1299 3.25333 16.8499 3.36 16.5033 3.36H3.14328V13.4H14.7033C15.0499 13.4 15.3299 13.52 15.5433 13.76C15.7833 13.9733 15.9033 14.2533 15.9033 14.6C15.9033 14.9467 15.7833 15.2267 15.5433 15.44C15.3299 15.6533 15.0499 15.76 14.7033 15.76H3.14328V26.64H16.5033ZM39.3577 8.56C39.7043 8.56 39.9843 8.68 40.1977 8.92C40.4377 9.16 40.5577 9.45333 40.5577 9.8V27.8C40.5577 28.1467 40.4377 28.44 40.1977 28.68C39.9843 28.8933 39.7043 29 39.3577 29C39.011 29 38.7177 28.8933 38.4777 28.68C38.2643 28.44 38.1577 28.1467 38.1577 27.8V25.12C37.491 26.32 36.491 27.3333 35.1577 28.16C33.8243 28.9867 32.371 29.4 30.7977 29.4C29.011 29.4 27.3977 28.9333 25.9577 28C24.5443 27.0667 23.4243 25.7867 22.5977 24.16C21.7977 22.5333 21.3977 20.7067 21.3977 18.68C21.3977 16.6533 21.811 14.84 22.6377 13.24C23.4643 11.6133 24.5843 10.3467 25.9977 9.44C27.4377 8.53333 29.0243 8.08 30.7577 8.08C32.3577 8.08 33.8243 8.46667 35.1577 9.24C36.491 10.0133 37.491 11.0267 38.1577 12.28V9.8C38.1577 9.45333 38.2643 9.16 38.4777 8.92C38.7177 8.68 39.011 8.56 39.3577 8.56ZM31.0377 27.16C32.4243 27.16 33.6643 26.8 34.7577 26.08C35.8777 25.3333 36.7443 24.32 37.3577 23.04C37.9977 21.7333 38.3177 20.28 38.3177 18.68C38.3177 17.1333 37.9977 15.72 37.3577 14.44C36.7443 13.16 35.8777 12.16 34.7577 11.44C33.6643 10.6933 32.4243 10.32 31.0377 10.32C29.651 10.32 28.3977 10.68 27.2777 11.4C26.1843 12.12 25.3177 13.12 24.6777 14.4C24.0643 15.6533 23.7577 17.08 23.7577 18.68C23.7577 20.28 24.0643 21.7333 24.6777 23.04C25.291 24.32 26.1443 25.3333 27.2377 26.08C28.3577 26.8 29.6243 27.16 31.0377 27.16ZM45.6602 25.76C45.4468 25.4133 45.3402 25.12 45.3402 24.88C45.3402 24.5333 45.5135 24.2667 45.8602 24.08C46.0202 23.92 46.2335 23.84 46.5002 23.84C46.8202 23.84 47.1135 23.9733 47.3802 24.24C48.9535 26.32 51.0468 27.36 53.6602 27.36C54.9402 27.36 56.0468 27.0667 56.9802 26.48C57.9402 25.8667 58.4202 24.9867 58.4202 23.84C58.4202 22.72 57.9802 21.88 57.1002 21.32C56.2202 20.76 54.9935 20.28 53.4202 19.88C51.2068 19.32 49.4735 18.6 48.2202 17.72C46.9668 16.8133 46.3402 15.4933 46.3402 13.76C46.3402 12.6667 46.6468 11.6933 47.2602 10.84C47.8735 9.96 48.7002 9.28 49.7402 8.8C50.8068 8.32 52.0068 8.08 53.3402 8.08C54.4868 8.08 55.6335 8.30667 56.7802 8.76C57.9535 9.18667 58.9535 9.88 59.7802 10.84C60.0202 11.0267 60.1402 11.2933 60.1402 11.64C60.1402 11.96 60.0068 12.24 59.7402 12.48C59.5535 12.64 59.3135 12.72 59.0202 12.72C58.7535 12.72 58.5135 12.6133 58.3002 12.4C57.6602 11.68 56.9002 11.1333 56.0202 10.76C55.1402 10.3867 54.1935 10.2 53.1802 10.2C51.9268 10.2 50.8468 10.4933 49.9402 11.08C49.0602 11.6667 48.6202 12.5467 48.6202 13.72C48.6735 14.7867 49.1535 15.6 50.0602 16.16C50.9935 16.72 52.3535 17.2267 54.1402 17.68C55.5268 18.0267 56.6735 18.4133 57.5802 18.84C58.4868 19.2667 59.2202 19.8667 59.7802 20.64C60.3668 21.4133 60.6602 22.44 60.6602 23.72C60.6602 25.4533 59.9668 26.84 58.5802 27.88C57.1935 28.8933 55.4735 29.4 53.4202 29.4C50.1668 29.4 47.5802 28.1867 45.6602 25.76ZM80.8102 8.2C81.1568 8.2 81.4368 8.32 81.6502 8.56C81.8902 8.77333 82.0102 9.05333 82.0102 9.4V27.04C82.0102 29.1467 81.5968 30.9467 80.7702 32.44C79.9435 33.9333 78.7968 35.0667 77.3302 35.84C75.8635 36.6133 74.2102 37 72.3702 37C71.2502 37 70.1968 36.88 69.2102 36.64C68.2502 36.4 67.4502 36.08 66.8102 35.68C66.2502 35.3333 65.9702 34.9467 65.9702 34.52C65.9702 34.4667 65.9968 34.3333 66.0502 34.12C66.1302 33.8533 66.2635 33.6533 66.4502 33.52C66.6368 33.3867 66.8368 33.32 67.0502 33.32C67.2102 33.32 67.3702 33.36 67.5302 33.44C69.2368 34.3733 70.8635 34.84 72.4102 34.84C74.6235 34.84 76.3702 34.1467 77.6502 32.76C78.9568 31.3733 79.6102 29.48 79.6102 27.08V25.68C78.9435 26.8 77.9835 27.7067 76.7302 28.4C75.4768 29.0667 74.1168 29.4 72.6502 29.4C70.3302 29.4 68.5702 28.7067 67.3702 27.32C66.1702 25.9333 65.5702 24.0533 65.5702 21.68V9.4C65.5702 9.05333 65.6768 8.77333 65.8902 8.56C66.1302 8.32 66.4235 8.2 66.7702 8.2C67.1168 8.2 67.3968 8.32 67.6102 8.56C67.8502 8.77333 67.9702 9.05333 67.9702 9.4V21.32C67.9702 23.24 68.3835 24.6933 69.2102 25.68C70.0635 26.6667 71.3835 27.16 73.1702 27.16C74.2635 27.16 75.3035 26.8933 76.2902 26.36C77.3035 25.8 78.1035 25.08 78.6902 24.2C79.3035 23.2933 79.6102 22.3333 79.6102 21.32V9.4C79.6102 9.05333 79.7168 8.77333 79.9302 8.56C80.1702 8.32 80.4635 8.2 80.8102 8.2ZM104.785 26.64C105.131 26.64 105.411 26.76 105.625 27C105.865 27.24 105.985 27.52 105.985 27.84C105.985 28.1867 105.865 28.4667 105.625 28.68C105.411 28.8933 105.131 29 104.785 29H90.1045C89.7579 29 89.4645 28.8933 89.2245 28.68C89.0112 28.44 88.9045 28.1467 88.9045 27.8V2.2C88.9045 1.85333 89.0112 1.57333 89.2245 1.36C89.4645 1.12 89.7579 0.999998 90.1045 0.999998H104.785C105.131 0.999998 105.411 1.12 105.625 1.36C105.865 1.57333 105.985 1.85333 105.985 2.2C105.985 2.54667 105.865 2.82667 105.625 3.04C105.411 3.25333 105.131 3.36 104.785 3.36H91.4245V13.4H102.985C103.331 13.4 103.611 13.52 103.825 13.76C104.065 13.9733 104.185 14.2533 104.185 14.6C104.185 14.9467 104.065 15.2267 103.825 15.44C103.611 15.6533 103.331 15.76 102.985 15.76H91.4245V26.64H104.785ZM130.479 27.2C130.666 27.4667 130.759 27.7067 130.759 27.92C130.759 28.2933 130.626 28.6 130.359 28.84C130.119 29.0533 129.839 29.16 129.519 29.16C129.119 29.16 128.799 28.9867 128.559 28.64L119.919 16.92L111.319 28.6C111.079 28.9733 110.759 29.16 110.359 29.16C110.039 29.16 109.772 29.0533 109.559 28.84C109.372 28.6 109.279 28.3467 109.279 28.08C109.279 27.8133 109.372 27.5467 109.559 27.28L118.559 15.04L109.519 2.8C109.332 2.58666 109.239 2.34666 109.239 2.08C109.239 1.76 109.359 1.48 109.599 1.24C109.866 1 110.159 0.88 110.479 0.88C110.879 0.88 111.212 1.04 111.479 1.36L120.079 13.08L128.639 1.4C128.932 1.05333 129.252 0.88 129.599 0.88C129.919 0.88 130.186 0.986666 130.399 1.2C130.639 1.38667 130.759 1.62667 130.759 1.92C130.759 2.13333 130.666 2.38667 130.479 2.68L121.479 14.96L130.479 27.2Z" fill="#252A34"/>
</svg>
