<svg width="70" height="71" viewBox="0 0 70 71" fill="none" xmlns="http://www.w3.org/2000/svg">
<path d="M15.0747 55.7825L14.9488 56.0929L15.188 56.3274C20.5017 61.5364 27.6035 64.4547 34.9992 64.4661L35.0008 64.4661C42.3965 64.4547 49.4983 61.5364 54.812 56.3274L55.0512 56.0929L54.9253 55.7825C53.3033 51.7809 50.5436 48.3572 46.9958 45.9472C43.448 43.5372 39.2725 42.25 35 42.25C30.7275 42.25 26.552 43.5372 23.0042 45.9472C19.4564 48.3572 16.6967 51.7809 15.0747 55.7825ZM58.7979 50.0013L59.2301 50.7504L59.6637 50.0021C62.2048 45.6156 63.5471 40.623 63.5533 35.5373V35.5367C63.5533 27.8663 60.5466 20.5087 55.1926 15.0829C49.8383 9.65689 42.575 6.60735 35 6.60735C27.425 6.60735 20.1617 9.65689 14.8074 15.0829C9.45341 20.5087 6.44672 27.8663 6.44671 35.5367L6.44672 35.5373C6.45285 40.6229 7.79522 45.6156 10.3363 50.0021L10.7699 50.7504L11.2021 50.0013C14.2803 44.6656 19.0171 40.5166 24.6694 38.2027L25.3154 37.9383L24.8572 37.4118C23.1347 35.4325 22.0118 32.9908 21.6241 30.3795C21.2364 27.7682 21.6004 25.0992 22.6723 22.6929C23.7442 20.2866 25.4779 18.2459 27.6647 16.8149C29.8513 15.3839 32.3983 14.6232 35 14.6232C37.6017 14.6232 40.1487 15.3839 42.3353 16.8149C44.5221 18.2459 46.2558 20.2866 47.3277 22.6929C48.3996 25.0992 48.7636 27.7682 48.3759 30.3795C47.9882 32.9908 46.8653 35.4325 45.1428 37.4118L44.6846 37.9383L45.3306 38.2027C50.9829 40.5166 55.7197 44.6656 58.7979 50.0013ZM16.1344 6.2224C21.7429 2.50102 28.2975 0.513095 35 0.500001C41.7025 0.513094 48.2571 2.50102 53.8656 6.2224C59.4745 9.94401 63.8953 15.2389 66.5887 21.4629C69.2821 27.687 70.1315 34.5709 69.0331 41.2759C67.9347 47.9807 64.9362 54.2164 60.4037 59.2236C57.1665 62.7794 53.2381 65.6169 48.8661 67.5575C44.4939 69.4982 39.7727 70.5 35 70.5C30.2273 70.5 25.5061 69.4982 21.1339 67.5575C16.7619 65.6169 12.8335 62.7794 9.59631 59.2236C5.06384 54.2164 2.06533 47.9807 0.966935 41.2759C-0.131501 34.5709 0.717882 27.687 3.4113 21.4629C6.10469 15.2389 10.5255 9.94401 16.1344 6.2224ZM28.7512 24.2055C27.9265 25.4564 27.4867 26.9263 27.4867 28.4294C27.4867 30.4448 28.2767 32.3791 29.6849 33.8062C31.0934 35.2336 33.0052 36.0367 35 36.0367C36.4875 36.0367 37.941 35.5897 39.1767 34.7529C40.4124 33.9162 41.3744 32.7277 41.9423 31.3384C42.5101 29.9492 42.6586 28.4209 42.3692 26.9465C42.0798 25.4721 41.3653 24.1169 40.3151 23.0525C39.2648 21.9881 37.9258 21.2625 36.467 20.9685C35.0083 20.6744 33.4963 20.8254 32.1226 21.402C30.749 21.9786 29.576 22.9546 28.7512 24.2055Z" fill="#252A34" stroke="#252A34"/>
</svg>
