<svg width="121" height="133" viewBox="0 0 121 133" fill="none" xmlns="http://www.w3.org/2000/svg">
<g filter="url(#filter0_d)">
<path d="M113.887 7.20312C117.16 10.7418 117.812 17.4089 116.032 22.3212C112.648 31.6483 96.0625 48.6905 91.6628 52.7665C89.2901 54.9645 83.5726 59.8742 78.3836 66L51 47.2601C57.8648 39.4323 63.0938 33.0381 63.5883 31.9712C64.9302 29.0756 75.0902 25.537 80.8425 22.3212C85.6135 19.6533 96.6699 8.79644 100.303 5.17043C100.699 4.77995 101.171 4.47483 101.689 4.27404C102.208 4.07324 102.763 3.98106 103.319 4.00323C106.159 4.11174 111.537 4.65961 113.887 7.20312Z" fill="#EAA584"/>
</g>
<path d="M118.757 21.4817C120.816 15.789 120.061 8.06278 116.275 3.96196C113.556 1.0144 107.334 0.379494 104.048 0.25374C103.405 0.228057 102.763 0.334879 102.163 0.567571C101.563 0.800264 101.017 1.15385 100.56 1.60636C96.3561 5.8084 83.5647 18.39 78.045 21.4817C71.39 25.2083 59.6357 29.3091 58.0832 32.6646C56.5307 36.0201 14.6343 84.8465 4.05507 88.9474C-6.24491 92.9347 2.7879 134.829 56.1656 132.118C58.5557 131.995 60.461 130.155 60.5285 127.879C60.7832 120.389 61.5871 103.811 63.9465 92.2998C67.0761 77.016 85.4731 61.4869 90.5633 56.7635C95.6534 52.04 114.842 32.2904 118.757 21.4817Z" fill="#EAA584"/>
<path d="M77.668 21.6898C77.668 21.6898 87.6979 21.9689 92.2665 29.0511C92.2665 29.0511 112.891 8.74018 113.541 5.88464C114.192 3.02909 106.822 -0.76501 101.671 0.912737C96.1631 2.71317 80.2759 20.328 77.668 21.6898Z" fill="url(#paint0_linear)"/>
<defs>
<filter id="filter0_d" x="47" y="4" width="74" height="70" filterUnits="userSpaceOnUse" color-interpolation-filters="sRGB">
<feFlood flood-opacity="0" result="BackgroundImageFix"/>
<feColorMatrix in="SourceAlpha" type="matrix" values="0 0 0 0 0 0 0 0 0 0 0 0 0 0 0 0 0 0 127 0"/>
<feOffset dy="4"/>
<feGaussianBlur stdDeviation="2"/>
<feColorMatrix type="matrix" values="0 0 0 0 0 0 0 0 0 0 0 0 0 0 0 0 0 0 0.25 0"/>
<feBlend mode="normal" in2="BackgroundImageFix" result="effect1_dropShadow"/>
<feBlend mode="normal" in="SourceGraphic" in2="effect1_dropShadow" result="shape"/>
</filter>
<linearGradient id="paint0_linear" x1="79.6807" y1="38.3354" x2="103.957" y2="1.04637" gradientUnits="userSpaceOnUse">
<stop stop-color="#DE9C7D"/>
<stop offset="1" stop-color="#FFE0D1"/>
</linearGradient>
</defs>
</svg>
