<svg width="269" height="263" viewBox="0 0 269 263" fill="none" xmlns="http://www.w3.org/2000/svg">
<path d="M257.171 77.5291C252.876 80.1423 208.239 100.64 205.107 103.625C201.974 106.609 179.276 127.855 178.49 131.582C177.705 135.309 172.225 155.813 172.225 157.668C172.225 158.972 170.108 177.335 166.681 193.978C166.585 194.465 166.475 194.956 166.374 195.435C164.981 201.983 163.385 208.169 161.652 212.841C156.801 225.849 135.922 249.402 122.98 262.087H0V248.205C13.4142 235.001 24.9691 222.785 28.562 216.58C38.7484 199.057 48.5299 156.19 46.1796 143.142C45.0843 137.063 44.3387 126.392 43.6422 115.801C42.8506 103.652 42.1449 91.632 41.0987 86.8564C39.1381 77.9094 44.6118 68.2172 48.1372 65.6131C51.6625 63.0091 101.769 5.59147 103.337 4.10082C104.905 2.61017 117.819 0 117.819 0C117.819 0 197.752 27.9972 241.201 45.5967C256.868 51.9304 267.796 56.9238 268.508 58.7641C271.264 65.7327 261.47 74.9251 257.171 77.5291Z" fill="url(#paint0_linear)"/>
<path d="M100.984 231.103C129.019 236.01 150.785 217.607 166.377 195.431C169.979 178.427 172.225 159.012 172.225 157.671C172.225 155.806 177.705 135.305 178.49 131.579C179.276 127.852 201.975 106.603 205.107 103.621C208.24 100.64 252.864 80.1391 257.169 77.5289C261.473 74.9188 271.261 65.7295 268.521 58.767C267.791 56.9267 256.862 51.9303 241.214 45.5781C215.152 45.6517 186.008 49.774 181.19 52.1296C172.127 56.5801 151.699 84.7245 146.915 100.343C142.132 115.961 149.523 161.027 144.105 190.101C138.687 219.174 100.984 231.103 100.984 231.103Z" fill="url(#paint1_linear)"/>
<path d="M242.293 58.7645C238.756 60.3656 186.971 79.3913 183.577 81.1304C180.184 82.8695 156.172 108.714 156.172 108.714C156.172 108.714 178.877 82.0015 180.831 78.6552C182.786 75.3089 241.701 58.1541 243.462 56.2893C245.224 54.4244 246.684 56.777 242.293 58.7645Z" fill="url(#paint2_linear)"/>
<path d="M86.7148 91.7766C86.7148 91.7766 107.885 59.5099 113.899 38.8862C119.913 18.2624 133.465 43.3581 129.035 57.0255C124.604 70.6928 92.4125 91.2399 86.7148 91.7766Z" fill="url(#paint3_linear)"/>
<defs>
<linearGradient id="paint0_linear" x1="113.76" y1="108.468" x2="39.2305" y2="-80.5551" gradientUnits="userSpaceOnUse">
<stop stop-color="#EEA886"/>
<stop offset="0.79" stop-color="#CF9174"/>
</linearGradient>
<linearGradient id="paint1_linear" x1="166.656" y1="217.346" x2="210.222" y2="49.5399" gradientUnits="userSpaceOnUse">
<stop stop-color="#EEA886"/>
<stop offset="0.79" stop-color="#CF9174"/>
<stop offset="0.8" stop-color="#CC8E71"/>
<stop offset="0.93" stop-color="#B4765A"/>
<stop offset="1" stop-color="#AB6D52"/>
</linearGradient>
<linearGradient id="paint2_linear" x1="184.795" y1="112.606" x2="216.814" y2="51.9802" gradientUnits="userSpaceOnUse">
<stop stop-color="#CF9174"/>
<stop offset="1" stop-color="#91624C"/>
</linearGradient>
<linearGradient id="paint3_linear" x1="109.53" y1="70.4935" x2="138.116" y2="2.01796" gradientUnits="userSpaceOnUse">
<stop stop-color="#CF9174"/>
<stop offset="1" stop-color="#966A56"/>
</linearGradient>
</defs>
</svg>
