<svg width="51" height="48" viewBox="0 0 51 48" fill="none" xmlns="http://www.w3.org/2000/svg">
<path d="M16.3527 40.1827L11.9244 48H29.2657C33.1225 47.9954 36.91 46.9598 40.2467 44.9975C43.5835 43.0351 46.3515 40.2153 48.2721 36.8222L51 31.988H30.2754C27.4493 31.9909 24.674 32.7501 22.2296 34.1889C19.7851 35.6277 17.758 37.6951 16.3527 40.1827ZM48.4316 27.4594L39.2029 11.1778C37.2823 7.78466 34.5142 4.96488 31.1775 3.00253C27.8408 1.04018 24.0533 0.00456486 20.1965 0L14.7231 0L25.6522 19.2827C27.0611 21.7657 29.0895 23.8285 31.5335 25.2639C33.9775 26.6992 36.7509 27.4565 39.5749 27.4594H48.4316ZM12.1547 4.54661L2.92601 20.8282C1.00873 24.2226 0 28.0668 0 31.979C0 35.8913 1.00873 39.7355 2.92601 43.1299L5.65387 48L16.583 28.7533C17.9926 26.2655 18.7344 23.4461 18.7344 20.5766C18.7344 17.707 17.9926 14.8877 16.583 12.3999L12.1547 4.54661Z" fill="#252A34"/>
</svg>
