<svg width="88" height="82" viewBox="0 0 88 82" fill="none" xmlns="http://www.w3.org/2000/svg">
<path d="M28.2165 68.6455L20.5754 82H50.4978C57.1526 81.9922 63.6879 80.223 69.4454 76.8707C75.2028 73.5183 79.9791 68.7012 83.2931 62.9045L88 54.6462H52.2399C47.3636 54.6512 42.5748 55.9481 38.3569 58.406C34.139 60.8639 30.6412 64.3959 28.2165 68.6455ZM83.5682 46.9098L67.6443 19.0955C64.3303 13.2988 59.554 8.48166 53.7965 5.12932C48.0391 1.77697 41.5037 0.00779831 34.8489 0L25.4046 0L44.2627 32.9412C46.6936 37.183 50.1937 40.7071 54.4108 43.1592C58.6279 45.6112 63.4134 46.9048 68.2861 46.9098H83.5682ZM20.9727 7.76713L5.04881 35.5814C1.74055 41.3802 0 47.9474 0 54.6309C0 61.3143 1.74055 67.8815 5.04881 73.6803L9.75569 82L28.6138 49.1202C31.046 44.8702 32.326 40.0538 32.326 35.1516C32.326 30.2495 31.046 25.4331 28.6138 21.1831L20.9727 7.76713Z" fill="white"/>
</svg>
