<svg width="202" height="399" viewBox="0 0 202 399" fill="none" xmlns="http://www.w3.org/2000/svg">
<path opacity="0.1" d="M100.309 398.003C47.8061 398.003 5.24367 394.168 5.24367 389.437C5.24367 384.707 47.8061 380.872 100.309 380.872C152.813 380.872 195.375 384.707 195.375 389.437C195.375 394.168 152.813 398.003 100.309 398.003Z" fill="black"/>
<path d="M54.5588 244.091C54.5588 244.091 56.2517 238.561 47.3591 235.88C38.4664 233.198 33.4062 237.053 31.7969 243.756" stroke="#443936" stroke-width="2.92" stroke-miterlimit="10"/>
<path d="M79.9961 247.078L11.1618 237.414L-0.000556946 286.48C-0.000556946 286.48 24.91 299.244 74.2754 297.001L79.9961 247.078Z" fill="#6D605C"/>
<path d="M64.4583 272.281C64.4583 272.281 25.7157 269.311 5.32586 263.054L5.92118 260.41C5.92118 260.41 23.8646 267.114 64.9141 270.056L64.4583 272.281Z" fill="#5B504D"/>
<path d="M39.7656 265.165L38.9191 270.314L21.571 267.102L22.2966 262.707L39.7656 265.165Z" fill="#ADADAD"/>
<path d="M37.2958 237.493C37.2916 237.44 37.2916 237.387 37.2958 237.335C35.6958 230.138 39.8073 228.238 39.8073 228.238L45.128 181.863L58.0391 191.537L56.2345 190.894L50.858 227.335C50.858 227.335 57.4344 230.948 53.7788 237.744L50.3278 235.603C49.9298 235.957 49.6764 236.445 49.6163 236.974C49.5562 237.504 49.6936 238.037 50.0022 238.471C50.0022 238.471 51.2207 238.135 51.8626 239.886C51.8626 239.886 50.2254 242.53 47.4535 240.389C46.8837 240.919 46.1342 241.214 45.3559 241.214C44.5775 241.214 43.8281 240.919 43.2583 240.389C42.2113 240.799 41.0483 240.798 40.0016 240.387C38.9549 239.977 38.1016 239.186 37.612 238.173C37.4993 237.99 37.4117 237.792 37.3516 237.586L37.2958 237.493Z" fill="#FFBFA1"/>
<path d="M69.8756 245.652L79.9961 247.077L74.2754 296.999C69.0384 297.241 64.0898 297.307 59.3923 297.241L69.8756 245.652Z" fill="#5B504D"/>
<path d="M173.014 156.34L187.339 115.635C187.339 115.635 192.845 116.333 196.641 115.02C196.641 115.02 200.51 112.283 198.287 110.942C198.287 110.942 201.543 109.955 200.092 106.985C200.092 106.985 203.394 104.109 200.901 101.986C200.901 101.986 203.552 99.3789 199.041 97.7682C194.529 96.1575 187.878 97.1723 187.878 97.1723C187.878 97.1723 191.106 89.7985 188.585 86.3722C186.529 83.5791 183.088 97.2282 183.088 97.2282L159.833 159.291L173.014 156.34Z" fill="#FFBFA1"/>
<path d="M55.5962 194.935C51.8754 192.899 48.0988 190.938 44.2664 189.051L45.085 181.863L57.9961 191.537L56.1915 190.894L55.5962 194.935Z" fill="#D69F8A"/>
<path d="M168.722 135.57C171.581 138.295 174.517 140.961 177.531 143.568L173.011 156.342L159.82 159.293L168.722 135.57Z" fill="#D69F8A"/>
<path d="M128.113 353.738L125.015 374.296L116.839 374.435L119.137 352.081L128.113 353.738Z" fill="#506C70"/>
<path d="M79.1844 362.106L75.6869 382.608H67.5105L70.2453 360.3L79.1844 362.106Z" fill="#506C70"/>
<path d="M117.779 365.302L119.137 352.081L128.113 353.738L126.392 365.162C123.526 365.379 120.65 365.426 117.779 365.302Z" fill="#405759"/>
<path d="M69.1375 369.316L70.2444 360.312L79.1836 362.119L77.7046 370.777C74.9047 370.256 71.9467 369.949 69.1375 369.316Z" fill="#405759"/>
<path d="M65.6544 364.727L83.0305 196.45L83.9606 196.525C90.9092 182.14 117.699 195.231 128.163 201.059L132.061 200.5C132.6 203.684 145.084 279.471 130.201 361.868C130.201 361.868 121.652 364.661 114.387 359.429C120.359 323.379 119.968 262.973 115.792 233.738C109.774 234.725 107.215 233.906 100.379 233.441C100.379 233.441 85.7838 351.441 82.7886 366.403C73.589 370.145 65.6544 364.727 65.6544 364.727Z" fill="#16333C"/>
<path d="M111.838 212.723L112.191 229.789L107.224 230.077L107.299 234.099L106.322 234.006L105.28 213.607L111.838 212.723Z" fill="#213D44"/>
<path d="M108.27 88.2963L108.735 118.555L88.5033 111.079L87.8242 79.9263L108.27 88.2963Z" fill="#D69F8A"/>
<path d="M70.7578 48.5196C74.8786 47.4116 77.6412 50.2513 79.3156 53.0817C79.9295 42.924 80.5527 33.744 80.5527 33.744C80.5527 33.744 84.2735 22.8694 102.533 24.508L119.063 25.9791C119.063 25.9791 126.328 75.9853 122.784 81.646C119.853 86.3012 111.733 92.8185 102.933 92.1109C94.1336 91.4033 78.1342 86.5805 78.1342 77.7077C78.1342 75.706 78.2552 72.3915 78.4412 68.3973C66.7859 70.2594 63.1674 50.5493 70.7578 48.5196Z" fill="#FFBFA1"/>
<path d="M71.6215 51.7633C75.9469 50.4877 77.8538 56.9678 78.1328 57.9733C75.1934 59.3978 74.2911 63.1778 75.9376 65.3565C69.082 65.9616 67.0449 53.1133 71.6215 51.7633Z" fill="#D69F8A"/>
<path d="M78.1315 52.3411L79.3128 58.309H82.7824V37.8261C82.7824 37.8261 90.1775 33.7668 89.5822 26.3743C94.2568 28.4101 99.1512 29.8972 104.168 30.8061C109.749 31.6626 131.143 34.5302 130.753 14.7363C130.753 14.7363 127.171 21.3839 122.465 21.9426C122.465 21.9426 133.943 15.8442 125.757 4.57865C125.757 4.57865 126.771 10.4908 122.465 9.93213C118.158 9.37351 104.335 -3.38175 91.9449 0.863793C79.5547 5.10934 79.3128 12.688 79.3128 12.688C79.3128 12.688 66.7645 12.5018 65.9646 19.1494C65.1646 25.7971 73.6479 48.4121 73.6479 48.4121C73.6479 48.4121 78.1315 49.2593 78.1315 52.3411Z" fill="#664032"/>
<path d="M101.478 41.3806C101.478 41.3806 91.7761 39.323 89.1529 43.6244C89.1529 43.6244 86.3624 39.3975 90.3622 37.7123C93.7376 36.4005 97.4499 36.2336 100.929 37.2374C102.873 37.8985 103.841 40.8871 101.478 41.3806Z" fill="#664032"/>
<path d="M110.254 41.4035C110.254 41.4035 118.691 38.7686 121.361 42.8931C121.361 42.8931 123.016 38.3776 119.119 37.4186C115.221 36.4597 111.296 36.7669 109.566 37.4652C107.836 38.1635 108.226 41.3942 110.254 41.4035Z" fill="#664032"/>
<path d="M93.1701 52.7877C91.8703 52.7877 90.8167 51.0286 90.8167 48.8587C90.8167 46.6888 91.8703 44.9297 93.1701 44.9297C94.4698 44.9297 95.5234 46.6888 95.5234 48.8587C95.5234 51.0286 94.4698 52.7877 93.1701 52.7877Z" fill="#222228"/>
<path d="M112.17 52.7877C110.87 52.7877 109.817 51.0286 109.817 48.8587C109.817 46.6888 110.87 44.9297 112.17 44.9297C113.47 44.9297 114.523 46.6888 114.523 48.8587C114.523 51.0286 113.47 52.7877 112.17 52.7877Z" fill="#222228"/>
<path d="M105.993 44.9297L113.621 65.124L103.352 67.2188L105.993 44.9297Z" fill="#D69F8A"/>
<path d="M111.906 72.0439L90.7905 69.2507C90.7905 69.2507 93.0136 77.0901 101.385 78.4494C109.757 79.8087 111.906 72.0439 111.906 72.0439Z" fill="white"/>
<path d="M137.17 114.654C137.17 114.654 134.919 175.647 132.519 203.233C132.519 203.233 122.37 207.758 101.441 207.674C86.6602 207.609 82.279 204.546 82.279 204.546L54.5685 109.235C54.5685 109.235 68.047 105.846 90.5391 105.027L101.385 114.514C101.385 114.514 103.925 106.75 109.469 105.009C117.971 105.288 127.263 105.94 137.207 107.271L137.17 114.654Z" fill="white"/>
<path d="M56.8474 190.053L70.2422 112.171L54.5684 109.238L43.527 184.113L56.8474 190.053Z" fill="white"/>
<path d="M137.172 107.266L161.087 147.17L163.989 141.919C167.784 145.895 171.431 149.972 175.328 153.874C171.217 165.251 166.826 174.775 163.887 173.77C156.892 171.368 133.711 136.268 133.711 136.268L137.172 107.266Z" fill="white"/>
<path d="M125.464 206.57C127.775 206.086 130.055 205.464 132.291 204.708C133.538 204.298 133.966 205.341 134.152 206.57C134.375 208.171 134.561 208.86 133.435 209.205C131.173 210.048 128.858 210.745 126.506 211.29L125.464 206.57Z" fill="#6D605C"/>
<path d="M94.8738 208.396C100.067 208.724 105.275 208.765 110.473 208.517C114.326 208.359 118.164 207.942 121.961 207.27C121.932 208.917 122.103 210.561 122.473 212.167C118.582 212.897 114.643 213.342 110.687 213.498C108.827 213.573 107.031 213.61 105.301 213.61C101.376 213.61 97.7574 213.47 94.3529 213.154C94.6985 211.591 94.8732 209.996 94.8738 208.396Z" fill="#6D605C"/>
<path d="M80.9279 208.232C81.1419 207.022 81.2721 205.951 82.5279 206.37C85.5407 207.244 88.6258 207.845 91.7461 208.167C91.6624 209.74 91.4484 211.295 91.2345 212.822C87.9505 212.42 84.7115 211.709 81.5605 210.699C80.6861 210.411 80.7047 209.48 80.9279 208.232Z" fill="#6D605C"/>
<path d="M113.706 207.676V213.606L102.665 214.332V207.936L113.706 207.676ZM104.534 213.206L111.836 212.722V208.802L104.534 208.979V213.206Z" fill="#ADADAD"/>
<path d="M128.562 370.043C128.562 370.043 133.213 375.946 140.292 378.022C147.37 380.098 156.868 384.241 156.347 388.394C156.347 388.394 142.71 391.904 125.65 386.318V388.068L114.414 387.593V373.078L123.715 373.711L123.027 372.277L128.562 370.043Z" fill="#6D605C"/>
<path d="M135.391 387.312C148.255 390.589 155.362 387.637 156.264 387.312C156.362 387.663 156.391 388.03 156.348 388.392C156.348 388.392 142.711 391.902 125.651 386.315V388.066L114.415 387.591V384.695C118.415 384.928 125.279 384.695 135.391 387.312Z" fill="#544947"/>
<path d="M132.14 373.551C130.027 374.504 128.241 376.058 127.005 378.02" stroke="#544947" stroke-width="1.04" stroke-miterlimit="10" stroke-linecap="round"/>
<path d="M134.708 374.676C132.596 375.625 130.81 377.176 129.573 379.136" stroke="#544947" stroke-width="1.04" stroke-miterlimit="10" stroke-linecap="round"/>
<path d="M137.277 375.781C135.166 376.737 133.381 378.291 132.143 380.25" stroke="#544947" stroke-width="1.04" stroke-miterlimit="10" stroke-linecap="round"/>
<path d="M65.0359 372.887C65.0359 372.887 60.3849 378.79 53.2969 380.866C46.2088 382.942 36.7301 387.085 37.2417 391.238C37.2417 391.238 50.8783 394.748 67.9381 389.161V390.912L79.1562 390.437V375.922L69.8543 376.555L70.5426 375.121L65.0359 372.887Z" fill="#6D605C"/>
<path d="M58.2083 390.104C45.3344 393.382 38.2277 390.43 37.3347 390.104C37.2298 390.454 37.1981 390.822 37.2417 391.185C37.2417 391.185 50.8784 394.695 67.9381 389.108V390.859L79.1562 390.384V387.488C75.1843 387.777 68.3102 387.544 58.2083 390.104Z" fill="#544947"/>
<path d="M61.4459 376.398C63.5605 377.352 65.3491 378.906 66.5898 380.867" stroke="#544947" stroke-width="1.04" stroke-miterlimit="10" stroke-linecap="round"/>
<path d="M58.881 377.527C60.9937 378.48 62.7794 380.035 64.0156 381.996" stroke="#544947" stroke-width="1.04" stroke-miterlimit="10" stroke-linecap="round"/>
<path d="M56.311 378.634C58.4237 379.586 60.2095 381.141 61.4457 383.103" stroke="#544947" stroke-width="1.04" stroke-miterlimit="10" stroke-linecap="round"/>
<path d="M101.352 114.51L98.2819 105.004L92.3845 108.039L101.352 114.51Z" fill="#868686"/>
<path d="M101.79 105.711L101.352 114.509L106.031 108.113L101.79 105.711Z" fill="#868686"/>
<path d="M115.316 104.618L108.349 115.017L101.791 105.707L111.289 98.7148L115.316 104.618Z" fill="#D9D9D9"/>
<path d="M83.733 104.45L93.4814 115.017L98.2812 104.999L87.2491 98.2773L83.733 104.45Z" fill="#D9D9D9"/>
<path d="M96.6462 108.429C98.9848 108.802 101.368 108.802 103.706 108.429L105.623 111.148L103.688 116.734L117.027 184.057L109.901 193.191L100.46 185.687L98.8321 117.414L95.5672 110.701L96.6462 108.429Z" fill="#282828"/>
<path d="M93.7157 136.543L68.8702 138.405C68.8702 138.405 70.005 160.75 83.7533 159.204C100.58 157.342 93.7157 136.543 93.7157 136.543Z" fill="#D9D9D9"/>
<path d="M75.0463 137.947C75.0463 137.947 74.3486 127.584 72.665 127.435C70.9813 127.286 72.0138 145.814 73.8556 146.121C74.0316 143.429 73.8879 140.726 73.4277 138.068L75.0463 137.947Z" fill="#282828"/>
<path d="M61.5391 180.947L42.5817 175.473L41.0655 185.388L58.7578 191.682L61.5391 180.947Z" fill="#D9D9D9"/>
<path d="M165.943 138.417L161.087 145.996C161.087 145.996 168.212 161.321 173.775 164.793L179.356 151.591L165.943 138.417Z" fill="#D9D9D9"/>
</svg>
