<svg width="789" height="1025" viewBox="0 0 789 1025" fill="none" xmlns="http://www.w3.org/2000/svg">
<path d="M667.379 1024.98C662.886 1025.12 658.52 1023.47 655.242 1020.39C651.964 1017.31 650.042 1013.06 649.9 1008.56C649.757 1004.07 651.405 999.703 654.482 996.423C657.558 993.144 661.811 991.222 666.304 991.079C682.628 989.199 698.597 984.978 713.718 978.544C749.351 964.085 780.188 939.869 802.69 908.676C805.345 905.046 809.332 902.621 813.774 901.932C818.217 901.244 822.751 902.349 826.379 905.004C830.007 907.66 832.431 911.649 833.12 916.093C833.808 920.537 832.703 925.072 830.049 928.702C764.766 1017.97 672.495 1024.72 668.602 1024.94L667.379 1024.98Z" fill="#74818E"/>
<path d="M9.17393 719.096C9.02645 714.601 10.6699 710.231 13.7428 706.949C16.8157 703.666 21.0663 701.739 25.5595 701.592C30.0528 701.444 34.4205 703.088 37.702 706.162C40.9835 709.236 42.9098 713.488 43.0573 717.983C44.9363 734.317 49.1304 750.301 55.5133 765.452C69.974 801.105 94.1947 831.955 125.393 854.457C127.235 855.757 128.8 857.412 129.996 859.324C131.192 861.235 131.996 863.366 132.36 865.592C132.724 867.818 132.641 870.094 132.116 872.287C131.592 874.481 130.635 876.548 129.304 878.368C127.972 880.188 126.291 881.724 124.36 882.887C122.428 884.05 120.284 884.817 118.053 885.142C115.822 885.467 113.549 885.345 111.366 884.782C109.182 884.219 107.133 883.227 105.337 881.863C16.1805 816.333 9.4705 724.065 9.211 720.134C9.211 719.8 9.17393 719.43 9.17393 719.096Z" fill="#74818E"/>
<path d="M514.31 49.855C517.58 52.8063 519.575 56.9129 519.875 61.3081C520.175 65.7033 518.757 70.0432 515.918 73.4117C513.08 76.7803 509.045 78.9139 504.664 79.3622C500.283 79.8106 495.899 78.5385 492.438 75.8147C479.037 66.2935 464.344 58.7382 448.805 53.3781C412.679 40.377 373.625 37.8067 336.108 45.961C333.917 46.4188 331.657 46.4405 329.458 46.0247C327.259 45.609 325.163 44.7641 323.291 43.5381C321.418 42.3122 319.805 40.7292 318.544 38.8797C317.283 37.0301 316.398 34.9502 315.941 32.7587C315.483 30.5671 315.461 28.3069 315.877 26.107C316.293 23.907 317.137 21.8105 318.363 19.9372C319.588 18.0638 321.171 16.4503 323.019 15.1887C324.868 13.927 326.947 13.0421 329.138 12.5843C437.387 -10.0377 510.455 46.7398 513.495 49.1875L514.31 49.855Z" fill="#74818E"/>
<path d="M95.8103 704.929L193.531 653.64L230.306 750.507L133.475 784.662L95.8103 704.929Z" fill="#F8F8F8"/>
<path d="M127.247 700.664C127.247 700.664 157.979 694.36 171.065 700.664C184.152 706.969 195.31 745.908 195.31 745.908L259.777 750.507L201.464 640.92L141.037 669.55L127.247 700.664Z" fill="#CECBCA"/>
<path d="M148.6 337.859C136.821 343.028 126.175 350.468 117.272 359.754C108.368 369.04 101.38 379.99 96.7087 391.979C92.0369 403.967 89.7723 416.759 90.0444 429.624C90.3164 442.488 93.1198 455.173 98.2942 466.953L264.152 844.815C269.323 856.6 276.764 867.25 286.05 876.158C295.336 885.065 306.285 892.055 318.272 896.729C330.259 901.402 343.049 903.667 355.912 903.394C368.774 903.122 381.457 900.317 393.235 895.14L875.906 683.123V18.5179L148.6 337.859Z" fill="#D4D2D1"/>
<path opacity="0.4" d="M831.392 643.743C835.557 626.018 824.571 608.271 806.852 604.104C789.134 599.937 771.394 610.927 767.228 628.652C763.062 646.377 774.049 664.124 791.767 668.291C809.486 672.458 827.226 661.468 831.392 643.743Z" fill="#808080"/>
<path opacity="0.4" d="M701.355 209.328C705.521 191.603 694.534 173.856 676.816 169.689C659.098 165.521 641.357 176.512 637.192 194.237C633.026 211.962 644.013 229.709 661.731 233.876C679.449 238.043 697.19 227.052 701.355 209.328Z" fill="#808080"/>
<path opacity="0.4" d="M233.732 457.059C237.928 439.342 226.973 421.576 209.262 417.378C191.551 413.18 173.791 424.139 169.595 441.857C165.398 459.575 176.354 477.341 194.065 481.539C211.776 485.737 229.535 474.777 233.732 457.059Z" fill="#808080"/>
<g opacity="0.4">
<path opacity="0.4" d="M429.046 659.277L397.61 691.467L265.672 806.024L245.023 801.24L264.152 844.815C265.903 848.822 267.935 852.701 270.232 856.423C285.876 852.195 305.376 845.928 313.828 839.252C329.027 827.237 398.314 729.999 398.314 729.999C398.314 729.999 418.814 717.279 421.558 710.381C424.301 703.483 429.417 673.296 431.53 668.474C432.034 666.864 432.068 665.143 431.628 663.514C431.188 661.884 430.293 660.415 429.046 659.277Z" fill="#808080"/>
<path opacity="0.4" d="M309.601 641.551C316.682 640.846 321.946 630.944 321.946 630.944L333.068 625.975L334.476 615.035L316.126 607.284L213.03 577.615L148.822 563.671L145.523 574.797L164.281 617.445L271.789 638.695C271.789 638.695 302.521 642.329 309.601 641.551Z" fill="#808080"/>
</g>
<path opacity="0.4" d="M626.415 560.482L633.57 627.235L671.568 688.723L729.474 747.577L489.918 852.38L475.756 736.86L462.114 675.372L424.079 610.176L622.708 523.582C623.496 524.901 624.012 526.363 624.228 527.884C624.339 529.887 626.415 560.482 626.415 560.482Z" fill="#808080"/>
<path d="M623.374 564.398L453.108 637.965C449.687 639.443 448.111 643.415 449.589 646.837L498.111 759.221C499.588 762.644 503.559 764.22 506.98 762.741L677.246 689.174C680.667 687.696 682.242 683.724 680.765 680.302L632.243 567.918C630.766 564.496 626.795 562.92 623.374 564.398Z" fill="#E5E5E5"/>
<path d="M607.716 576.76L472.877 635.019C470.096 636.221 468.815 639.451 470.016 642.234L499.164 709.746C500.366 712.529 503.595 713.811 506.377 712.609L641.215 654.349C643.997 653.147 645.278 649.917 644.076 647.134L614.928 579.622C613.726 576.839 610.497 575.558 607.716 576.76Z" fill="#666666"/>
<path d="M587.487 683.899L564.651 693.766C561.776 695.009 560.451 698.348 561.693 701.225L569.851 720.12C571.093 722.997 574.432 724.322 577.307 723.079L600.143 713.212C603.019 711.97 604.344 708.63 603.101 705.754L594.943 686.858C593.701 683.982 590.363 682.657 587.487 683.899Z" fill="#CBCBCB"/>
<path d="M617.184 522.47L522.022 563.671L426.896 604.762C426.161 605.081 425.512 605.572 425.006 606.193C424.5 606.815 424.15 607.549 423.987 608.334C423.823 609.12 423.85 609.932 424.066 610.705C424.283 611.477 424.681 612.186 425.228 612.772L448.361 637.434C448.88 637.976 449.551 638.348 450.286 638.5C451.02 638.652 451.784 638.578 452.475 638.287L538.259 601.202L624.042 564.116C624.747 563.803 625.337 563.277 625.729 562.612C626.121 561.947 626.296 561.177 626.23 560.408L624.117 526.66C624.058 525.869 623.811 525.104 623.396 524.428C622.981 523.752 622.41 523.185 621.732 522.775C621.053 522.364 620.286 522.123 619.495 522.07C618.704 522.017 617.912 522.154 617.184 522.47Z" fill="white"/>
<path d="M626.415 560.482L624.339 527.105C623.607 526.468 622.707 526.056 621.747 525.918C620.787 525.78 619.808 525.922 618.926 526.326L523.615 567.38L428.49 608.507C427.591 608.865 426.815 609.476 426.256 610.266C425.696 611.056 425.378 611.991 425.339 612.958L448.36 637.508C448.879 638.05 449.551 638.422 450.285 638.574C451.02 638.727 451.784 638.652 452.475 638.361L538.259 601.276L624.042 564.191C624.782 563.907 625.411 563.394 625.838 562.727C626.265 562.059 626.467 561.273 626.415 560.482Z" fill="#808080"/>
<path d="M617.777 562.633L617.147 534.93C616.461 534.423 615.649 534.113 614.8 534.035C613.95 533.956 613.095 534.112 612.328 534.485L525.655 571.941L438.944 609.398C438.162 609.691 437.473 610.19 436.951 610.843C436.428 611.496 436.093 612.278 435.979 613.106L455.886 632.65C456.38 633.099 456.995 633.392 457.655 633.491C458.315 633.59 458.989 633.491 459.593 633.206L537.443 599.422L615.59 565.674C616.217 565.444 616.76 565.032 617.15 564.489C617.54 563.947 617.759 563.301 617.777 562.633Z" fill="#A5B4C2"/>
<path d="M533.439 765.823L525.729 728.738C525.729 728.738 533.143 705.189 532.438 700.701C531.734 696.214 523.949 668.066 523.949 668.066C523.949 668.066 518.574 667.51 517.425 670.366C516.275 673.221 517.425 687.017 517.425 687.017C515.45 684.917 513.732 682.589 512.309 680.082C511.419 678.154 509.565 658.832 508.602 649.561C508.481 648.21 507.858 646.954 506.855 646.04C505.853 645.127 504.545 644.623 503.189 644.628C501.868 644.627 500.593 645.109 499.603 645.984C498.613 646.858 497.976 648.064 497.814 649.375L496.664 660.093L487.545 661.947L483.245 671.923L473.606 692.543L479.686 715.795L493.254 733.744L496.108 765.675L533.439 765.823Z" fill="#EAC9B8"/>
<path d="M663.153 710.381L637.536 682.344C637.536 682.344 614.218 674.445 610.919 671.219C607.619 667.992 589.454 645.259 589.454 645.259C589.454 645.259 592.161 640.586 595.126 641.328C598.092 642.07 608.62 651.044 608.62 651.044C608.064 648.224 607.193 645.475 606.025 642.848C604.95 640.994 590.381 628.014 583.375 622.044C582.352 621.165 581.696 619.934 581.538 618.594C581.381 617.255 581.732 615.905 582.522 614.812C583.298 613.741 584.436 612.989 585.725 612.696C587.014 612.402 588.366 612.588 589.528 613.217L599.167 618.446L605.988 612.105L616.628 614.515L638.871 618.78L654.144 637.323L660.743 658.832L684.951 679.86L663.153 710.381Z" fill="#EAC9B8"/>
<path d="M388.485 565.921L231.784 621.741L271.777 734.096L428.479 678.277L388.485 565.921Z" fill="white"/>
<path d="M384.464 567.348L231.779 621.737L268.8 725.743L421.485 671.354L384.464 567.348Z" fill="#C4CCD7"/>
<path d="M380.233 557.595L223.531 613.415L263.524 725.771L420.226 669.951L380.233 557.595Z" fill="white"/>
<path d="M251.362 577.764L270.973 585.923C270.973 585.923 293.216 581.213 300.63 584.031C311.627 589.531 322.263 595.724 332.475 602.574C335.336 605.739 337.373 609.56 338.406 613.7C337.667 615.931 336.392 617.947 334.692 619.57C332.992 621.193 330.919 622.374 328.656 623.008C323.54 623.49 299.926 624.195 299.926 624.195C302.378 626.268 304.717 628.471 306.932 630.796C307.432 631.728 307.728 632.756 307.798 633.811C307.868 634.867 307.712 635.925 307.34 636.915C306.525 637.62 288.359 629.869 283.169 628.2C277.828 625.756 272.949 622.406 268.749 618.298C267.377 616.889 262.558 611.474 262.558 611.474L240.871 602.685L251.362 577.764Z" fill="#FAD1B1"/>
<path d="M374.885 736.823L388.49 720.542C388.49 720.542 410.733 714.46 415.849 708.564C420.965 702.667 419.556 693.321 420.742 690.763C421.928 688.204 420.112 671.701 421.261 670.514C425.339 666.175 431.048 661.947 434.422 658.239C440.353 651.712 436.127 648.745 433.124 649.969C428.342 651.897 396.794 673.333 396.794 673.333C398.026 670.366 399.091 667.333 399.982 664.247C400.242 662.541 398.573 658.869 397.535 658.61C396.497 658.35 383.893 673.444 380.038 677.449C376.428 682.072 373.633 687.277 371.771 692.839C371.177 694.731 369.398 701.74 369.398 701.74L354.199 719.43L374.885 736.823Z" fill="#FAD1B1"/>
<path d="M490.08 334.937L366.021 376.246C358.619 378.71 354.616 386.71 357.08 394.114L381.842 468.536C384.305 475.94 392.303 479.944 399.704 477.48L523.763 436.171C531.165 433.707 535.168 425.707 532.704 418.302L507.942 343.881C505.479 336.477 497.482 332.473 490.08 334.937Z" fill="#647889"/>
<path d="M524.913 439.547L400.871 480.86C396.446 482.288 391.637 481.923 387.478 479.843C383.319 477.762 380.142 474.133 378.628 469.734L353.865 395.341C352.427 390.915 352.788 386.1 354.868 381.936C356.949 377.773 360.583 374.596 364.986 373.09L489.027 331.777C491.23 331.032 493.558 330.729 495.878 330.885C498.199 331.041 500.465 331.653 502.548 332.686C504.632 333.72 506.491 335.154 508.019 336.907C509.548 338.66 510.715 340.698 511.456 342.903L536.22 417.296C537.649 421.747 537.262 426.582 535.145 430.75C533.027 434.917 529.35 438.079 524.913 439.547ZM372.697 377.8C370.054 378.688 367.872 380.589 366.628 383.084C365.384 385.58 365.18 388.468 366.061 391.114L390.825 465.507C391.706 468.149 393.596 470.334 396.083 471.585C398.57 472.836 401.452 473.051 404.097 472.182L522.725 432.686C524.037 432.251 525.249 431.56 526.293 430.655C527.337 429.749 528.192 428.646 528.809 427.409C529.425 426.172 529.792 424.825 529.886 423.446C529.981 422.067 529.803 420.683 529.361 419.373L504.523 344.868C504.088 343.561 503.399 342.352 502.496 341.31C501.593 340.269 500.494 339.416 499.262 338.799C498.03 338.183 496.688 337.815 495.313 337.718C493.939 337.62 492.559 337.794 491.252 338.23L372.697 377.8Z" fill="#F8FBFC"/>
<path d="M377.257 428.681C377.536 429.509 377.563 430.402 377.335 431.246C377.106 432.089 376.632 432.846 375.973 433.42C375.314 433.994 374.499 434.359 373.632 434.469C372.766 434.579 371.885 434.429 371.104 434.038C370.322 433.647 369.674 433.033 369.242 432.273C368.81 431.514 368.613 430.642 368.677 429.771C368.74 428.899 369.061 428.065 369.599 427.376C370.136 426.687 370.866 426.173 371.696 425.9C372.803 425.535 374.008 425.623 375.05 426.144C376.091 426.665 376.885 427.577 377.257 428.681Z" fill="#D4D2D1"/>
<path opacity="0.4" d="M263.151 287.497L380.186 455.679L432.938 442.328L418.073 406.986L387.6 398.382L351.789 333.891L535.441 266.878L538.259 237.729L514.088 177.28L263.151 287.497Z" fill="#808080"/>
<path d="M426.414 423.526L402.169 412.401C401.576 412.136 400.912 412.076 400.281 412.231C399.65 412.385 399.089 412.745 398.684 413.254L398.462 413.587C398.201 413.93 398.021 414.328 397.936 414.75C397.85 415.172 397.861 415.609 397.968 416.026C398.075 416.443 398.275 416.831 398.553 417.16C398.832 417.489 399.181 417.751 399.574 417.926L424.078 428.755C424.772 429.065 425.559 429.087 426.268 428.815C426.978 428.544 427.55 428.002 427.86 427.309C428.169 426.615 428.191 425.827 427.92 425.118C427.649 424.409 427.107 423.836 426.414 423.526Z" fill="#FDF5EA"/>
<path d="M374.328 266.989C369.876 268.752 365.237 269.996 360.501 270.698C353.828 271.551 345.338 267.879 339.666 268.769C333.994 269.659 319.907 279.561 319.907 279.561L314.421 292.949L311.307 314.495L335.588 324.397C335.588 324.397 341.817 327.179 351.974 321.764C361.968 315.443 371.461 308.364 380.371 300.589L392.604 294.21L374.328 266.989Z" fill="#EAC9B8"/>
<path d="M391.27 389.371L407.804 395.119C407.804 395.119 416.479 404.427 418.073 406.986C419.667 409.545 418.073 417.222 418.073 417.222C418.073 417.222 423.819 422.97 423.485 428.347C423.152 433.725 414.514 441.142 403.652 441.475C392.79 441.809 381.409 443.07 378.703 441.475C375.997 439.881 363.874 415.516 363.874 415.516L346.599 391.67L380.186 375.315L391.27 389.371Z" fill="#EAC9B8"/>
<path d="M40.9812 733.374C40.9812 733.374 35.5687 676.744 48.3955 659.203C61.2222 641.662 130.768 519.169 136.626 514.348C142.483 509.527 265.672 577.393 265.672 577.393C265.672 577.393 251.844 609.806 250.398 610.436C248.952 611.066 157.719 577.875 157.719 577.875L141.816 628.904L165.43 619.781L186.635 667.992C186.635 667.992 161.501 683.791 118.831 704.855C94.0378 717.264 67.9221 726.831 40.9812 733.374Z" fill="#FFCE45"/>
<path d="M88.4703 825.901C87.9142 827.348 149.75 872.851 173.735 864.655C197.72 856.46 290.547 833.393 303.189 824.418C315.83 815.443 385.45 732.632 385.45 732.632L363.207 705.708L289.88 772.202L239.166 787.926L215.218 733.374C215.218 733.374 112.418 764.414 88.4703 825.901Z" fill="#FFCE45"/>
<path d="M485.321 753.882L540.15 746.465L560.836 821.377L700.966 759.815L652.365 712.013L685.73 671.219L793.459 759.704C793.459 759.704 825.007 852.9 824.192 863.172C823.376 873.445 785.971 951.769 729.252 978.137C672.532 1004.5 595.794 970.349 585.488 967.975C575.182 965.602 514.682 888.65 513.57 886.091C512.457 883.532 485.321 753.882 485.321 753.882Z" fill="#F39475"/>
<path d="M541.521 230.683C534.552 193.597 531.401 110.119 524.431 98.2883C515.349 82.7867 494.366 61.203 461.224 48.149C461.224 48.149 319.574 35.9109 286.988 55.8998C254.402 75.8888 242.502 251.376 242.762 259.35C243.021 267.323 352.086 406.17 352.086 406.17L386.711 379.024L316.72 264.059L472.42 195.748L475.2 215.144L366.358 265.209L387.897 303.741L526.952 255.53C531.962 253.834 536.193 250.389 538.869 245.825C541.546 241.261 542.487 235.885 541.521 230.683Z" fill="#E74A5F"/>
<path d="M368.656 393.116L355.533 395.935L243.762 261.612L352.011 406.17L368.656 393.116Z" fill="#C9364F"/>
<path d="M541.669 237.729C537.315 243.541 531.511 248.106 524.839 250.968C514.57 254.677 394.384 291.762 394.384 291.762L380.186 290.056L387.897 303.889L526.952 255.678C530.832 254.354 534.266 251.972 536.866 248.8C539.466 245.629 541.13 241.795 541.669 237.729Z" fill="#C9364F"/>
<path d="M316.646 264.022L338.888 99.2897C338.888 99.2897 402.985 92.6885 420.891 99.2897C438.796 105.891 465.562 117.832 465.562 117.832L472.123 195.711L316.646 264.022Z" fill="#C9364F"/>
<path d="M297.479 67.73C297.479 67.73 331.325 109.228 332.067 149.985C332.808 190.742 346.006 173.794 346.006 173.794L338.925 99.2896C338.925 99.2896 321.501 75.2583 297.479 67.73Z" fill="#C9364F"/>
<path d="M467.007 135.04C467.007 135.04 459.593 91.2792 480.724 70.0664C472.266 74.2984 464.793 80.2626 458.79 87.5717C452.786 94.8808 448.387 103.371 445.877 112.492C437.906 143.124 467.007 135.04 467.007 135.04Z" fill="#C9364F"/>
<path d="M437.35 104.148C438.463 103.74 436.498 134.001 436.498 134.001L426.563 149.429C426.563 149.429 403.504 165.932 399.167 167.971C394.829 170.011 369.51 170.345 369.51 170.345C369.51 170.345 362.095 174.053 358.388 172.31C354.681 170.567 350.974 158.144 350.974 158.144C350.974 158.144 337.035 150.727 337.517 121.726C337.999 92.7255 374.588 80.2277 374.588 80.2277L437.35 104.148Z" fill="#EAC9B8"/>
<path d="M347.415 50.4853C347.415 50.4853 338.851 46.9993 333.958 53.5263C329.064 60.0533 337.331 72.069 337.331 72.069L347.415 50.4853Z" fill="#EAC9B8"/>
<path d="M461.224 105.557C461.224 105.557 467.6 107.337 467.637 112.677C467.674 118.018 455.404 131.22 446.84 130.145C438.277 129.069 461.224 105.557 461.224 105.557Z" fill="#EAC9B8"/>
<path d="M333.55 112.64C333.55 112.64 328.731 60.3871 345.783 35.54C362.836 10.6929 381.483 6.42807 381.483 6.42807C387.492 2.96814 394.176 0.845741 401.079 0.20573C407.982 -0.434281 414.942 0.423165 421.483 2.71954C432.793 7.07537 443.02 13.8388 451.457 22.5412C459.893 31.2437 466.338 41.677 470.344 53.1184C477.499 74.9617 467.193 106.632 455.107 122.023C446.689 132.301 437.04 141.505 426.377 149.429C426.377 149.429 433.272 129.18 425.228 127.919C425.228 127.919 392.901 152.47 371.289 151.098C349.676 149.726 345.561 145.35 345.561 145.35C345.561 145.35 371.919 139.045 382.929 129.959C382.929 129.959 352.16 139.119 338.11 138.822L348.378 125.694L341.224 129.18C336.751 124.777 334.024 118.901 333.55 112.64Z" fill="#393F4B"/>
<path d="M161.464 770.311C161.464 770.311 164.355 781.955 159.165 790.151C153.975 798.347 144.077 800.016 137.516 809.176C130.954 818.336 117.979 836.434 99.8139 836.842C81.6489 837.249 68.0066 818.299 57.4041 814.145C46.8017 809.992 19.7024 817.854 11.213 800.72C2.72362 783.587 22.7422 755.217 9.58185 740.605C-3.57854 725.994 -1.53961 708.452 5.8747 700.071C18.0712 686.424 34.1603 685.237 52.7702 695.695C71.3801 706.153 81.9825 698.402 90.4348 695.695C98.8871 692.988 113.308 691.986 118.72 694.249C124.133 696.511 127.803 706.153 127.803 706.153L161.464 770.311Z" fill="#252A34"/>
<path d="M165.356 619.781L141.742 628.904L127.247 665.656C127.247 665.656 150.231 662.467 155.532 665.656C159.89 669.787 163.635 674.52 166.654 679.711C179.518 672.48 186.524 668.066 186.524 668.066L165.356 619.781Z" fill="#B79433"/>
<path d="M215.218 733.374C215.218 733.374 208.915 735.265 199.017 739.085C203.318 748.949 209.62 765.638 208.174 775.614C206.061 790.448 186.561 801.573 186.561 801.573L239.166 787.741L215.218 733.374Z" fill="#B79433"/>
<path d="M627.675 884.422C627.675 884.422 618.296 858.944 627.675 843.962C638.797 826.495 669.381 815.072 688.732 822.527C717.092 833.467 715.09 842.627 715.09 842.627L627.675 884.422Z" fill="#FAD1B1"/>
<path d="M729.066 845C729.066 845 708.565 822.749 678.093 827.756C647.62 832.762 640.836 838.881 640.836 838.881L648.769 838.659L634.608 849.488C634.608 849.488 617.814 876.931 618.296 896.4C618.426 907.742 621.768 918.813 627.935 928.331C627.935 928.331 631.642 947.43 640.539 955.589C649.436 963.747 671.272 972.462 687.62 970.756C698.418 969.35 708.835 965.834 718.278 960.41C727.761 959.168 736.43 954.402 742.56 947.059C748.753 939.826 752.17 930.623 752.199 921.099C752.199 921.099 762.097 908.824 762.616 901.592C763.135 894.361 757.611 876.041 757.611 876.041C757.611 876.041 750.642 846.113 729.066 845Z" fill="#6F251E"/>
<path d="M560.835 821.525L569.362 856.571L592.68 884.422C592.68 884.422 599.056 845.371 629.418 820.227C659.779 795.084 712.828 801.425 720.613 801.685C728.398 801.944 758.056 836.767 758.056 836.767L741.818 793.6L701.04 760.223L560.835 821.525Z" fill="#E28166"/>
<path d="M814.738 886.313C814.738 886.313 757.315 960.002 704.265 974.651C657.852 987.445 601.466 972.759 588.231 968.902C605.655 974.688 676.165 1002.87 729.103 978.211C769.585 959.371 800.169 914.276 814.738 886.313Z" fill="#E28166"/>
<path d="M413.217 417.259L386.229 404.872C385.585 404.62 384.877 404.581 384.21 404.761C383.542 404.941 382.95 405.331 382.521 405.874L382.262 406.207C381.976 406.591 381.78 407.034 381.688 407.504C381.597 407.974 381.612 408.458 381.733 408.921C381.854 409.384 382.078 409.814 382.388 410.179C382.697 410.544 383.085 410.834 383.522 411.028L410.733 423.081C411.505 423.43 412.384 423.458 413.176 423.159C413.969 422.86 414.61 422.259 414.959 421.487C415.308 420.714 415.336 419.835 415.037 419.042C414.738 418.25 414.137 417.608 413.365 417.259H413.217Z" fill="#FDF5EA"/>
<path d="M766.323 383.066H599.983V502.332H766.323V383.066Z" fill="white"/>
<path d="M762.06 383.066H599.983V493.469H762.06V383.066Z" fill="#C4CCD7"/>
<path d="M761.355 372.46H595.015V491.726H761.355V372.46Z" fill="white"/>
<path d="M777.434 249.718L613.039 275.089L631.217 392.961L795.612 367.59L777.434 249.718Z" fill="white"/>
<path d="M773.211 250.392L613.03 275.113L629.856 384.225L790.038 359.504L773.211 250.392Z" fill="#C4CCD7"/>
<path d="M770.908 239.961L606.513 265.332L624.691 383.204L789.086 357.833L770.908 239.961Z" fill="white"/>
<path d="M163.503 463.541C163.847 464.098 164.298 464.58 164.83 464.962C165.362 465.343 165.963 465.616 166.601 465.764C167.238 465.912 167.898 465.933 168.543 465.825C169.189 465.717 169.806 465.483 170.361 465.136L187.599 454.455L182.335 445.963L165.134 456.681C164.012 457.378 163.211 458.49 162.906 459.775C162.6 461.06 162.815 462.414 163.503 463.541Z" fill="#F16A44"/>
<path d="M225.233 460.236C237.205 448.259 237.205 428.84 225.233 416.863C213.26 404.886 193.848 404.886 181.875 416.863C169.903 428.84 169.903 448.259 181.875 460.236C193.848 472.214 213.26 472.213 225.233 460.236Z" fill="#F16A44"/>
<path d="M175.292 433.465C175.657 430.571 176.483 427.754 177.738 425.121C179.022 422.41 180.709 419.909 182.743 417.704C186.891 413.405 192.263 410.491 198.128 409.36L200.352 409.063C201.093 409.063 201.835 409.063 202.576 409.063C202.946 409.026 203.318 409.026 203.688 409.063H204.8C205.542 409.063 206.283 409.063 207.025 409.248C212.923 410.009 218.434 412.603 222.78 416.665C224.895 418.675 226.683 421.002 228.081 423.563C224.804 418.819 220.238 415.112 214.921 412.883C209.692 410.678 203.933 410.046 198.35 411.065C192.774 412.151 187.627 414.815 183.521 418.742C179.445 422.775 176.592 427.879 175.292 433.465Z" fill="#F8FBFC"/>
<path d="M203.54 463.319C217.217 463.319 228.304 452.227 228.304 438.546C228.304 424.864 217.217 413.773 203.54 413.773C189.863 413.773 178.776 424.864 178.776 438.546C178.776 452.227 189.863 463.319 203.54 463.319Z" fill="#93603D"/>
<path d="M179.777 445.555C181.423 450.94 184.853 455.604 189.503 458.778C194.154 461.952 199.746 463.446 205.359 463.014C210.971 462.582 216.27 460.25 220.38 456.402C224.49 452.554 227.167 447.42 227.97 441.846C226.325 436.461 222.894 431.797 218.244 428.623C213.594 425.45 208.001 423.956 202.389 424.387C196.776 424.819 191.478 427.151 187.367 430.999C183.257 434.847 180.58 439.981 179.777 445.555Z" fill="#A4704C"/>
<g opacity="0.5">
<path opacity="0.5" d="M220.815 427.606C220.799 427.544 220.768 427.488 220.726 427.44C220.684 427.393 220.632 427.356 220.573 427.332C220.514 427.308 220.45 427.299 220.387 427.304C220.324 427.31 220.263 427.33 220.208 427.363C220.154 427.396 220.109 427.441 220.075 427.495C220.042 427.549 220.021 427.61 220.015 427.673C220.009 427.736 220.018 427.8 220.041 427.859C220.064 427.918 220.101 427.971 220.148 428.014C222.022 430.989 223.064 434.413 223.168 437.928C223.272 441.444 222.432 444.923 220.737 448.004C219.042 451.085 216.553 453.656 213.529 455.449C210.505 457.242 207.055 458.192 203.54 458.201C202.496 458.207 201.454 458.12 200.426 457.941C200.365 457.922 200.3 457.918 200.237 457.928C200.174 457.939 200.114 457.964 200.063 458.002C200.011 458.04 199.969 458.09 199.94 458.147C199.912 458.204 199.896 458.267 199.896 458.331C199.896 458.395 199.912 458.458 199.94 458.515C199.969 458.572 200.011 458.622 200.063 458.659C200.114 458.697 200.174 458.723 200.237 458.733C200.3 458.744 200.365 458.739 200.426 458.72C201.492 458.899 202.571 458.986 203.651 458.98C207.31 458.984 210.903 458.005 214.055 456.144C217.206 454.284 219.8 451.611 221.566 448.405C223.331 445.198 224.203 441.576 224.091 437.918C223.978 434.259 222.885 430.697 220.926 427.606H220.815Z" fill="#F8FBFC"/>
<path opacity="0.5" d="M192.048 422.747C192.087 422.713 192.119 422.67 192.14 422.622C192.162 422.574 192.173 422.522 192.173 422.469C192.173 422.417 192.162 422.365 192.14 422.317C192.119 422.269 192.087 422.226 192.048 422.191C192.013 422.152 191.97 422.12 191.922 422.098C191.874 422.077 191.822 422.066 191.77 422.066C191.717 422.066 191.665 422.077 191.617 422.098C191.569 422.12 191.526 422.152 191.492 422.191C189.166 423.873 187.22 426.026 185.782 428.511C184.344 430.995 183.445 433.755 183.144 436.61C182.843 439.465 183.147 442.351 184.036 445.081C184.925 447.811 186.379 450.323 188.303 452.453C188.388 452.481 188.479 452.481 188.563 452.453H188.86C188.932 452.371 188.973 452.265 188.973 452.156C188.973 452.047 188.932 451.941 188.86 451.859C187.017 449.808 185.626 447.392 184.778 444.767C183.93 442.143 183.643 439.37 183.937 436.627C184.231 433.885 185.098 431.235 186.483 428.85C187.867 426.465 189.738 424.399 191.974 422.784L192.048 422.747Z" fill="#F8FBFC"/>
<path opacity="0.5" d="M203.54 425.826C204.17 425.789 204.801 425.789 205.431 425.826C205.514 425.8 205.586 425.748 205.638 425.678C205.689 425.608 205.717 425.523 205.717 425.436C205.717 425.349 205.689 425.264 205.638 425.194C205.586 425.124 205.514 425.073 205.431 425.047C204.765 424.99 204.095 424.99 203.429 425.047C199.857 425.057 196.434 426.483 193.911 429.014C191.389 431.544 189.972 434.972 189.972 438.546C189.935 439.188 189.935 439.832 189.972 440.474C189.99 440.569 190.04 440.655 190.115 440.716C190.189 440.777 190.283 440.81 190.38 440.808C190.478 440.783 190.564 440.725 190.625 440.644C190.685 440.563 190.717 440.464 190.713 440.363C190.658 439.758 190.658 439.15 190.713 438.546C190.713 436.866 191.046 435.203 191.692 433.652C192.338 432.101 193.284 430.694 194.477 429.512C195.67 428.329 197.084 427.394 198.64 426.762C200.196 426.129 201.861 425.811 203.54 425.826Z" fill="#F8FBFC"/>
<path opacity="0.5" d="M213.401 447.743C213.456 447.712 213.502 447.669 213.537 447.617C213.573 447.565 213.595 447.505 213.604 447.443C213.612 447.381 213.606 447.317 213.586 447.258C213.566 447.198 213.532 447.144 213.488 447.1C213.443 447.055 213.389 447.022 213.33 447.002C213.27 446.982 213.207 446.976 213.145 446.984C213.083 446.992 213.023 447.015 212.971 447.05C212.919 447.085 212.876 447.132 212.845 447.187C211.65 448.458 210.209 449.472 208.609 450.167C207.009 450.862 205.284 451.223 203.54 451.229C201.783 451.228 200.045 450.861 198.437 450.153C196.828 449.444 195.385 448.409 194.198 447.112C194.122 447.043 194.023 447.005 193.921 447.006C193.818 447.007 193.719 447.046 193.645 447.116C193.57 447.187 193.524 447.282 193.517 447.385C193.509 447.487 193.541 447.589 193.605 447.669C194.878 449.031 196.416 450.119 198.124 450.865C199.833 451.611 201.676 452 203.54 452.008C205.388 452.01 207.217 451.633 208.913 450.899C210.609 450.166 212.137 449.091 213.401 447.743Z" fill="#F8FBFC"/>
<path opacity="0.5" d="M209.286 427.198C211.386 428.257 213.149 429.879 214.38 431.883C215.611 433.887 216.26 436.194 216.256 438.546C216.256 438.879 216.256 439.176 216.256 439.51C216.251 439.559 216.255 439.608 216.269 439.655C216.283 439.702 216.306 439.745 216.338 439.783C216.369 439.821 216.407 439.853 216.45 439.876C216.493 439.899 216.541 439.913 216.589 439.918C216.691 439.918 216.79 439.88 216.865 439.812C216.941 439.743 216.988 439.649 216.997 439.547C216.997 439.213 216.997 438.879 216.997 438.546C217.002 436.046 216.31 433.595 215.001 431.466C213.691 429.337 211.815 427.615 209.583 426.493C209.51 426.433 209.418 426.4 209.323 426.4C209.229 426.4 209.137 426.433 209.064 426.493C208.978 426.528 208.909 426.595 208.87 426.679C208.83 426.763 208.824 426.859 208.852 426.947C208.88 427.036 208.94 427.111 209.021 427.157C209.101 427.203 209.196 427.218 209.286 427.198Z" fill="#F8FBFC"/>
<path opacity="0.5" d="M203.54 449.004C205.348 449.012 207.127 448.547 208.701 447.656C210.274 446.765 211.588 445.478 212.511 443.923C212.579 443.854 212.617 443.761 212.617 443.663C212.617 443.566 212.579 443.473 212.511 443.404C212.442 443.336 212.349 443.298 212.252 443.298C212.155 443.298 212.062 443.336 211.992 443.404C211.136 444.843 209.92 446.034 208.464 446.859C207.008 447.685 205.362 448.118 203.688 448.114C203.638 448.108 203.587 448.113 203.54 448.13C203.492 448.146 203.449 448.173 203.413 448.209C203.377 448.245 203.35 448.288 203.334 448.336C203.317 448.384 203.312 448.434 203.317 448.485C203.294 448.533 203.28 448.585 203.279 448.639C203.277 448.693 203.288 448.746 203.309 448.796C203.33 448.845 203.362 448.889 203.401 448.925C203.441 448.961 203.489 448.988 203.54 449.004Z" fill="#F8FBFC"/>
<path opacity="0.5" d="M210.398 431.685C210.429 431.74 210.472 431.786 210.524 431.821C210.576 431.856 210.636 431.879 210.698 431.888C210.76 431.896 210.823 431.89 210.883 431.87C210.942 431.85 210.996 431.816 211.041 431.772C211.085 431.727 211.119 431.673 211.139 431.614C211.159 431.554 211.165 431.491 211.157 431.429C211.148 431.366 211.126 431.307 211.09 431.255C211.055 431.203 211.009 431.16 210.954 431.129C209.814 430.005 208.434 429.156 206.917 428.646C205.4 428.136 203.786 427.979 202.2 428.186C200.613 428.393 199.094 428.96 197.759 429.843C196.424 430.725 195.307 431.901 194.494 433.28C194.434 433.353 194.401 433.444 194.401 433.539C194.401 433.634 194.434 433.726 194.494 433.799H194.717C194.787 433.794 194.854 433.77 194.913 433.731C194.971 433.692 195.019 433.639 195.05 433.576C195.802 432.303 196.833 431.218 198.067 430.404C199.301 429.59 200.704 429.068 202.17 428.878C203.636 428.689 205.126 428.836 206.526 429.31C207.926 429.783 209.2 430.57 210.25 431.611L210.398 431.685Z" fill="#F8FBFC"/>
</g>
<path d="M701.114 158.923C700.177 157.994 698.911 157.473 697.592 157.473C696.273 157.473 695.008 157.994 694.07 158.923L679.761 173.275L686.804 180.321L701.114 165.969C701.583 165.51 701.955 164.962 702.209 164.357C702.463 163.752 702.594 163.102 702.594 162.446C702.594 161.79 702.463 161.14 702.209 160.535C701.955 159.93 701.583 159.382 701.114 158.923Z" fill="#F16A44"/>
<path d="M696.774 200.406C700.678 183.924 690.486 167.397 674.01 163.492C657.534 159.586 641.013 169.782 637.11 186.264C633.206 202.746 643.397 219.273 659.873 223.178C676.349 227.084 692.87 216.888 696.774 200.406Z" fill="#F16A44"/>
<path d="M638.686 188.294C639.452 182.439 642.046 176.975 646.1 172.681C650.262 168.382 655.647 165.469 661.522 164.337L663.709 164.041C664.45 164.041 665.192 164.041 665.933 164.041H668.157H670.382C676.293 164.794 681.818 167.389 686.174 171.458C688.278 173.477 690.065 175.803 691.475 178.355C688.217 173.606 683.679 169.877 678.389 167.601C673.156 165.399 667.392 164.78 661.811 165.821C656.23 166.863 651.077 169.519 646.99 173.46C642.883 177.526 640.005 182.667 638.686 188.294Z" fill="#F8FBFC"/>
<path d="M666.971 218.111C680.648 218.111 691.735 207.02 691.735 193.338C691.735 179.656 680.648 168.565 666.971 168.565C653.294 168.565 642.207 179.656 642.207 193.338C642.207 207.02 653.294 218.111 666.971 218.111Z" fill="#93603D"/>
<path d="M643.208 200.236C644.853 205.621 648.284 210.285 652.934 213.459C657.584 216.632 663.177 218.127 668.79 217.695C674.402 217.263 679.701 214.931 683.811 211.083C687.921 207.235 690.598 202.101 691.401 196.527C689.756 191.142 686.325 186.478 681.675 183.304C677.025 180.13 671.432 178.636 665.819 179.068C660.207 179.5 654.908 181.832 650.798 185.68C646.688 189.528 644.011 194.662 643.208 200.236Z" fill="#A4704C"/>
<g opacity="0.5">
<path opacity="0.5" d="M684.246 182.398C684.171 182.327 684.071 182.288 683.968 182.288C683.865 182.288 683.765 182.327 683.69 182.398C683.65 182.432 683.619 182.475 683.597 182.523C683.576 182.571 683.564 182.623 683.564 182.676C683.564 182.728 683.576 182.78 683.597 182.828C683.619 182.876 683.65 182.919 683.69 182.954C685.567 185.927 686.612 189.349 686.717 192.863C686.821 196.377 685.982 199.856 684.286 202.935C682.589 206.014 680.099 208.582 677.073 210.371C674.047 212.16 670.597 213.103 667.082 213.104C666.04 213.107 664.999 213.032 663.968 212.882C663.914 212.871 663.859 212.871 663.805 212.882C663.752 212.893 663.701 212.915 663.656 212.946C663.611 212.978 663.573 213.017 663.544 213.064C663.515 213.11 663.495 213.161 663.486 213.215C663.475 213.318 663.503 213.421 663.565 213.504C663.627 213.586 663.718 213.642 663.82 213.66C664.9 213.822 665.99 213.909 667.082 213.92C670.737 213.904 674.322 212.911 677.465 211.044C680.607 209.176 683.194 206.502 684.956 203.298C686.718 200.094 687.591 196.477 687.486 192.822C687.381 189.167 686.301 185.606 684.357 182.509L684.246 182.398Z" fill="#F8FBFC"/>
<path opacity="0.5" d="M655.442 177.428C655.512 177.353 655.551 177.253 655.551 177.15C655.551 177.047 655.512 176.947 655.442 176.872C655.366 176.802 655.267 176.762 655.164 176.762C655.06 176.762 654.961 176.802 654.886 176.872C652.557 178.551 650.608 180.702 649.167 183.185C647.725 185.668 646.823 188.427 646.518 191.282C646.214 194.138 646.515 197.025 647.401 199.756C648.287 202.487 649.738 205.001 651.66 207.133C651.706 207.156 651.757 207.168 651.809 207.168C651.86 207.168 651.911 207.156 651.957 207.133C652.041 207.162 652.132 207.162 652.216 207.133C652.287 207.058 652.326 206.959 652.326 206.855C652.326 206.752 652.287 206.653 652.216 206.577C650.372 204.528 648.979 202.114 648.128 199.491C647.277 196.868 646.987 194.096 647.277 191.354C647.567 188.612 648.431 185.961 649.812 183.575C651.193 181.188 653.061 179.119 655.293 177.502L655.442 177.428Z" fill="#F8FBFC"/>
<path opacity="0.5" d="M666.971 180.655C667.6 180.599 668.233 180.599 668.862 180.655C668.964 180.666 669.067 180.637 669.15 180.575C669.232 180.513 669.288 180.422 669.306 180.321C669.31 180.22 669.278 180.121 669.218 180.04C669.157 179.959 669.071 179.901 668.973 179.876C668.307 179.821 667.637 179.821 666.971 179.876C663.399 179.876 659.972 181.293 657.442 183.816C654.913 186.34 653.487 189.764 653.477 193.338C653.42 193.992 653.42 194.649 653.477 195.303C653.493 195.392 653.538 195.473 653.605 195.533C653.672 195.594 653.758 195.63 653.848 195.637C653.9 195.633 653.951 195.618 653.997 195.592C654.043 195.567 654.083 195.532 654.115 195.49C654.146 195.448 654.169 195.399 654.18 195.348C654.192 195.297 654.192 195.244 654.181 195.192C654.143 194.575 654.143 193.955 654.181 193.338C654.186 191.664 654.521 190.008 655.167 188.464C655.813 186.92 656.757 185.519 657.945 184.341C659.133 183.163 660.542 182.231 662.091 181.598C663.64 180.965 665.298 180.645 666.971 180.655Z" fill="#F8FBFC"/>
<path opacity="0.5" d="M676.832 202.535C676.903 202.459 676.942 202.36 676.942 202.257C676.942 202.154 676.903 202.054 676.832 201.979C676.797 201.939 676.755 201.908 676.707 201.886C676.659 201.864 676.607 201.853 676.554 201.853C676.501 201.853 676.449 201.864 676.402 201.886C676.354 201.908 676.311 201.939 676.276 201.979C675.087 203.245 673.651 204.254 672.057 204.944C670.463 205.634 668.745 205.99 667.008 205.99C665.271 205.99 663.553 205.634 661.959 204.944C660.365 204.254 658.929 203.245 657.74 201.979C657.705 201.939 657.663 201.908 657.615 201.886C657.567 201.864 657.515 201.853 657.462 201.853C657.41 201.853 657.358 201.864 657.31 201.886C657.262 201.908 657.219 201.939 657.184 201.979C657.114 202.054 657.075 202.154 657.075 202.257C657.075 202.36 657.114 202.459 657.184 202.535C658.444 203.904 659.975 204.996 661.678 205.744C663.382 206.491 665.222 206.877 667.082 206.877C668.943 206.877 670.783 206.491 672.486 205.744C674.19 204.996 675.72 203.904 676.98 202.535H676.832Z" fill="#F8FBFC"/>
<path opacity="0.5" d="M672.717 182.027C674.776 183.074 676.51 184.663 677.732 186.624C678.953 188.585 679.617 190.842 679.649 193.152C679.668 193.486 679.668 193.82 679.649 194.154C679.656 194.253 679.697 194.348 679.764 194.422C679.831 194.496 679.922 194.545 680.02 194.562C680.119 194.562 680.213 194.522 680.282 194.453C680.352 194.383 680.391 194.289 680.391 194.191C680.41 193.845 680.41 193.498 680.391 193.152C680.389 190.659 679.694 188.216 678.385 186.094C677.076 183.972 675.203 182.256 672.977 181.137C672.89 181.124 672.802 181.14 672.725 181.181C672.649 181.222 672.587 181.287 672.55 181.366C672.512 181.445 672.501 181.533 672.518 181.619C672.535 181.704 672.579 181.782 672.643 181.841L672.717 182.027Z" fill="#F8FBFC"/>
<path opacity="0.5" d="M666.971 203.944C668.769 203.95 670.538 203.488 672.104 202.604C673.671 201.719 674.98 200.443 675.905 198.9C675.975 198.825 676.015 198.726 676.015 198.622C676.015 198.519 675.975 198.42 675.905 198.344C675.83 198.274 675.73 198.235 675.627 198.235C675.524 198.235 675.425 198.274 675.349 198.344C674.494 199.773 673.283 200.955 671.833 201.774C670.384 202.594 668.747 203.022 667.082 203.017C667.029 203.017 666.976 203.027 666.926 203.048C666.877 203.068 666.832 203.099 666.794 203.136C666.756 203.174 666.726 203.219 666.705 203.269C666.685 203.318 666.674 203.371 666.674 203.425C666.651 203.478 666.64 203.536 666.643 203.594C666.646 203.652 666.662 203.709 666.691 203.76C666.72 203.81 666.76 203.853 666.809 203.885C666.858 203.917 666.913 203.937 666.971 203.944Z" fill="#F8FBFC"/>
<path opacity="0.5" d="M673.792 186.514C673.823 186.569 673.866 186.615 673.918 186.65C673.97 186.686 674.03 186.708 674.092 186.717C674.154 186.725 674.217 186.719 674.277 186.699C674.336 186.679 674.39 186.645 674.435 186.601C674.479 186.556 674.513 186.502 674.533 186.443C674.553 186.383 674.559 186.32 674.551 186.258C674.542 186.196 674.519 186.136 674.484 186.084C674.449 186.032 674.403 185.989 674.348 185.958C673.377 184.98 672.222 184.204 670.949 183.676C669.676 183.147 668.312 182.877 666.934 182.88C665.105 182.885 663.309 183.366 661.723 184.277C660.137 185.187 658.816 186.495 657.888 188.072C657.818 188.147 657.779 188.247 657.779 188.35C657.779 188.453 657.818 188.552 657.888 188.628H658.074C658.14 188.627 658.205 188.609 658.264 188.577C658.322 188.544 658.371 188.498 658.407 188.443C659.148 187.158 660.176 186.061 661.409 185.238C662.643 184.415 664.05 183.888 665.521 183.698C666.991 183.507 668.486 183.659 669.889 184.141C671.291 184.623 672.563 185.423 673.607 186.477L673.792 186.514Z" fill="#F8FBFC"/>
</g>
<path d="M826.779 629.439C830.683 612.957 820.492 596.43 804.016 592.525C787.54 588.62 771.019 598.815 767.115 615.297C763.211 631.779 773.403 648.306 789.879 652.211C806.355 656.117 822.876 645.921 826.779 629.439Z" fill="#F16A44"/>
<path d="M768.695 617.334C769.096 614.431 769.934 611.605 771.179 608.953C772.431 606.232 774.108 603.729 776.147 601.536C780.309 597.236 785.693 594.323 791.568 593.191L793.793 592.895C794.521 592.858 795.251 592.858 795.98 592.895H798.204C798.948 592.918 799.691 592.98 800.429 593.08C806.34 593.833 811.865 596.428 816.221 600.497C818.325 602.517 820.112 604.842 821.522 607.395C818.264 602.645 813.726 598.916 808.436 596.64C803.203 594.438 797.439 593.82 791.858 594.861C786.277 595.902 781.124 598.558 777.036 602.5C772.922 606.566 770.032 611.705 768.695 617.334Z" fill="#F8FBFC"/>
<path d="M796.981 647.15C810.657 647.15 821.745 636.059 821.745 622.377C821.745 608.696 810.657 597.604 796.981 597.604C783.304 597.604 772.217 608.696 772.217 622.377C772.217 636.059 783.304 647.15 796.981 647.15Z" fill="#93603D"/>
<path d="M773.218 629.424C774.863 634.809 778.294 639.473 782.944 642.647C787.594 645.82 793.187 647.314 798.8 646.882C804.412 646.451 809.71 644.118 813.821 640.271C817.931 636.423 820.608 631.289 821.411 625.715C819.766 620.329 816.335 615.666 811.685 612.492C807.035 609.318 801.442 607.824 795.829 608.256C790.217 608.688 784.919 611.02 780.808 614.868C776.698 618.716 774.021 623.85 773.218 629.424Z" fill="#A4704C"/>
<g opacity="0.5">
<path opacity="0.5" d="M785.452 606.431C785.52 606.361 785.558 606.268 785.558 606.171C785.558 606.074 785.52 605.981 785.452 605.912C785.376 605.841 785.277 605.802 785.174 605.802C785.071 605.802 784.971 605.841 784.896 605.912C782.567 607.591 780.618 609.742 779.177 612.225C777.735 614.708 776.833 617.467 776.528 620.322C776.224 623.177 776.525 626.065 777.411 628.796C778.297 631.527 779.748 634.041 781.67 636.173C781.705 636.213 781.748 636.244 781.796 636.266C781.844 636.288 781.896 636.299 781.948 636.299C782.001 636.299 782.053 636.288 782.101 636.266C782.149 636.244 782.192 636.213 782.227 636.173C782.297 636.098 782.336 635.998 782.336 635.895C782.336 635.792 782.297 635.692 782.227 635.617C778.964 632.011 777.166 627.315 777.185 622.452C777.2 619.318 777.957 616.232 779.394 613.448C780.831 610.663 782.907 608.258 785.452 606.431Z" fill="#F8FBFC"/>
<path opacity="0.5" d="M796.944 609.694C797.573 609.639 798.205 609.639 798.834 609.694C798.917 609.668 798.99 609.617 799.041 609.547C799.093 609.477 799.121 609.392 799.121 609.305C799.121 609.218 799.093 609.133 799.041 609.063C798.99 608.993 798.917 608.941 798.834 608.916C798.168 608.86 797.499 608.86 796.833 608.916C793.26 608.916 789.833 610.333 787.304 612.856C784.774 615.38 783.348 618.804 783.338 622.377C783.282 623.031 783.282 623.689 783.338 624.343C783.355 624.432 783.4 624.513 783.467 624.573C783.534 624.634 783.619 624.67 783.709 624.677C783.762 624.673 783.813 624.657 783.859 624.632C783.905 624.607 783.945 624.572 783.976 624.53C784.008 624.487 784.03 624.439 784.042 624.388C784.053 624.336 784.054 624.283 784.043 624.232C784.004 623.614 784.004 622.995 784.043 622.377C784.048 620.694 784.386 619.029 785.039 617.478C785.692 615.927 786.646 614.521 787.846 613.341C789.046 612.161 790.468 611.231 792.029 610.605C793.591 609.979 795.262 609.67 796.944 609.694Z" fill="#F8FBFC"/>
<path opacity="0.5" d="M806.842 631.575C806.912 631.499 806.951 631.4 806.951 631.297C806.951 631.193 806.912 631.094 806.842 631.018C806.807 630.979 806.764 630.947 806.716 630.926C806.668 630.904 806.616 630.893 806.564 630.893C806.511 630.893 806.459 630.904 806.411 630.926C806.363 630.947 806.321 630.979 806.286 631.018C805.103 632.295 803.669 633.313 802.074 634.009C800.479 634.705 798.758 635.064 797.018 635.064C795.278 635.064 793.557 634.705 791.962 634.009C790.367 633.313 788.933 632.295 787.75 631.018C787.675 630.968 787.586 630.944 787.497 630.95C787.407 630.956 787.322 630.991 787.254 631.05C787.186 631.109 787.14 631.189 787.123 631.277C787.105 631.365 787.117 631.457 787.157 631.538C788.417 632.906 789.948 633.999 791.651 634.746C793.355 635.494 795.195 635.879 797.055 635.879C798.915 635.879 800.755 635.494 802.459 634.746C804.163 633.999 805.693 632.906 806.953 631.538L806.842 631.575Z" fill="#F8FBFC"/>
<path opacity="0.5" d="M803.802 615.591C803.833 615.646 803.876 615.692 803.928 615.727C803.98 615.762 804.04 615.785 804.102 615.794C804.164 615.802 804.227 615.796 804.287 615.776C804.346 615.756 804.4 615.722 804.445 615.678C804.489 615.633 804.523 615.579 804.543 615.52C804.563 615.46 804.569 615.397 804.561 615.335C804.552 615.272 804.529 615.213 804.494 615.161C804.459 615.109 804.413 615.066 804.358 615.035C803.387 614.057 802.232 613.281 800.959 612.752C799.686 612.224 798.322 611.954 796.944 611.957C795.115 611.962 793.319 612.443 791.733 613.353C790.147 614.264 788.825 615.572 787.898 617.149C787.828 617.224 787.789 617.323 787.789 617.427C787.789 617.53 787.828 617.629 787.898 617.705C787.951 617.728 788.008 617.74 788.065 617.74C788.123 617.74 788.179 617.728 788.232 617.705C788.973 616.42 790 615.323 791.234 614.5C792.468 613.677 793.875 613.15 795.345 612.96C796.816 612.77 798.311 612.922 799.713 613.404C801.116 613.886 802.388 614.685 803.431 615.739L803.802 615.591Z" fill="#F8FBFC"/>
</g>
<path d="M177.071 733.374C176.367 731.705 172.289 731.037 168.285 730.778C153.049 702.519 114.457 701.517 114.457 701.517C114.457 701.517 111.38 713.644 127.803 733.707C144.226 753.771 144.151 793.6 144.151 793.6C150.66 789.782 156.537 784.978 161.575 779.359C168.989 771.312 176.07 759.482 172.993 743.869C175.44 739.789 177.849 735.117 177.071 733.374Z" fill="#FAD1B1"/>
<path d="M548.75 759.556L545.043 745.686C544.561 743.988 543.49 742.518 542.023 741.54C540.555 740.561 538.787 740.137 537.035 740.346L488.842 746.502C487.825 746.641 486.848 746.99 485.973 747.527C485.097 748.064 484.343 748.777 483.758 749.621C483.172 750.464 482.768 751.42 482.571 752.428C482.375 753.436 482.389 754.474 482.614 755.476L486.321 770.496C486.77 772.271 487.858 773.817 489.378 774.837C490.897 775.857 492.74 776.279 494.551 776.022L542.967 768.79C543.972 768.601 544.928 768.205 545.773 767.628C546.618 767.052 547.335 766.306 547.878 765.439C548.421 764.571 548.779 763.601 548.929 762.589C549.079 761.576 549.018 760.544 548.75 759.556Z" fill="#F9E1DF"/>
<path d="M636.165 704.336L647.286 713.348C648.67 714.436 650.396 714.997 652.155 714.929C653.914 714.861 655.592 714.169 656.888 712.977L692.328 679.822C693.073 679.112 693.662 678.255 694.057 677.305C694.452 676.354 694.646 675.332 694.625 674.303C694.604 673.274 694.369 672.261 693.935 671.328C693.502 670.394 692.879 669.562 692.106 668.882L680.428 658.832C679.029 657.642 677.239 657.014 675.404 657.068C673.568 657.123 671.818 657.857 670.493 659.129L635.609 693.47C634.896 694.202 634.343 695.073 633.982 696.028C633.622 696.984 633.463 698.004 633.515 699.024C633.568 700.044 633.83 701.043 634.286 701.957C634.742 702.871 635.381 703.681 636.165 704.336Z" fill="#F9E1DF"/>
</svg>
