<svg width="476" height="51" viewBox="0 0 476 51" fill="none" xmlns="http://www.w3.org/2000/svg">
<path d="M415.533 25.4509C415.533 20.4343 414.045 15.5303 411.256 11.359C408.467 7.18783 404.503 3.93676 399.865 2.01697C395.227 0.0971687 390.124 -0.405134 385.2 0.573571C380.276 1.55227 375.754 3.96803 372.204 7.51535C368.654 11.0627 366.237 15.5822 365.258 20.5025C364.278 25.4228 364.781 30.5228 366.702 35.1576C368.623 39.7924 371.876 43.7538 376.05 46.541C380.224 49.3281 385.132 50.8157 390.152 50.8157C396.883 50.8157 403.339 48.1433 408.099 43.3865C412.859 38.6297 415.533 32.1781 415.533 25.4509Z" fill="#FFCE45"/>
<path d="M415.535 25.4509C415.535 18.7238 412.86 12.2722 408.1 7.51535C403.34 2.75853 396.884 0.0861816 390.153 0.0861816V50.8157C396.884 50.8157 403.34 48.1433 408.1 43.3865C412.86 38.6297 415.535 32.1781 415.535 25.4509Z" fill="#E1BC53"/>
<path d="M393.867 31.8445H386.435V39.9881H393.867V31.8445Z" fill="#D9A78C"/>
<path d="M385.535 36.6995C385.535 36.6995 378.467 37.732 377.422 38.8182C376.526 39.7641 374.624 48.8238 374.188 50.8142H390.152V37.0874L385.535 36.6995Z" fill="#C0D0D8"/>
<path d="M394.764 36.6995C394.764 36.6995 401.833 37.732 402.875 38.8182C403.771 39.7641 405.673 48.8238 406.112 50.8142H390.145V37.0874L394.764 36.6995Z" fill="#A7BDC8"/>
<path d="M389.675 38.426L388.735 48.0975L390.153 50.7742L391.575 48.0975L390.634 38.426H389.675Z" fill="#14A89A"/>
<path d="M391.417 38.3495L390.148 39.6178L388.879 38.3495L390.148 37.0813L391.417 38.3495Z" fill="#14A89A"/>
<path d="M390.146 8.53931C393.756 8.53931 399.462 10.5894 399.462 20.1981C399.462 25.7456 397.653 29.3772 396.864 30.3828C396.139 31.3079 392.06 33.2804 390.146 33.2804V8.53931Z" fill="#EAC0A7"/>
<path d="M401.264 22.486C401.425 20.9521 400.693 19.5884 399.63 19.4452C398.567 19.3019 397.579 20.424 397.421 21.9608C397.262 23.4976 397.991 24.8583 399.054 25.0016C400.117 25.1448 401.105 24.0228 401.264 22.486Z" fill="#EAC0A7"/>
<path d="M390.154 8.53931C386.547 8.53931 380.837 10.5894 380.837 20.1981C380.837 25.7456 382.647 29.3772 383.435 30.3828C384.161 31.3079 388.24 33.2804 390.154 33.2804V8.53931Z" fill="#F2D7BC"/>
<path d="M379.038 22.486C378.88 20.9521 379.612 19.5884 380.672 19.4452C381.732 19.3019 382.726 20.424 382.884 21.9608C383.043 23.4976 382.311 24.8583 381.248 25.0016C380.185 25.1448 379.197 24.0228 379.038 22.486Z" fill="#F2D7BC"/>
<path d="M390.153 37.0791L386.379 35.5632L385.45 36.5062L387.328 40.666L390.153 37.0791Z" fill="white"/>
<path d="M390.146 37.0791L393.92 35.5632L394.849 36.5062L392.971 40.666L390.146 37.0791Z" fill="white"/>
<path d="M386.682 46.6799H381.973V47.7184H386.682V46.6799Z" fill="#7F97A3"/>
<path d="M398.33 46.6804H393.621V47.7189H398.33V46.6804Z" fill="#7F97A3"/>
<path d="M382.088 22.6567H382.73C382.73 22.6567 382.339 20.1531 383.486 19.3474V17.73C383.486 17.73 383.044 17.6793 383.044 15.7754C383.044 13.8716 385.313 12.5168 390.163 12.5168V6.67993C390.163 6.67993 380.562 7.71243 380.562 14.6743V19.4488C380.984 19.3872 381.414 19.4944 381.757 19.7473C382.3 20.1978 382.088 22.6567 382.088 22.6567Z" fill="#8B5F3C"/>
<path d="M398.138 22.6567H397.496C397.496 22.6567 397.887 20.1531 396.74 19.3474V17.73C396.74 17.73 397.182 17.6793 397.182 15.7754C397.182 13.8716 394.913 12.5168 390.063 12.5168V6.67993C390.063 6.67993 399.652 7.71243 399.652 14.6683V19.4429C399.23 19.3812 398.801 19.4885 398.457 19.7413C397.917 20.1979 398.138 22.6567 398.138 22.6567Z" fill="#8B5F3C"/>
<path d="M390.155 29.1396C391.84 29.1396 393.201 28.5845 393.201 27.8982H387.11C387.11 28.5845 388.474 29.1396 390.155 29.1396Z" fill="white"/>
<path d="M294.116 25.3648C294.116 20.3481 292.627 15.4441 289.838 11.2729C287.049 7.10165 283.085 3.85058 278.447 1.93078C273.81 0.0109871 268.706 -0.491315 263.783 0.487389C258.859 1.46609 254.336 3.88185 250.787 7.42917C247.237 10.9765 244.82 15.4961 243.84 20.4163C242.861 25.3366 243.364 30.4366 245.285 35.0714C247.206 39.7062 250.459 43.6677 254.633 46.4548C258.807 49.2419 263.714 50.7295 268.734 50.7295C275.466 50.7295 281.922 48.0572 286.682 43.3003C291.442 38.5435 294.116 32.0919 294.116 25.3648Z" fill="#5A4980"/>
<path d="M294.121 25.3647C294.121 18.6376 291.447 12.186 286.687 7.42916C281.927 2.67235 275.471 0 268.739 0V50.7295C275.471 50.7295 281.927 48.0571 286.687 43.3003C291.447 38.5435 294.121 32.0919 294.121 25.3647Z" fill="#534378"/>
<path d="M273.361 36.6133C273.361 36.6133 280.429 37.6458 281.471 38.732C282.367 39.6779 284.269 48.7376 284.708 50.728H268.735V37.8636L273.361 36.6133Z" fill="#2A2D34"/>
<path d="M272.457 31.9219H265.024V40.0655H272.457V31.9219Z" fill="#D9A78C"/>
<path d="M268.735 8.44531C272.346 8.44531 278.052 10.4954 278.052 20.1041C278.052 25.6486 276.242 29.2832 275.454 30.2888C274.728 31.2139 270.649 33.1864 268.735 33.1864V8.44531Z" fill="#EAC0A7"/>
<path d="M279.854 22.3932C280.015 20.8594 279.284 19.4956 278.221 19.3524C277.158 19.2092 276.169 20.3312 276.011 21.868C275.853 23.4048 276.581 24.7655 277.644 24.9088C278.707 25.052 279.696 23.93 279.854 22.3932Z" fill="#EAC0A7"/>
<path d="M268.739 8.44531C265.132 8.44531 259.423 10.4954 259.423 20.1041C259.423 25.6486 261.232 29.2832 262.021 30.2888C262.746 31.2139 266.825 33.1864 268.739 33.1864V8.44531Z" fill="#F2D7BC"/>
<path d="M257.629 22.3932C257.47 20.8594 258.202 19.4956 259.262 19.3524C260.322 19.2092 261.317 20.3312 261.475 21.868C261.633 23.4048 260.901 24.7655 259.838 24.9088C258.775 25.052 257.787 23.93 257.629 22.3932Z" fill="#F2D7BC"/>
<path d="M263.88 10.4576C263.88 10.4576 260.729 14.1967 261.936 17.6821C262.136 21.8359 261.736 23.2444 260.395 24.3813C260.729 20.3618 260.326 19.01 258.851 19.4904C258.248 16.3392 259.55 7.85547 263.88 10.4576Z" fill="#690102"/>
<path d="M273.583 10.4576C273.583 10.4576 276.733 14.1967 275.527 17.6821C275.327 21.8359 275.727 23.2444 277.071 24.3813C276.733 20.3618 277.136 19.01 278.612 19.4904C279.215 16.3392 277.913 7.85547 273.583 10.4576Z" fill="#690102"/>
<path d="M264.125 36.6133C264.125 36.6133 257.057 37.6458 256.012 38.732C255.116 39.6779 253.214 48.7376 252.778 50.728H268.736V37.8636L264.125 36.6133Z" fill="#2F343A"/>
<path d="M273.446 36.418L268.743 37.3818L264.04 36.418L268.743 50.7207" fill="#B9C7D0"/>
<path d="M268.35 39.3125L267.583 48.9869L268.742 50.7237L269.9 48.9869L269.133 39.3125H268.35Z" fill="#129E95"/>
<path d="M265.356 42.5948L261.614 37.0504C262.681 36.6709 263.781 36.3912 264.899 36.2148L268.739 50.7265L263.343 42.9947L265.356 42.5948Z" fill="#3A404C"/>
<path d="M272.134 42.5948L275.875 37.0504C274.808 36.6709 273.709 36.3912 272.59 36.2148L268.735 50.7265L274.14 42.9947L272.134 42.5948Z" fill="#3A404C"/>
<path d="M270.01 38.6977L268.735 40.0017L267.466 38.6977L268.735 37.3906L270.01 38.6977Z" fill="#129E95"/>
<path d="M268.735 37.3795L272.51 35.4727L274.457 36.6066L270.417 39.8324L268.735 37.3795Z" fill="white"/>
<path d="M268.743 37.3795L264.971 35.4727L263.024 36.6066L266.996 39.8324L268.743 37.3795Z" fill="white"/>
<path d="M277.648 12.0967C276.155 6.00025 267.119 1.21079 260.761 10.7808C260.352 12.6697 262.129 13.556 262.129 13.556C262.129 13.556 263.323 10.7808 268.758 12.0639C271.466 11.4671 274.106 11.0314 275.327 13.5351C276.549 16.0387 277.648 12.0967 277.648 12.0967Z" fill="#690102"/>
<path d="M274.083 29.0712C272.217 29.0712 270.885 27.5583 268.744 27.5583C266.603 27.5583 265.272 29.0712 263.405 29.0712C261.36 29.0712 260.073 25.55 259.685 24.3146C260.213 27.8686 261.419 30.1962 262.026 30.9691C262.751 31.8941 266.83 33.8636 268.744 33.8636C270.658 33.8636 274.737 31.8941 275.463 30.9691C276.06 30.1962 277.279 27.8656 277.807 24.3086C277.419 25.541 276.132 29.0712 274.083 29.0712Z" fill="#690102"/>
<path d="M268.74 30.7677C269.37 30.7677 269.881 30.5021 269.881 30.1709H267.603C267.609 30.5021 268.119 30.7677 268.74 30.7677Z" fill="white"/>
<path d="M475.99 25.5679C475.99 20.5512 474.501 15.6472 471.712 11.476C468.923 7.30477 464.959 4.05371 460.321 2.13392C455.684 0.214119 450.58 -0.288193 445.657 0.690512C440.733 1.66922 436.21 4.08497 432.661 7.6323C429.111 11.1796 426.694 15.6992 425.714 20.6195C424.735 25.5397 425.238 30.6397 427.159 35.2745C429.08 39.9093 432.333 43.8708 436.507 46.6579C440.681 49.445 445.588 50.9326 450.608 50.9326C457.34 50.9326 463.796 48.2603 468.556 43.5035C473.316 38.7467 475.99 32.295 475.99 25.5679Z" fill="#6C9625"/>
<path d="M475.991 25.5679C475.991 18.8407 473.317 12.3891 468.557 7.63228C463.797 2.87547 457.341 0.203125 450.609 0.203125V50.9326C457.341 50.9326 463.797 48.2603 468.557 43.5034C473.317 38.7466 475.991 32.295 475.991 25.5679Z" fill="#678E23"/>
<path d="M455.268 36.8164C455.268 36.8164 462.336 37.8489 463.378 38.9351C464.274 39.8811 466.176 48.9408 466.615 50.9311H450.648V37.2043L455.268 36.8164Z" fill="#2D404E"/>
<path d="M454.371 31.9653H446.938V40.1089H454.371V31.9653Z" fill="#D9A78C"/>
<path d="M450.649 8.66016C454.259 8.66016 459.966 10.7102 459.966 20.319C459.966 25.8634 458.156 29.498 457.368 30.5037C456.642 31.4287 452.563 33.4012 450.649 33.4012V8.66016Z" fill="#EAC0A7"/>
<path d="M461.767 22.6078C461.937 21.065 461.197 19.7102 460.146 19.5729C459.095 19.4357 458.094 20.5517 457.936 22.0885C457.778 23.6253 458.506 24.9861 459.569 25.1293C460.632 25.2725 461.609 24.1446 461.767 22.6078Z" fill="#EAC0A7"/>
<path d="M450.657 8.66016C447.05 8.66016 441.341 10.7102 441.341 20.319C441.341 25.8634 443.15 29.498 443.938 30.5037C444.664 31.4287 448.743 33.4012 450.657 33.4012V8.66016Z" fill="#F2D7BC"/>
<path d="M439.537 22.6078C439.379 21.074 440.11 19.7102 441.174 19.567C442.237 19.4238 443.225 20.5458 443.383 22.0826C443.541 23.6194 442.81 24.9801 441.747 25.1234C440.684 25.2666 439.698 24.1446 439.537 22.6078Z" fill="#F2D7BC"/>
<path d="M445.813 10.6724C445.813 10.6724 442.66 14.4115 443.866 17.8969C444.069 22.0508 443.666 23.4593 442.325 24.5962C442.66 20.5766 442.257 19.2248 440.782 19.7053C440.163 16.5541 441.465 8.07032 445.813 10.6724Z" fill="#E6E7E8"/>
<path d="M455.496 10.6724C455.496 10.6724 458.649 14.4115 457.44 17.8969C457.24 22.0508 457.643 23.4593 458.984 24.5962C458.649 20.5766 459.05 19.2248 460.525 19.7053C461.128 16.5541 459.826 8.07032 455.496 10.6724Z" fill="#E6E7E8"/>
<path d="M446.039 36.8164C446.039 36.8164 438.97 37.8489 437.925 38.9351C437.03 39.8811 435.127 48.9408 434.691 50.9311H450.655V37.2043L446.039 36.8164Z" fill="#344650"/>
<path d="M455.363 36.6294L450.657 37.2023L445.954 36.6294L450.657 50.9321" fill="#B9C7D0"/>
<path d="M450.179 38.5859L449.238 48.2604L450.66 50.9341L452.078 48.2604L451.137 38.5859H450.179Z" fill="#B63C40"/>
<path d="M447.269 42.8058L443.527 37.2613C444.594 36.8818 445.694 36.6021 446.812 36.4258L450.664 50.9374L445.262 43.2056L447.269 42.8058Z" fill="#222B30"/>
<path d="M454.041 42.8055L457.783 37.2611C456.716 36.8816 455.617 36.6019 454.498 36.4255L450.649 50.9372L456.054 43.2054L454.041 42.8055Z" fill="#222B30"/>
<path d="M451.927 38.5058L450.658 39.774L449.398 38.5058L450.664 37.2375L451.927 38.5058Z" fill="#B63C40"/>
<path d="M450.657 37.2039L446.885 35.688L445.954 36.631L447.832 40.7938L450.657 37.2039Z" fill="white"/>
<path d="M450.649 37.2039L454.424 35.688L455.355 36.631L453.474 40.7938L450.649 37.2039Z" fill="white"/>
<path d="M450.7 27.4648V28.372L447.943 28.9658H447.367L450.7 27.4648Z" fill="#5C2F12"/>
<path d="M450.668 27.4648V28.372L453.424 28.9658H454L450.668 27.4648Z" fill="#5C2F12"/>
<path d="M354.397 25.451C354.397 20.4343 352.909 15.5302 350.12 11.359C347.331 7.18782 343.367 3.93676 338.729 2.01697C334.091 0.0971688 328.987 -0.405134 324.064 0.573571C319.14 1.55228 314.618 3.96804 311.068 7.51537C307.518 11.0627 305.101 15.5822 304.122 20.5025C303.142 25.4228 303.645 30.5228 305.566 35.1576C307.487 39.7924 310.74 43.7539 314.914 46.541C319.088 49.3281 323.995 50.8157 329.016 50.8157C335.747 50.8157 342.203 48.1433 346.963 43.3865C351.723 38.6297 354.397 32.1781 354.397 25.451Z" fill="#B5332B"/>
<path d="M354.402 25.4509C354.402 18.7238 351.728 12.2722 346.968 7.51535C342.208 2.75854 335.752 0.0861816 329.021 0.0861816V50.8157C335.752 50.8157 342.208 48.1433 346.968 43.3865C351.728 38.6297 354.402 32.1781 354.402 25.4509Z" fill="#A22D26"/>
<path d="M329.078 44.1175H319.997C319.997 44.1175 315.816 40.0681 317.907 34.0671C319.997 28.0661 321.818 25.6908 321.959 19.269H329.083L329.078 44.1175Z" fill="#870B16"/>
<path d="M328.841 44.118H337.919C337.919 44.118 342.1 40.0686 340.009 34.0676C337.919 28.0666 336.098 25.6913 335.957 19.2695H328.841V44.118Z" fill="#870B16"/>
<path d="M340.187 16.5392C340.186 14.3438 339.534 12.1979 338.313 10.3728C337.092 8.54764 335.357 7.12529 333.327 6.28555C331.298 5.44581 329.064 5.22641 326.91 5.65507C324.755 6.08374 322.776 7.14123 321.223 8.69382C319.669 10.2464 318.612 12.2244 318.183 14.3776C317.755 16.5309 317.975 18.7628 318.816 20.791C319.657 22.8192 321.081 24.5528 322.907 25.7724C324.734 26.992 326.882 27.643 329.078 27.643C330.537 27.643 331.982 27.3558 333.33 26.7977C334.678 26.2397 335.903 25.4217 336.934 24.3906C337.966 23.3595 338.784 22.1354 339.342 20.7882C339.9 19.4411 340.187 17.9973 340.187 16.5392Z" fill="#870B16"/>
<path d="M332.796 40.3184L329.031 50.8671L325.361 40.3184V32.1719H332.796V40.3184Z" fill="#EAC8AD"/>
<path d="M329.08 9.59375C325.47 9.59375 319.763 11.6438 319.763 21.2526C319.763 26.797 321.928 29.4141 322.716 30.4197C323.442 31.3448 327.166 34.3318 329.08 34.3318V9.59375Z" fill="#F2D7BC"/>
<path d="M317.976 23.5448C317.818 22.011 318.549 20.6473 319.61 20.501C320.67 20.3548 321.661 21.4828 321.822 23.0196C321.983 24.5564 321.249 25.9142 320.186 26.0604C319.123 26.2066 318.125 25.0786 317.976 23.5448Z" fill="#F2D7BC"/>
<path d="M329.048 9.59375C332.659 9.59375 338.365 11.6438 338.365 21.2526C338.365 26.797 336.203 29.4141 335.412 30.4197C334.686 31.3448 330.962 34.3318 329.048 34.3318V9.59375Z" fill="#EAC0A7"/>
<path d="M340.186 23.5448C340.347 22.011 339.613 20.6473 338.553 20.501C337.493 20.3548 336.501 21.4828 336.34 23.0196C336.179 24.5564 336.913 25.9142 337.976 26.0604C339.039 26.2066 340.028 25.0786 340.186 23.5448Z" fill="#EAC0A7"/>
<path d="M328.958 7.26902C328.776 7.24496 328.594 7.232 328.411 7.23022C328.411 7.23022 322.314 7.68679 320.618 15.6215C319.802 16.2183 318.312 18.6056 320.28 21.2495C320.549 19.0114 321.37 17.391 322.788 16.7733C325.309 15.6782 326.345 16.6957 329.262 14.4577C330.967 13.1506 331.579 10.5217 331.203 9.0535C331.036 8.57445 330.736 8.15259 330.339 7.83677C329.941 7.52095 329.462 7.3241 328.958 7.26902Z" fill="#870B16"/>
<path d="M330.812 9.47405C330.812 9.47405 328.617 17.6654 338.208 21.0941C340.504 13.5951 336.306 8.70416 330.812 9.47405Z" fill="#870B16"/>
<path d="M319.892 25.121L319.294 25.7183L319.892 26.3153L320.49 25.718L319.892 25.121Z" fill="#FFF200"/>
<path d="M338.396 25.121L337.798 25.7183L338.396 26.3153L338.993 25.718L338.396 25.121Z" fill="#FFF200"/>
<path d="M329.022 50.8646V40.7188C329.022 40.7188 326.251 40.0294 325.639 37.7854C325.46 37.1526 325.36 36.5001 325.341 35.8428C325.341 35.8428 319.279 37.8869 317.926 40.0026C316.797 43.3537 316.49 50.8646 316.49 50.8646H329.022Z" fill="#F8A41D"/>
<path d="M329.025 50.8656V40.7197C329.025 40.7197 331.799 40.0304 332.411 37.7864C332.586 37.1531 332.681 36.5006 332.695 35.8438C332.695 35.8438 338.76 37.8878 340.112 40.0036C341.238 43.3547 341.549 50.8656 341.549 50.8656H329.025Z" fill="#F98E1C"/>
<path d="M329.076 30.9502C330.482 30.9502 331.623 30.0849 331.623 29.0195H326.529C326.529 30.0908 327.669 30.9502 329.076 30.9502Z" fill="white"/>
<path d="M233.623 25.3921C233.623 20.3754 232.134 15.4714 229.345 11.3002C226.557 7.12899 222.592 3.87793 217.955 1.95813C213.317 0.0383338 208.213 -0.463973 203.29 0.514732C198.366 1.49344 193.843 3.90919 190.294 7.45652C186.744 11.0038 184.327 15.5234 183.347 20.4437C182.368 25.364 182.871 30.464 184.792 35.0988C186.713 39.7336 189.966 43.695 194.14 46.4821C198.314 49.2692 203.221 50.7568 208.241 50.7568C214.973 50.7568 221.429 48.0845 226.189 43.3277C230.949 38.5709 233.623 32.1192 233.623 25.3921Z" fill="#B5332B"/>
<path d="M233.624 25.3921C233.624 18.6649 230.95 12.2133 226.19 7.45651C221.43 2.69969 214.974 0.0273438 208.242 0.0273438V50.7568C214.974 50.7568 221.43 48.0845 226.19 43.3277C230.95 38.5709 233.624 32.1192 233.624 25.3921Z" fill="#A22D26"/>
<path d="M211.957 31.7935H204.524V39.937H211.957V31.7935Z" fill="#D9A78C"/>
<path d="M212.859 36.6484C212.859 36.6484 219.927 37.6809 220.969 38.7671C221.865 39.7131 223.77 48.7758 224.206 50.7632H208.242V37.0364L212.859 36.6484Z" fill="#C0D4DF"/>
<path d="M208.243 8.48828C211.85 8.48828 217.56 10.5413 217.56 20.1471C217.56 25.6945 215.75 29.3291 214.959 30.3348C214.233 31.2599 210.154 33.2293 208.243 33.2293V8.48828Z" fill="#EAC0A7"/>
<path d="M219.356 22.4384C219.514 20.9016 218.783 19.5408 217.72 19.3946C216.657 19.2484 215.668 20.3764 215.51 21.9102C215.352 23.444 216.083 24.8077 217.143 24.9539C218.203 25.1002 219.195 23.9722 219.356 22.4384Z" fill="#EAC0A7"/>
<path d="M208.247 8.48828C204.637 8.48828 198.931 10.5413 198.931 20.1471C198.931 25.6945 200.74 29.3291 201.529 30.3348C202.254 31.2599 206.333 33.2293 208.247 33.2293V8.48828Z" fill="#F2D7BC"/>
<path d="M197.128 22.4384C196.97 20.9016 197.701 19.5408 198.764 19.3946C199.827 19.2484 200.816 20.3764 200.974 21.9102C201.132 23.444 200.401 24.8077 199.341 24.9539C198.281 25.1002 197.289 23.9722 197.128 22.4384Z" fill="#F2D7BC"/>
<path d="M203.625 36.6484C203.625 36.6484 196.557 37.6809 195.515 38.7671C194.604 39.7131 192.717 48.7758 192.278 50.7632H208.244V37.0364L203.625 36.6484Z" fill="#CFE1EB"/>
<path d="M208.247 37.035L204.472 35.5161L203.544 36.4591L205.419 40.6219L208.247 37.035Z" fill="white"/>
<path d="M208.243 37.035L212.015 35.5161L212.946 36.4591L211.068 40.6219L208.243 37.035Z" fill="white"/>
<path d="M217.767 19.6209C217.767 19.6209 220.822 5.70312 208.184 5.70312C195.482 5.70312 198.674 19.2389 198.674 19.2389C198.674 19.2389 200.406 18.2363 200.406 22.6856H200.725C201.1 20.8214 201.367 18.9373 201.525 17.0427C206.005 17.0427 209.946 16.4697 213.267 13.7214C215.154 13.7214 215.411 16.0698 215.411 17.8663L214.584 18.1856C214.584 18.1856 215.384 19.7522 215.441 22.6885H216.014C216.014 22.6885 215.93 17.7857 217.767 19.6209Z" fill="#8B5F3C"/>
<path d="M208.245 29.6086C209.926 29.6086 211.291 29.0505 211.291 28.3672H205.199C205.199 29.0505 206.561 29.6086 208.245 29.6086Z" fill="white"/>
<path d="M173.169 25.3648C173.169 20.3481 171.681 15.4441 168.892 11.2729C166.103 7.10165 162.139 3.85058 157.501 1.93079C152.863 0.0109901 147.759 -0.491316 142.836 0.487388C137.912 1.46609 133.39 3.88185 129.84 7.42917C126.29 10.9765 123.873 15.4961 122.893 20.4163C121.914 25.3366 122.417 30.4366 124.338 35.0714C126.259 39.7062 129.512 43.6677 133.686 46.4548C137.86 49.2419 142.767 50.7295 147.787 50.7295C154.519 50.7295 160.975 48.0572 165.735 43.3003C170.495 38.5435 173.169 32.0919 173.169 25.3648Z" fill="#5A4980"/>
<path d="M173.171 25.3652C173.171 18.6381 170.497 12.1865 165.737 7.42965C160.977 2.67284 154.521 0.000488281 147.79 0.000488281V50.73C154.521 50.73 160.977 48.0576 165.737 43.3008C170.497 38.544 173.171 32.0924 173.171 25.3652Z" fill="#534378"/>
<path d="M138.028 20.8447C138.028 25.0941 135.692 25.2045 135.86 28.0065C136.045 31.1249 138.481 31.1309 138.481 33.2735C138.481 35.416 136.239 37.8152 138.225 40.1219H147.807V14.1484L138.028 20.8447Z" fill="#461811"/>
<path d="M157.571 20.8447C157.571 25.0941 159.903 25.2045 159.736 28.0065C159.554 31.1249 157.117 31.1309 157.117 33.2735C157.117 35.416 159.357 37.8152 157.371 40.1219H147.777V14.1484L157.571 20.8447Z" fill="#461811"/>
<path d="M158.956 16.4544C158.957 14.2582 158.306 12.1111 157.085 10.2847C155.865 8.45829 154.13 7.03462 152.099 6.19374C150.069 5.35287 147.835 5.13255 145.679 5.56065C143.524 5.98876 141.544 7.04606 139.989 8.59883C138.435 10.1516 137.377 12.1301 136.948 14.2841C136.519 16.4381 136.739 18.6709 137.579 20.7C138.42 22.7291 139.844 24.4635 141.672 25.6837C143.499 26.9039 145.647 27.5552 147.845 27.5552C150.791 27.5552 153.617 26.3858 155.701 24.3041C157.785 22.2224 158.956 19.3988 158.956 16.4544Z" fill="#461811"/>
<path d="M151.565 40.2247L147.802 50.7734L144.132 40.2247V32.0781H151.565V40.2247Z" fill="#EAC8AD"/>
<path d="M147.85 9.50391C144.243 9.50391 138.531 11.554 138.531 21.1627C138.531 26.7072 140.693 29.3242 141.481 30.3299C142.207 31.2549 145.933 34.245 147.844 34.245L147.85 9.50391Z" fill="#F2D7BC"/>
<path d="M136.736 23.4515C136.578 21.9177 137.309 20.554 138.372 20.4108C139.435 20.2675 140.424 21.3895 140.582 22.9263C140.74 24.4631 140.009 25.8209 138.949 25.9671C137.889 26.1133 136.897 24.9883 136.736 23.4515Z" fill="#F2D7BC"/>
<path d="M147.82 9.50391C151.427 9.50391 157.136 11.554 157.136 21.1627C157.136 26.7072 154.972 29.3242 154.183 30.3299C153.458 31.2549 149.734 34.245 147.82 34.245V9.50391Z" fill="#EAC0A7"/>
<path d="M158.957 23.4515C159.115 21.9177 158.384 20.554 157.321 20.4108C156.258 20.2675 155.269 21.3895 155.111 22.9263C154.953 24.4631 155.684 25.8209 156.744 25.9671C157.804 26.1133 158.796 24.9883 158.957 23.4515Z" fill="#EAC0A7"/>
<path d="M147.8 50.7787V40.6328C147.8 40.6328 145.026 39.9465 144.414 37.6995C144.234 37.0668 144.133 36.4143 144.115 35.7568C144.115 35.7568 138.05 37.8039 136.698 39.9167C135.572 43.2678 135.261 50.7787 135.261 50.7787H147.8Z" fill="#EAC8AD"/>
<path d="M147.804 50.7797V40.6338C147.804 40.6338 150.575 39.9475 151.187 37.7005C151.366 37.0676 151.467 36.4151 151.486 35.7578C151.486 35.7578 157.548 37.8049 158.9 39.9176C160.029 43.2688 160.328 50.7797 160.328 50.7797H147.804Z" fill="#EAC8AD"/>
<path d="M147.847 30.8652C149.257 30.8652 150.398 30.0028 150.398 28.9375H145.3C145.3 30.0028 146.441 30.8652 147.847 30.8652Z" fill="white"/>
<path d="M147.806 46.8146C147.806 46.8146 145.136 40.1392 144.136 35.7734C143.123 36.1644 142.296 36.409 141.663 36.7343C138.662 43.0546 138.531 50.7834 138.531 50.7834H147.788L147.806 46.8146Z" fill="#EB1A3A"/>
<path d="M147.839 46.8146C147.839 46.8146 150.509 40.1392 151.509 35.7734C152.522 36.1644 153.349 36.409 153.982 36.7343C156.968 43.0516 157.111 50.7953 157.111 50.7953H147.839V46.8146Z" fill="#C5132D"/>
<path d="M147.324 6.74609C140.728 6.74609 138.724 12.5173 138.724 15.1761C136.335 18.5004 138.939 21.4726 140.785 22.514V20.8817C140.785 18.7332 142.83 16.7428 145.9 17.074C148.65 17.3724 150.379 15.8177 151.848 13.1768C153.655 9.62872 151.397 6.74609 147.324 6.74609Z" fill="#461811"/>
<path d="M151.562 12.0917C151.562 12.0917 153.103 18.3404 157.322 20.4173C158.075 14.7953 158.517 15.98 157.322 13.0198C156.128 10.0596 151.562 7.86328 151.562 7.86328V12.0917Z" fill="#461811"/>
<path d="M86.9989 50.7568C101.017 50.7568 112.381 39.4006 112.381 25.3921C112.381 11.3835 101.017 0.0273438 86.9989 0.0273438C72.981 0.0273438 61.6172 11.3835 61.6172 25.3921C61.6172 39.4006 72.981 50.7568 86.9989 50.7568Z" fill="#6C9625"/>
<path d="M112.37 25.3921C112.37 18.6649 109.696 12.2133 104.936 7.45651C100.176 2.69969 93.7199 0.0273438 86.9883 0.0273438V50.7568C93.7199 50.7568 100.176 48.0845 104.936 43.3277C109.696 38.5709 112.37 32.1192 112.37 25.3921Z" fill="#678E23"/>
<path d="M97.8928 26.2298C97.8928 32.2398 93.0165 29.1214 87.0025 29.1214C80.9886 29.1214 76.1123 32.2398 76.1123 26.2298V16.3823C76.1147 13.4986 77.2623 10.7336 79.303 8.69479C81.3438 6.65595 84.1109 5.50988 86.9966 5.5083C89.8849 5.5083 92.6548 6.6549 94.6971 8.69585C96.7395 10.7368 97.8868 13.5049 97.8868 16.3913L97.8928 26.2298Z" fill="#461811"/>
<path d="M98.1618 16.4797C98.1618 14.2842 97.5103 12.138 96.2897 10.3124C95.0691 8.48692 93.3343 7.0641 91.3045 6.22391C89.2747 5.38372 87.0412 5.16388 84.8864 5.59221C82.7317 6.02054 80.7524 7.07779 79.1988 8.63026C77.6453 10.1827 76.5874 12.1607 76.1588 14.3141C75.7301 16.4674 75.9501 18.6994 76.7909 20.7278C77.6316 22.7562 79.0554 24.4899 80.8821 25.7097C82.7089 26.9295 84.8565 27.5805 87.0535 27.5805C88.5124 27.5809 89.9571 27.294 91.305 26.7363C92.6528 26.1786 93.8776 25.3609 94.9091 24.33C95.9407 23.2992 96.7589 22.0753 97.317 20.7283C97.8751 19.3813 98.1622 17.9376 98.1618 16.4797Z" fill="#461811"/>
<path d="M90.7713 40.2529L87.0058 50.8047L83.3359 40.2529V32.1094H90.7713V40.2529Z" fill="#EAC8AD"/>
<path d="M87.0549 9.53125C83.4447 9.53125 77.7383 11.5843 77.7383 21.1901C77.7383 26.7375 79.9032 29.3545 80.6915 30.3572C81.4171 31.2823 85.1408 34.2723 87.0549 34.2723V9.53125Z" fill="#F2D7BC"/>
<path d="M75.9519 23.4823C75.7906 21.9455 76.5252 20.5848 77.5853 20.4385C78.6453 20.2923 79.6367 21.4203 79.798 22.9541C79.9592 24.4879 79.2246 25.8517 78.1616 25.9979C77.0985 26.1441 76.1012 25.0161 75.9519 23.4823Z" fill="#F2D7BC"/>
<path d="M87.0234 9.53125C90.6336 9.53125 96.34 11.5843 96.34 21.1901C96.34 26.7375 94.1781 29.3545 93.3868 30.3572C92.6612 31.2823 88.9375 34.2723 87.0234 34.2723V9.53125Z" fill="#EAC0A7"/>
<path d="M98.1612 23.4823C98.3195 21.9455 97.5879 20.5848 96.5279 20.4385C95.4678 20.2923 94.4764 21.4203 94.3152 22.9541C94.1539 24.4879 94.8885 25.8517 95.9545 25.9889C97.0206 26.1262 98.003 25.0161 98.1612 23.4823Z" fill="#EAC0A7"/>
<path d="M86.9974 50.8022V40.6563C86.9974 40.6563 84.2264 39.9699 83.6142 37.7259C83.4355 37.092 83.3352 36.4386 83.3156 35.7803C83.3156 35.7803 77.2538 37.8274 75.8982 39.9401C74.7724 43.2912 74.4648 50.8022 74.4648 50.8022H86.9974Z" fill="#EAC8AD"/>
<path d="M87 50.8031V40.6572C87 40.6572 89.7741 39.9709 90.3862 37.7269C90.561 37.0926 90.6563 36.439 90.6699 35.7812C90.6699 35.7812 96.7346 37.8283 98.0873 39.9411C99.2131 43.2922 99.5236 50.8031 99.5236 50.8031H87Z" fill="#EAC8AD"/>
<path d="M87.051 30.8887C88.4575 30.8887 89.5982 30.0263 89.5982 28.9609H84.5039C84.5039 30.0263 85.6446 30.8887 87.051 30.8887Z" fill="white"/>
<path d="M86.5276 6.76562C79.9344 6.76562 77.9277 12.5398 77.9277 15.1987C75.5388 18.5199 78.1427 21.4921 79.9911 22.5365V20.9132C79.9911 18.7646 82.0336 16.7772 85.1033 17.1085C87.8564 17.4069 89.5824 15.8522 91.0516 13.2083C92.8581 9.66019 90.6036 6.76562 86.5276 6.76562Z" fill="#461811"/>
<path d="M90.7695 12.1113C90.7695 12.1113 92.3104 18.3778 96.5297 20.4369C97.2792 14.8178 97.7241 16.0025 96.5297 13.0423C95.3353 10.0821 90.7695 7.88281 90.7695 7.88281V12.1113Z" fill="#461811"/>
<path d="M86.9972 50.8022V42.2707L83.3273 35.7803C83.3273 35.7803 77.2656 37.8274 75.9099 39.9401C74.7841 43.2912 74.4766 50.8022 74.4766 50.8022H86.9972Z" fill="#71B6E7"/>
<path d="M87 50.8031V42.2716L90.6699 35.7812C90.6699 35.7812 96.7346 37.8283 98.0873 39.9411C99.2131 43.2922 99.5236 50.8031 99.5236 50.8031H87Z" fill="#5EACDD"/>
<path d="M87.0058 42.2707L83.3359 35.7803L79.9646 36.8575L82.8342 43.2912L87.0058 42.2707Z" fill="white"/>
<path d="M87.0078 42.2716L90.6777 35.7812L94.049 36.8585L91.1794 43.2922L87.0078 42.2716Z" fill="white"/>
<path d="M51.7556 25.3648C51.7556 20.3481 50.267 15.4441 47.4781 11.2729C44.6891 7.10164 40.725 3.85058 36.0871 1.93079C31.4492 0.0109871 26.3458 -0.491316 21.4222 0.487389C16.4986 1.46609 11.976 3.88186 8.42634 7.42918C4.87664 10.9765 2.45926 15.4961 1.4799 20.4163C0.500541 25.3366 1.00319 30.4366 2.92427 35.0714C4.84535 39.7062 8.09859 43.6677 12.2726 46.4548C16.4466 49.2419 21.3539 50.7295 26.3739 50.7295C33.1056 50.7295 39.5615 48.0572 44.3215 43.3004C49.0815 38.5435 51.7556 32.0919 51.7556 25.3648Z" fill="#FFCE45"/>
<path d="M51.7567 25.3648C51.7567 18.6376 49.0826 12.186 44.3226 7.42917C39.5626 2.67235 33.1067 0 26.375 0V50.7295C33.1067 50.7295 39.5626 48.0571 44.3226 43.3003C49.0826 38.5435 51.7567 32.0919 51.7567 25.3648Z" fill="#E1BC54"/>
<path d="M30.197 31.7688H22.7646V39.9124H30.197V31.7688Z" fill="#D9A78C"/>
<path d="M30.1513 36.0938H31.4174C33.7794 36.6906 36.3653 37.1352 38.0853 39.1256C39.1543 40.364 41.0176 50.7307 41.0176 50.7307H26.4336V38.9943C28.488 38.9943 30.1513 37.6962 30.1513 36.0938Z" fill="#C74043"/>
<path d="M22.7149 36.0938H21.4518C19.0898 36.6906 16.5039 37.1352 14.7839 39.1256C13.7119 40.364 11.8516 50.7307 11.8516 50.7307H26.4326V38.9943C24.3812 38.9943 22.7149 37.6962 22.7149 36.0938Z" fill="#C74043"/>
<path d="M26.4844 8.46094C30.0945 8.46094 35.801 10.511 35.801 20.1198C35.801 25.6672 33.9914 29.2988 33.2031 30.3045C32.4774 31.2295 28.3985 33.202 26.4844 33.202V8.46094Z" fill="#EAC0A7"/>
<path d="M37.587 22.4042C37.7453 20.8704 37.0137 19.5066 35.9536 19.3604C34.8936 19.2142 33.9022 20.3422 33.741 21.879C33.5797 23.4158 34.3143 24.7735 35.3773 24.9198C36.4404 25.066 37.4168 23.938 37.587 22.4042Z" fill="#EAC0A7"/>
<path d="M26.4846 8.46094C22.8744 8.46094 17.168 10.511 17.168 20.1198C17.168 25.6672 18.9775 29.2988 19.7659 30.3045C20.4915 31.2295 24.5705 33.202 26.4846 33.202V8.46094Z" fill="#F2D7BC"/>
<path d="M15.3731 22.4042C15.2148 20.8704 15.9464 19.5066 17.0065 19.3604C18.0665 19.2142 19.0579 20.3422 19.2192 21.879C19.3804 23.4158 18.6458 24.7735 17.5828 24.9198C16.5197 25.066 15.5313 23.938 15.3731 22.4042Z" fill="#F2D7BC"/>
<path d="M26.4794 29.5734C28.1606 29.5734 29.5252 29.0184 29.5252 28.332H23.4336C23.4336 29.0184 24.7982 29.5734 26.4794 29.5734Z" fill="white"/>
<path d="M33.9866 20.8786C34.3748 19.8879 35.1452 19.2523 35.9574 19.3627C36.3945 18.0881 36.3945 16.7044 35.9574 15.4297C33.2699 7.78449 36.3217 6.41777 36.3217 6.41777C36.3217 6.41777 33.3356 6.28648 31.0453 8.19331C32.6339 5.73144 33.3506 5.09583 33.3506 5.09583C33.3506 5.09583 30.0121 4.37964 26.4348 8.03514C26.8424 6.94746 27.4343 5.93803 28.1847 5.05106C28.1847 5.05106 20.7194 5.10775 18.0081 10.5089C16.4673 13.5885 16.3478 16.9247 16.7211 19.4612C16.8119 19.4269 16.9059 19.4019 17.0018 19.3866C17.3561 19.3448 17.7137 19.4328 18.0081 19.6343V17.2769C19.4384 16.6413 20.9494 15.8475 20.8688 12.6694H31.3618C31.3618 12.6694 31.1259 16.2503 33.9866 17.1187V20.8786Z" fill="#553828"/>
<path d="M26.433 39.9373C29.1832 39.9373 31.4138 38.2154 31.4138 36.0938H30.1387C30.1387 37.6932 28.4785 38.9913 26.433 38.9943C24.3875 38.9973 22.7243 37.6932 22.7243 36.0938H21.4492C21.4492 38.2154 23.6828 39.9373 26.433 39.9373Z" fill="#0F958C"/>
</svg>
