<svg width="269" height="290" viewBox="0 0 269 290" fill="none" xmlns="http://www.w3.org/2000/svg">
<g filter="url(#filter0_d)">
<path d="M248.493 161.721C250.486 169.891 249.526 183.84 251.597 189.36C253.667 194.88 253.755 211.299 253.799 218.076C253.834 223.272 254.082 228.778 255.549 234.298L150.611 265.553C148.314 264.144 146.282 263.121 144.428 262.639C139.673 261.414 125.43 258.284 117.056 251.22C109.186 244.607 89.1959 227.374 84.0771 223.928C78.9582 220.482 63.6802 207.491 59.4247 204.954C55.1693 202.417 44.2542 198.663 44.2542 198.663C41.8584 197.687 37.8445 189.928 45.884 184.37C46.2171 184.129 46.5767 183.896 46.9536 183.685C56.3856 178.092 84.8049 186.159 90.5083 192.044C96.2117 197.93 112.16 209.271 116.142 210.857C120.125 212.443 130.258 215.559 132.815 205.012C133.513 202.123 133.872 197.574 134.002 192.42C134.337 178.931 133.12 161.385 132.46 159.168L132.44 159.102C131.552 156.595 122.83 121.128 119.63 113.092C116.429 105.056 93.3468 43.668 92.5299 39.5655C91.4823 34.2475 91.7881 30.403 101.621 30.4715C110.858 30.5273 124.153 60.3049 125.821 63.7544C127.489 67.2039 141.972 94.5686 146.596 101.827C146.525 101.326 146.485 100.821 146.478 100.315C146.399 97.8183 146.747 92.7923 150.324 89.3491C150.962 88.7439 151.658 88.2019 152.4 87.7306C158.243 83.9342 168.442 84.9982 171.134 89.1212C175.429 95.716 178.938 108.893 178.938 108.893C178.938 108.893 177.294 99.4181 182.915 95.6448C183.105 95.5184 183.263 95.3747 183.435 95.2778C187.023 93.3405 197.935 90.9593 202.148 100.667C206.362 110.374 207.593 115.479 207.593 115.479C207.593 115.479 210.116 106.843 216.407 105.851C222.698 104.86 230.408 108.684 232.827 120.462C235.247 132.24 247.177 156.405 248.493 161.721Z" fill="url(#paint0_linear)"/>
<path d="M208.565 118.733C208.565 118.733 214.927 142.192 218.914 146.629C223.977 152.264 223.536 150.368 223.536 150.368C223.536 150.368 214.963 127.546 213.394 122.702C211.781 117.708 209.441 115.255 208.565 118.733Z" fill="url(#paint1_linear)"/>
<path d="M178.944 108.855C178.944 108.855 181.505 109.845 183.839 115.727C186.172 121.608 192.706 143.04 192.706 143.04L186.828 143.914C186.828 143.914 189.096 143.616 188.297 140.259C186.981 134.74 179.491 110.737 178.944 108.855Z" fill="url(#paint2_linear)"/>
<path d="M146.592 101.834C146.592 101.834 163.787 146.31 162.661 149.898C161.536 153.485 160.912 153.1 160.912 153.1C160.912 153.1 165.35 151.558 167.063 150.683C168.776 149.808 149.945 96.8917 146.592 101.834Z" fill="url(#paint3_linear)"/>
<path d="M133.999 192.415C134.156 192.985 148.042 242.938 142.735 235.366C137.398 227.749 103.771 214.968 97.8804 209.929C91.9893 204.89 81.4572 194.408 66.9879 188.661C52.4067 182.881 45.862 184.364 45.862 184.364C46.1941 184.128 46.5499 183.891 46.9285 183.676C56.3725 178.088 84.7859 186.135 90.492 192.039C96.1981 197.942 112.143 209.263 116.124 210.852C120.105 212.441 130.243 215.558 132.8 205.008C133.513 202.126 133.867 197.57 133.999 192.415Z" fill="url(#paint4_linear)"/>
<path d="M105.742 54.9997C105.742 54.9997 113.954 50.9453 117.604 50.4453C117.604 50.4453 107.361 29.2895 100.86 30.0062C89.9774 31.2019 94.4256 35.8663 105.742 54.9997Z" fill="url(#paint5_linear)"/>
<path d="M63.4577 207.821C63.4577 207.821 66.5734 201.507 68.4883 198.599C70.4032 195.69 42.5524 184.608 40.3341 193.394C38.4179 200.962 63.4577 207.821 63.4577 207.821Z" fill="url(#paint6_linear)"/>
</g>
<defs>
<filter id="filter0_d" x="30.2295" y="23.9884" width="235.32" height="255.565" filterUnits="userSpaceOnUse" color-interpolation-filters="sRGB">
<feFlood flood-opacity="0" result="BackgroundImageFix"/>
<feColorMatrix in="SourceAlpha" type="matrix" values="0 0 0 0 0 0 0 0 0 0 0 0 0 0 0 0 0 0 127 0"/>
<feOffset dy="4"/>
<feGaussianBlur stdDeviation="5"/>
<feColorMatrix type="matrix" values="0 0 0 0 0 0 0 0 0 0 0 0 0 0 0 0 0 0 0.2 0"/>
<feBlend mode="normal" in2="BackgroundImageFix" result="effect1_dropShadow"/>
<feBlend mode="normal" in="SourceGraphic" in2="effect1_dropShadow" result="shape"/>
</filter>
<linearGradient id="paint0_linear" x1="237571" y1="165841" x2="55248" y2="-129861" gradientUnits="userSpaceOnUse">
<stop stop-color="#EAA584"/>
<stop offset="0.79" stop-color="#CF9174"/>
</linearGradient>
<linearGradient id="paint1_linear" x1="12339.9" y1="20234" x2="6447.35" y2="14429.7" gradientUnits="userSpaceOnUse">
<stop stop-color="#CF9174"/>
<stop offset="1" stop-color="#966A56"/>
</linearGradient>
<linearGradient id="paint2_linear" x1="11158.1" y1="16815.5" x2="10603.1" y2="11571.1" gradientUnits="userSpaceOnUse">
<stop stop-color="#CF9174"/>
<stop offset="1" stop-color="#966A56"/>
</linearGradient>
<linearGradient id="paint3_linear" x1="14132.1" y1="25082.5" x2="8293.81" y2="18719.8" gradientUnits="userSpaceOnUse">
<stop stop-color="#CF9174"/>
<stop offset="1" stop-color="#966A56"/>
</linearGradient>
<linearGradient id="paint4_linear" x1="121.957" y1="211.573" x2="16.1364" y2="134.93" gradientUnits="userSpaceOnUse">
<stop stop-color="#E3A080"/>
<stop offset="1" stop-color="#AB6D52"/>
</linearGradient>
<linearGradient id="paint5_linear" x1="13774.9" y1="-1749.03" x2="13524.6" y2="-4346.4" gradientUnits="userSpaceOnUse">
<stop stop-color="#FFE0D1"/>
<stop offset="1" stop-color="#FFE0D1"/>
</linearGradient>
<linearGradient id="paint6_linear" x1="15794.4" y1="10195" x2="12910.8" y2="8210.73" gradientUnits="userSpaceOnUse">
<stop stop-color="#DE9C7D"/>
<stop offset="1" stop-color="#FFE0D1"/>
</linearGradient>
</defs>
</svg>
