<svg width="55" height="71" viewBox="0 0 55 71" fill="none" xmlns="http://www.w3.org/2000/svg">
<path d="M27.5 0C20.2065 0 13.2118 2.99213 8.05456 8.31814C2.89731 13.6442 0 20.8678 0 28.3999C0 47.5698 24.2344 69.2248 25.2656 70.1478C25.8883 70.6978 26.6807 71 27.5 71C28.3193 71 29.1117 70.6978 29.7344 70.1478C30.9375 69.2248 55 47.5698 55 28.3999C55 20.8678 52.1027 13.6442 46.9454 8.31814C41.7882 2.99213 34.7935 0 27.5 0ZM27.5 62.6573C20.1781 55.5573 6.875 40.2569 6.875 28.3999C6.875 22.7508 9.04799 17.3331 12.9159 13.3386C16.7839 9.34407 22.0299 7.09998 27.5 7.09998C32.9701 7.09998 38.2161 9.34407 42.0841 13.3386C45.952 17.3331 48.125 22.7508 48.125 28.3999C48.125 40.2569 34.8219 55.5928 27.5 62.6573ZM27.5 14.2C24.7805 14.2 22.1221 15.0328 19.8609 16.5931C17.5997 18.1534 15.8374 20.3711 14.7967 22.9658C13.7559 25.5605 13.4837 28.4157 14.0142 31.1702C14.5447 33.9247 15.8543 36.4549 17.7773 38.4408C19.7003 40.4267 22.1503 41.7791 24.8175 42.327C27.4847 42.8749 30.2494 42.5937 32.7619 41.519C35.2744 40.4442 37.4218 38.6241 38.9327 36.289C40.4436 33.9538 41.25 31.2084 41.25 28.3999C41.25 24.6338 39.8013 21.022 37.2227 18.359C34.6441 15.696 31.1467 14.2 27.5 14.2ZM27.5 35.4999C26.1403 35.4999 24.811 35.0835 23.6805 34.3033C22.5499 33.5232 21.6687 32.4143 21.1483 31.117C20.628 29.8196 20.4918 28.392 20.7571 27.0148C21.0224 25.6375 21.6772 24.3724 22.6386 23.3795C23.6001 22.3865 24.8251 21.7103 26.1588 21.4364C27.4924 21.1624 28.8747 21.303 30.1309 21.8404C31.3872 22.3778 32.4609 23.2878 33.2164 24.4554C33.9718 25.623 34.375 26.9957 34.375 28.3999C34.375 30.2829 33.6507 32.0888 32.3614 33.4203C31.072 34.7519 29.3234 35.4999 27.5 35.4999Z" fill="#252A34"/>
</svg>
