<svg width="399" height="341" viewBox="0 0 399 341" fill="none" xmlns="http://www.w3.org/2000/svg">
<path d="M382.97 179.285C382.97 148.981 375.277 119.172 360.609 92.6417C345.94 66.1115 324.775 43.7263 299.091 27.5775C273.406 11.4286 244.041 2.04302 213.738 0.297645C183.435 -1.44773 153.183 4.50404 125.809 17.5969C98.4346 30.6898 74.8314 50.4964 57.2042 75.1665C39.577 99.8366 28.5011 128.565 25.0112 158.668C21.5214 188.77 25.7315 219.265 37.2482 247.303C48.7649 275.34 67.2124 300.006 90.8673 318.995H315.91C336.86 302.213 353.763 280.945 365.371 256.762C376.978 232.579 382.993 206.101 382.97 179.285Z" fill="#EDEDED"/>
<path d="M178.09 285.414H220.881V300.44C220.881 305.224 218.978 309.813 215.589 313.196C212.201 316.579 207.605 318.479 202.813 318.479H196.158C191.366 318.479 186.771 316.579 183.382 313.196C179.994 309.813 178.09 305.224 178.09 300.44V285.414Z" fill="#222023"/>
<path d="M165.553 238.984H233.736V288.374C233.736 291.974 232.303 295.427 229.753 297.974C227.203 300.52 223.744 301.95 220.137 301.95H179.126C175.52 301.95 172.061 300.52 169.511 297.974C166.96 295.427 165.528 291.974 165.528 288.374V238.984H165.553Z" fill="#A59AA5"/>
<path d="M234.004 268.038H164.861C162.682 268.034 160.593 267.169 159.052 265.631C157.511 264.092 156.644 262.007 156.641 259.831C156.641 257.655 157.507 255.568 159.049 254.029C160.59 252.49 162.681 251.625 164.861 251.625H234.004C235.084 251.623 236.153 251.834 237.151 252.246C238.149 252.658 239.056 253.263 239.82 254.025C240.583 254.787 241.189 255.693 241.601 256.689C242.014 257.685 242.225 258.753 242.224 259.831C242.224 262.008 241.358 264.095 239.816 265.634C238.275 267.173 236.184 268.038 234.004 268.038Z" fill="#C2B8C2"/>
<path d="M192.574 268.038H178.091C177.012 268.038 175.943 267.826 174.945 267.413C173.948 267.001 173.042 266.396 172.279 265.634C171.515 264.872 170.91 263.968 170.497 262.972C170.084 261.976 169.871 260.909 169.871 259.831C169.869 258.753 170.081 257.685 170.493 256.689C170.906 255.693 171.511 254.787 172.275 254.025C173.039 253.263 173.945 252.658 174.943 252.246C175.941 251.834 177.011 251.623 178.091 251.625H192.574C194.754 251.625 196.844 252.49 198.386 254.029C199.927 255.568 200.793 257.655 200.793 259.831C200.79 262.007 199.923 264.092 198.382 265.631C196.841 267.169 194.753 268.034 192.574 268.038Z" fill="#DBD5DB"/>
<path d="M234.004 292.913H164.861C162.681 292.913 160.59 292.048 159.049 290.509C157.507 288.97 156.641 286.883 156.641 284.706C156.644 282.531 157.511 280.446 159.052 278.907C160.593 277.369 162.682 276.503 164.861 276.5H234.004C236.184 276.5 238.275 277.365 239.816 278.904C241.358 280.443 242.224 282.53 242.224 284.706C242.225 285.785 242.014 286.852 241.601 287.849C241.189 288.845 240.583 289.751 239.82 290.513C239.056 291.275 238.149 291.88 237.151 292.292C236.153 292.703 235.084 292.914 234.004 292.913Z" fill="#C2B8C2"/>
<path d="M185.746 292.913H184.912C182.732 292.913 180.641 292.048 179.1 290.509C177.558 288.97 176.692 286.883 176.692 284.706C176.696 282.531 177.563 280.446 179.104 278.907C180.644 277.369 182.733 276.503 184.912 276.5H185.746C187.926 276.5 190.016 277.365 191.558 278.904C193.099 280.443 193.965 282.53 193.965 284.706C193.967 285.785 193.756 286.852 193.343 287.849C192.931 288.845 192.325 289.751 191.562 290.513C190.798 291.275 189.891 291.88 188.893 292.292C187.895 292.703 186.826 292.914 185.746 292.913Z" fill="#DBD5DB"/>
<path d="M296.746 126.137C296.746 76.6848 253.31 36.6361 199.711 36.6361C146.111 36.6361 102.676 76.7226 102.676 126.137C102.676 155.774 118.282 182.032 142.323 198.331C142.323 198.331 153.599 204.521 154.849 221.299V233.35C154.849 238.997 159.811 243.586 165.947 243.586H233.638C239.775 243.586 244.737 238.997 244.737 233.35V221.185C246 204.483 257.048 198.394 257.048 198.394C281.114 182.095 296.746 155.799 296.746 126.137Z" fill="#FFCE45"/>
<path d="M269.3 149.442C277.547 111.676 253.568 74.3855 215.74 66.1513C177.912 57.917 140.561 81.857 132.313 119.623C124.065 157.389 148.044 194.679 185.872 202.913C223.7 211.148 261.052 187.208 269.3 149.442Z" fill="#FFE292"/>
<path d="M189.482 243.59V142.643C189.482 139.055 188.055 135.615 185.514 133.078C182.973 130.542 179.527 129.117 175.934 129.117C172.341 129.117 168.895 130.542 166.354 133.078C163.813 135.615 162.386 139.055 162.386 142.643V150.206C162.386 153.794 163.813 157.234 166.354 159.771C168.895 162.307 172.341 163.732 175.934 163.732H199.318" stroke="white" stroke-width="2.21" stroke-miterlimit="10"/>
<path d="M209.43 243.59V142.643C209.428 140.867 209.777 139.108 210.457 137.468C211.136 135.827 212.133 134.335 213.39 133.079C214.647 131.823 216.14 130.826 217.783 130.147C219.426 129.467 221.187 129.117 222.966 129.117C224.745 129.115 226.508 129.464 228.152 130.143C229.797 130.822 231.291 131.818 232.549 133.075C233.808 134.331 234.806 135.823 235.486 137.465C236.166 139.106 236.515 140.866 236.514 142.643V150.206C236.515 151.983 236.166 153.743 235.486 155.384C234.806 157.026 233.808 158.518 232.549 159.774C231.291 161.031 229.797 162.027 228.152 162.706C226.508 163.385 224.745 163.734 222.966 163.732H197.788" stroke="white" stroke-width="2.21" stroke-miterlimit="10"/>
<path d="M141.878 83.7315C148.307 75.854 156.249 69.3394 165.237 64.5707" stroke="white" stroke-width="13.14" stroke-linecap="round" stroke-linejoin="round"/>
<path d="M126.394 147.2C125.339 142.082 124.814 136.87 124.828 131.645" stroke="white" stroke-width="9.03" stroke-linecap="round" stroke-linejoin="round"/>
<path d="M276.846 131.645C276.856 138.581 275.912 145.486 274.043 152.167" stroke="white" stroke-width="9.03" stroke-linecap="round" stroke-linejoin="round"/>
<path d="M0 319H393" stroke="#222021" stroke-width="0.99" stroke-miterlimit="10"/>
<path d="M43.0781 340.48H170.29" stroke="#222021" stroke-width="0.99" stroke-miterlimit="10"/>
<path d="M75.9188 154.879L72.3834 154.884C71.4489 154.886 70.6925 155.643 70.6938 156.576L70.6984 159.891C70.6997 160.824 71.4583 161.579 72.3927 161.578L75.9282 161.573C76.8626 161.572 77.619 160.814 77.6177 159.882L77.6131 156.566C77.6118 155.633 76.8532 154.878 75.9188 154.879Z" fill="white"/>
<path d="M210.064 19.8822H188.99C188.32 19.8822 187.678 19.6166 187.204 19.1437C186.731 18.6709 186.465 18.0297 186.465 17.361C186.465 16.6924 186.731 16.0511 187.204 15.5783C187.678 15.1055 188.32 14.8398 188.99 14.8398H210.064C210.734 14.8398 211.376 15.1055 211.85 15.5783C212.323 16.0511 212.589 16.6924 212.589 17.361C212.589 18.0297 212.323 18.6709 211.85 19.1437C211.376 19.6166 210.734 19.8822 210.064 19.8822Z" fill="white"/>
<path d="M382.613 318.997C382.256 318.994 381.907 318.883 381.614 318.678C381.321 318.474 381.097 318.185 380.972 317.85L333.471 187.619L285.957 317.85C285.879 318.065 285.76 318.263 285.605 318.432C285.451 318.601 285.264 318.738 285.057 318.835C284.849 318.933 284.625 318.988 284.396 318.998C284.167 319.009 283.938 318.974 283.722 318.896C283.507 318.819 283.309 318.699 283.139 318.545C282.97 318.391 282.833 318.205 282.735 317.998C282.638 317.79 282.583 317.566 282.572 317.337C282.562 317.109 282.596 316.88 282.674 316.665L331.829 181.922C331.95 181.583 332.173 181.291 332.467 181.084C332.76 180.877 333.111 180.766 333.471 180.766C333.831 180.766 334.181 180.877 334.475 181.084C334.769 181.291 334.992 181.583 335.112 181.922L384.255 316.665C384.333 316.88 384.368 317.109 384.358 317.338C384.348 317.566 384.292 317.791 384.195 317.998C384.097 318.205 383.96 318.391 383.791 318.546C383.621 318.7 383.423 318.819 383.207 318.896C383.017 318.967 382.816 319.002 382.613 318.997Z" fill="#1EB8D1"/>
<path d="M339.129 199.796H313.27C313.041 199.796 312.814 199.751 312.603 199.663C312.392 199.576 312.2 199.448 312.038 199.286C311.876 199.125 311.748 198.933 311.66 198.722C311.572 198.511 311.527 198.284 311.527 198.056C311.527 197.828 311.572 197.601 311.66 197.39C311.748 197.179 311.876 196.987 312.038 196.826C312.2 196.664 312.392 196.536 312.603 196.449C312.814 196.361 313.041 196.316 313.27 196.316H339.129C339.358 196.316 339.584 196.361 339.796 196.449C340.007 196.536 340.199 196.664 340.361 196.826C340.523 196.987 340.651 197.179 340.739 197.39C340.826 197.601 340.871 197.828 340.871 198.056C340.871 198.284 340.826 198.511 340.739 198.722C340.651 198.933 340.523 199.125 340.361 199.286C340.199 199.448 340.007 199.576 339.796 199.663C339.584 199.751 339.358 199.796 339.129 199.796Z" fill="#1EB8D1"/>
<path d="M345.8 218.792H321.153C320.69 218.792 320.247 218.608 319.92 218.282C319.594 217.956 319.41 217.513 319.41 217.052C319.41 216.591 319.594 216.148 319.92 215.822C320.247 215.496 320.69 215.312 321.153 215.312H345.8C346.262 215.313 346.705 215.496 347.032 215.822C347.358 216.148 347.542 216.591 347.542 217.052C347.542 217.513 347.358 217.956 347.032 218.282C346.705 218.608 346.262 218.792 345.8 218.792Z" fill="#1EB8D1"/>
<path d="M318.421 218.792H294.809C294.347 218.792 293.904 218.608 293.577 218.282C293.25 217.956 293.066 217.513 293.066 217.052C293.066 216.591 293.25 216.148 293.577 215.822C293.904 215.496 294.347 215.312 294.809 215.312H318.421C318.883 215.313 319.326 215.496 319.653 215.822C319.979 216.148 320.163 216.591 320.163 217.052C320.163 217.513 319.979 217.956 319.653 218.282C319.326 218.608 318.883 218.792 318.421 218.792Z" fill="#1EB8D1"/>
<path d="M352.457 237.804H327.809C327.371 237.767 326.963 237.567 326.666 237.244C326.368 236.92 326.203 236.497 326.203 236.058C326.203 235.619 326.368 235.196 326.666 234.873C326.963 234.55 327.371 234.35 327.809 234.312H352.457C352.895 234.35 353.303 234.55 353.6 234.873C353.898 235.196 354.063 235.619 354.063 236.058C354.063 236.497 353.898 236.92 353.6 237.244C353.303 237.567 352.895 237.767 352.457 237.804Z" fill="#1EB8D1"/>
<path d="M313.273 237.804H288.626C288.188 237.767 287.78 237.567 287.483 237.244C287.185 236.92 287.02 236.497 287.02 236.058C287.02 235.619 287.185 235.196 287.483 234.873C287.78 234.55 288.188 234.35 288.626 234.312H313.273C313.712 234.35 314.12 234.55 314.417 234.873C314.715 235.196 314.88 235.619 314.88 236.058C314.88 236.497 314.715 236.92 314.417 237.244C314.12 237.567 313.712 237.767 313.273 237.804Z" fill="#1EB8D1"/>
<path d="M359.107 256.804H334.434C333.996 256.767 333.588 256.567 333.291 256.244C332.993 255.92 332.828 255.497 332.828 255.058C332.828 254.619 332.993 254.196 333.291 253.873C333.588 253.55 333.996 253.35 334.434 253.312H359.081C359.52 253.35 359.928 253.55 360.225 253.873C360.523 254.196 360.688 254.619 360.688 255.058C360.688 255.497 360.523 255.92 360.225 256.244C359.928 256.567 359.52 256.767 359.081 256.804H359.107Z" fill="#1EB8D1"/>
<path d="M306.021 256.803H281.399C280.961 256.766 280.553 256.566 280.256 256.242C279.958 255.919 279.793 255.496 279.793 255.057C279.793 254.618 279.958 254.195 280.256 253.872C280.553 253.548 280.961 253.348 281.399 253.311H306.021C306.263 253.29 306.507 253.32 306.737 253.399C306.967 253.477 307.178 253.602 307.357 253.766C307.536 253.931 307.679 254.13 307.777 254.352C307.874 254.574 307.925 254.814 307.925 255.057C307.925 255.3 307.874 255.539 307.777 255.762C307.679 255.984 307.536 256.183 307.357 256.347C307.178 256.511 306.967 256.637 306.737 256.715C306.507 256.793 306.263 256.823 306.021 256.803Z" fill="#1EB8D1"/>
<path d="M365.761 275.792H341.114C340.651 275.792 340.208 275.608 339.881 275.282C339.555 274.956 339.371 274.513 339.371 274.052C339.371 273.591 339.555 273.148 339.881 272.822C340.208 272.496 340.651 272.312 341.114 272.312H365.761C366.223 272.312 366.666 272.496 366.993 272.822C367.319 273.148 367.503 273.591 367.503 274.052C367.503 274.513 367.319 274.956 366.993 275.282C366.666 275.608 366.223 275.792 365.761 275.792Z" fill="#1EB8D1"/>
<path d="M299.343 275.792H274.696C274.233 275.792 273.79 275.608 273.463 275.282C273.137 274.956 272.953 274.513 272.953 274.052C272.953 273.591 273.137 273.148 273.463 272.822C273.79 272.496 274.233 272.312 274.696 272.312H299.343C299.805 272.312 300.248 272.496 300.575 272.822C300.902 273.148 301.085 273.591 301.085 274.052C301.085 274.513 300.902 274.956 300.575 275.282C300.248 275.608 299.805 275.792 299.343 275.792Z" fill="#1EB8D1"/>
<path d="M372.425 294.792H347.778C347.315 294.792 346.872 294.608 346.546 294.282C346.219 293.956 346.035 293.513 346.035 293.052C346.035 292.591 346.219 292.148 346.546 291.822C346.872 291.496 347.315 291.312 347.778 291.312H372.425C372.887 291.313 373.33 291.496 373.657 291.822C373.983 292.148 374.167 292.591 374.167 293.052C374.167 293.513 373.983 293.956 373.657 294.282C373.33 294.608 372.887 294.792 372.425 294.792Z" fill="#1EB8D1"/>
<path d="M292.486 294.792H267.839C267.377 294.792 266.934 294.608 266.607 294.282C266.281 293.956 266.097 293.513 266.097 293.052C266.097 292.591 266.281 292.148 266.607 291.822C266.934 291.496 267.377 291.312 267.839 291.312H292.486C292.949 291.313 293.392 291.496 293.718 291.822C294.045 292.148 294.229 292.591 294.229 293.052C294.229 293.513 294.045 293.956 293.718 294.282C293.392 294.608 292.949 294.792 292.486 294.792Z" fill="#1EB8D1"/>
<path d="M333.349 184.261H307.477C307.039 184.224 306.631 184.024 306.334 183.701C306.036 183.377 305.871 182.954 305.871 182.515C305.871 182.076 306.036 181.653 306.334 181.33C306.631 181.007 307.039 180.807 307.477 180.77H333.349C333.787 180.807 334.196 181.007 334.493 181.33C334.791 181.653 334.956 182.076 334.956 182.515C334.956 182.954 334.791 183.377 334.493 183.701C334.196 184.024 333.787 184.224 333.349 184.261Z" fill="#1EB8D1"/>
<path d="M341.113 266.04L341.908 252.073L349.409 253.056L347.931 267.73L340.747 266.456L341.113 266.04Z" fill="#E0895A"/>
<path d="M348.979 264.163C348.979 264.163 343.928 266.76 341.112 262.902L327.488 270.214L350.835 270.075L348.979 264.163Z" fill="black"/>
<path d="M350.823 270.084L327.477 270.23L327.49 272.336L350.836 272.189L350.823 270.084Z" fill="#A59AA5"/>
<path d="M349.203 172.516C349.203 172.516 342.46 176.486 341.627 198.685C340.794 220.884 339.48 258.147 339.48 258.147H350.844L356.678 185.827L355.15 172.516H349.203Z" fill="#FFCE45"/>
<path d="M360.725 266.04L359.98 252.073L367.493 253.056L367.543 267.73L360.371 266.456L360.725 266.04Z" fill="#E0895A"/>
<path d="M368.584 264.163C368.584 264.163 363.533 266.76 360.73 262.902L347.094 270.214L370.44 270.075L368.584 264.163Z" fill="black"/>
<path d="M370.428 270.084L347.082 270.23L347.095 272.336L370.441 272.189L370.428 270.084Z" fill="#A59AA5"/>
<path d="M364.598 175.387C364.598 175.387 371.417 183.266 370.407 197.056L370.078 258.296L357.161 257.968L353.07 174.605L364.598 175.387Z" fill="#FFCE45"/>
<path d="M354.712 210.811L353.992 193.062L349.105 186.293" stroke="#EAAE28" stroke-width="0.75" stroke-miterlimit="10"/>
<path d="M306.961 147.578L321.481 161.356C321.923 161.774 322.454 162.085 323.035 162.265C323.616 162.444 324.23 162.489 324.83 162.393C325.431 162.298 326.001 162.067 326.498 161.716C326.994 161.366 327.404 160.906 327.694 160.373L329.095 157.852L309.461 143.582L306.961 147.578Z" fill="#E0895A"/>
<path d="M309.786 145.653C309.514 146.484 309.001 147.217 308.313 147.757C307.625 148.298 306.791 148.623 305.918 148.691C305.045 148.76 304.171 148.568 303.407 148.141C302.643 147.713 302.023 147.07 301.625 146.291C301.227 145.512 301.069 144.633 301.171 143.764C301.273 142.896 301.63 142.077 302.198 141.411C302.766 140.746 303.519 140.263 304.361 140.024C305.204 139.785 306.098 139.801 306.932 140.069C308.052 140.433 308.981 141.225 309.516 142.272C310.051 143.319 310.148 144.535 309.786 145.653Z" fill="#E0895A"/>
<path d="M306.65 140.002L302.571 137.481C302.412 137.365 302.213 137.315 302.017 137.344C301.821 137.372 301.644 137.476 301.524 137.633C301.419 137.762 301.369 137.927 301.386 138.092C301.402 138.257 301.484 138.409 301.612 138.515L305.488 141.956L306.65 140.002Z" fill="#E0895A"/>
<path d="M323.711 155.056L342.411 148.16L341.527 156.984C341.527 156.984 331.426 161.358 325.112 162.354C318.799 163.35 323.711 155.056 323.711 155.056Z" fill="#E0895A"/>
<path d="M347.298 147.835C347.298 147.835 345.581 145.175 341.162 147.028C336.742 148.881 328.636 151.604 328.636 151.604L335.694 163.63L349.003 158.588L347.298 147.835Z" fill="#1EB8D1"/>
<path d="M365.11 145.176L355.237 144.23L342.863 146.5C342.863 146.5 342.042 164.274 344.125 173.413C344.293 174.187 344.736 174.875 345.372 175.35C346.007 175.825 346.793 176.055 347.585 175.997L365.262 176.249C366.06 175.592 366.7 174.766 367.137 173.83C367.574 172.895 367.796 171.874 367.787 170.841L366.525 146.613C366.507 146.242 366.353 145.89 366.092 145.625C365.831 145.36 365.482 145.2 365.11 145.176Z" fill="#1EB8D1"/>
<path d="M342.258 160.603L341.652 153.809" stroke="#0A92A8" stroke-width="0.75" stroke-miterlimit="10"/>
<path d="M395.32 187.494L337.769 181.531C337.158 181.471 336.595 181.172 336.203 180.7C335.81 180.228 335.62 179.621 335.673 179.01L336.367 172.09C336.428 171.479 336.727 170.918 337.2 170.526C337.672 170.134 338.281 169.944 338.892 169.997L396.432 175.985C397.044 176.046 397.608 176.344 398.002 176.815C398.396 177.287 398.59 177.894 398.54 178.506L397.846 185.427C397.779 186.032 397.477 186.588 397.005 186.974C396.533 187.36 395.929 187.547 395.32 187.494Z" fill="#0A92A8"/>
<path d="M379.307 175.69C379.977 174.223 380.731 172.796 381.567 171.417L375.102 158.08C374.205 155.42 368.574 146.18 366.263 147.793C364.571 148.966 365.67 159.328 366.566 161.193L373.435 174.266L379.307 175.69Z" fill="#E0895A"/>
<path d="M364.152 145.059C364.152 145.059 369.834 145.475 372.031 148.929C374.834 153.315 379.607 160.4 379.607 160.4L365.087 165.833L364.152 145.059Z" fill="#1EB8D1"/>
<path d="M367.124 165.092L361.695 155.776" stroke="#0A92A8" stroke-width="0.75" stroke-miterlimit="10"/>
<path d="M375.205 168.927L359.359 180.36L361.884 184.054L379.056 176.629C379.679 176.359 380.228 175.947 380.661 175.425C381.094 174.904 381.398 174.288 381.548 173.628C381.698 172.967 381.69 172.281 381.525 171.624C381.36 170.967 381.042 170.358 380.597 169.847C379.943 169.096 379.048 168.594 378.066 168.426C377.083 168.258 376.072 168.435 375.205 168.927Z" fill="#E0895A"/>
<path d="M362.325 183.52C362.325 183.52 360.179 188.638 356.113 188.134C351.416 187.541 351.062 183.823 353.158 183.091L356.328 183.318C356.374 182.694 356.587 182.093 356.944 181.579C357.302 181.065 357.791 180.656 358.361 180.394C358.897 180.166 359.47 180.038 360.052 180.016L362.325 183.52Z" fill="#E0895A"/>
<path d="M359.08 180.142L354.699 180.936C354.559 180.965 354.434 181.041 354.345 181.151C354.255 181.261 354.206 181.399 354.206 181.541C354.205 181.698 354.263 181.849 354.368 181.966C354.473 182.082 354.618 182.155 354.774 182.171L359.004 182.524L359.08 180.142Z" fill="#E0895A"/>
<path d="M341.018 131.421C342.128 130.322 343.103 129.094 343.922 127.765L345.248 124.387L349.44 125.534L347.407 129.694L346.258 130.488L354.718 140.32C354.718 140.32 348.594 146.233 342.685 142.501C337.71 139.362 338.518 133.526 341.018 131.421Z" fill="#201C30"/>
<path d="M364.155 126.621C364.53 128.552 365.627 130.269 367.223 131.423C369.749 133.138 370.532 139.365 365.557 142.504C359.647 146.286 353.524 140.323 353.524 140.323L364.155 126.621Z" fill="#201C30"/>
<path d="M347.48 121.022C347.48 121.022 359.362 115.98 363.478 123.796C365.852 128.422 363.011 136.515 357.165 138.834C351.609 141.028 353.188 122.926 353.188 122.926L347.48 121.022Z" fill="#201C30"/>
<path d="M348.975 132.18C349.013 132.716 348.892 133.251 348.626 133.718C348.36 134.185 347.961 134.563 347.48 134.805C347 135.046 346.458 135.14 345.924 135.075C345.39 135.01 344.887 134.788 344.478 134.438C344.07 134.088 343.774 133.626 343.629 133.108C343.483 132.591 343.494 132.042 343.661 131.531C343.827 131.02 344.141 130.57 344.563 130.236C344.985 129.903 345.497 129.702 346.033 129.658C346.393 129.627 346.755 129.668 347.099 129.779C347.442 129.89 347.761 130.067 348.035 130.302C348.308 130.537 348.533 130.824 348.694 131.146C348.856 131.469 348.951 131.82 348.975 132.18Z" fill="#CC6E44"/>
<path d="M349.824 139.764L350.291 145.664C350.285 146.105 350.379 146.543 350.566 146.943C350.752 147.343 351.027 147.697 351.369 147.976C351.711 148.256 352.112 148.455 352.542 148.559C352.972 148.663 353.42 148.669 353.852 148.576C354.678 148.597 355.483 148.308 356.107 147.767C356.731 147.226 357.129 146.471 357.223 145.651L356.049 136.398L349.824 139.764Z" fill="#E0895A"/>
<path d="M350.153 144.026L356.972 137.824L349.762 139.16L350.153 144.026Z" fill="#CC6E44"/>
<path d="M351.643 140.696C348.146 140.696 345.216 138.049 345.077 135.2L344.774 128.481C344.686 126.765 345.269 125.082 346.399 123.786C347.53 122.49 349.12 121.683 350.835 121.535C354.497 121.233 358.335 123.88 358.651 127.536L358.84 132.944C358.892 134.918 358.168 136.835 356.823 138.283C355.479 139.732 353.619 140.598 351.643 140.696Z" fill="#E0895A"/>
<path d="M357.763 132.37C357.659 131.637 357.399 130.935 357 130.311C356.602 129.687 356.074 129.155 355.452 128.752C353.419 127.567 347.876 125.827 348.406 121.516C348.406 121.516 357.043 118.995 360.237 124.63C363.432 130.265 357.763 132.37 357.763 132.37Z" fill="#201C30"/>
<path d="M362.208 132.363C362.243 132.896 362.121 133.427 361.855 133.89C361.589 134.353 361.192 134.728 360.714 134.966C360.236 135.205 359.698 135.298 359.167 135.232C358.636 135.167 358.137 134.947 357.731 134.599C357.326 134.251 357.032 133.792 356.887 133.278C356.741 132.765 356.751 132.219 356.915 131.711C357.079 131.203 357.39 130.755 357.808 130.423C358.226 130.09 358.734 129.888 359.266 129.842C359.626 129.811 359.988 129.852 360.332 129.963C360.675 130.073 360.994 130.251 361.268 130.486C361.542 130.721 361.766 131.008 361.927 131.33C362.089 131.652 362.184 132.004 362.208 132.363Z" fill="#E0895A"/>
<path d="M350.694 121.476C350.694 121.476 350.062 125.018 344.57 127.388C344.57 127.388 343.206 124.867 346.855 121.413C347.199 121.096 347.65 120.92 348.118 120.921H352.36L350.694 121.476Z" fill="#201C30"/>
<path d="M360.1 144.669L354.632 144.089L347.347 145.678C347.347 145.678 347.347 150.909 353.269 150.556C354.901 150.473 356.459 149.849 357.696 148.783C358.933 147.717 359.779 146.269 360.1 144.669Z" fill="#E0895A"/>
<path d="M356.391 318.997C356.032 318.998 355.682 318.888 355.388 318.683C355.095 318.478 354.871 318.187 354.749 317.85L307.236 187.619L259.735 317.85C259.657 318.065 259.537 318.263 259.383 318.432C259.228 318.601 259.042 318.738 258.834 318.835C258.627 318.933 258.402 318.988 258.173 318.998C257.944 319.009 257.715 318.974 257.5 318.896C257.284 318.819 257.086 318.699 256.917 318.545C256.747 318.391 256.61 318.205 256.513 317.998C256.415 317.79 256.36 317.566 256.349 317.337C256.339 317.109 256.374 316.88 256.452 316.665L305.594 181.922C305.715 181.583 305.937 181.291 306.231 181.084C306.525 180.877 306.876 180.766 307.236 180.766C307.595 180.766 307.946 180.877 308.24 181.084C308.534 181.291 308.756 181.583 308.877 181.922L358.032 316.665C358.11 316.88 358.146 317.109 358.135 317.338C358.125 317.566 358.069 317.791 357.972 317.998C357.875 318.205 357.737 318.391 357.568 318.546C357.398 318.7 357.2 318.819 356.984 318.896C356.795 318.967 356.593 319.002 356.391 318.997Z" fill="#00D1F3"/>
<path d="M39.5895 295.31L38.6172 309.668L31.9883 309.391L32.2156 294.844L39.5895 295.31Z" fill="#FDBC9B"/>
<path d="M39.1105 308.08L51.1941 313.577C51.5764 313.771 51.8823 314.088 52.0631 314.476C52.244 314.865 52.2892 315.302 52.1916 315.72H30.8906L31.6735 307.992L39.1105 308.08Z" fill="black"/>
<path d="M30.5112 318.008H52.4688V315.714H30.5112V318.008Z" fill="#C2B8C2"/>
<path d="M18.0152 295.31L17.043 309.668L10.4141 309.391L10.6413 294.844L18.0152 295.31Z" fill="#FDBC9B"/>
<path d="M17.5041 308.08L29.5751 313.577C29.9597 313.769 30.2683 314.085 30.4515 314.474C30.6347 314.862 30.6818 315.301 30.5852 315.72H9.29688L10.0923 307.992L17.5041 308.08Z" fill="black"/>
<path d="M8.92135 318.008H30.8789V315.714H8.92135V318.008Z" fill="#C2B8C2"/>
<path d="M35.766 227.867L10.3361 229.796L6.96484 301.12H20.8919L25.4122 247.331L31.4477 270.311L29.3896 301.989L41.2585 302.027L45.3495 266.996L35.766 227.867Z" fill="#1EB8D1"/>
<path d="M31.0966 244.231L25.4147 247.332" stroke="#0A92A8" stroke-width="0.75" stroke-miterlimit="10"/>
<path d="M35.4337 206.113L35.2695 213.109L39.2469 213.159L38.9565 205.621L35.4337 206.113Z" fill="#FFAC9D"/>
<path d="M35.6721 194.227C35.6721 194.227 42.0611 198.008 41.1394 209.996L35.1797 208.673L35.6721 194.227Z" fill="#FBA09F"/>
<path d="M22.8578 190.278C18.2294 190.44 13.6396 191.182 9.19592 192.484L9.47371 233.138L36.5071 231.058L36.2293 195.51C36.2244 195.202 36.1377 194.901 35.9779 194.637C35.8182 194.373 35.5912 194.157 35.3202 194.01L27.8453 190.82C27.8453 190.82 24.1584 190.278 22.8578 190.278Z" fill="#FBA09F"/>
<path d="M36.3164 208.911V201.07" stroke="#ED8E8E" stroke-width="0.75" stroke-miterlimit="10"/>
<path d="M12.4497 206.187L10.7072 226.294C10.7072 226.294 8.78796 230.34 5.39142 226.13C1.99488 221.919 4.87373 205.481 4.87373 205.481L12.4497 206.187Z" fill="#FDBC9B"/>
<path d="M13.3047 210.411C13.3047 210.411 15.5017 193.33 10.7794 192.461C6.05708 191.591 1.29688 203.062 1.29688 212.63L13.3047 210.411Z" fill="#FBA09F"/>
<path d="M12.0078 210.523L13.8134 209.994L14.1543 201.926" stroke="#ED8E8E" stroke-width="0.75" stroke-miterlimit="10"/>
<path d="M23.9481 207.471C24.2487 206.455 24.8362 205.547 25.6401 204.857C26.444 204.166 27.4304 203.721 28.481 203.575C32.0417 203.235 33.0897 206.021 32.4205 207.849C31.7513 209.677 29.4406 212.664 25.9304 211.139C22.4203 209.614 23.9481 207.471 23.9481 207.471Z" fill="#FDBC9B"/>
<path d="M29.6641 203.578C31.7615 203.842 33.8108 204.402 35.7501 205.242C35.8773 205.31 35.9805 205.416 36.046 205.544C36.1114 205.672 36.136 205.818 36.1162 205.961C36.1042 206.053 36.0733 206.142 36.0254 206.222C35.9776 206.302 35.9138 206.371 35.838 206.425C35.7623 206.48 35.6762 206.518 35.585 206.538C35.4939 206.558 35.3996 206.558 35.3081 206.54L30.4848 205.645L29.6641 203.578Z" fill="#FDBC9B"/>
<path d="M9.91635 227.314L25.9268 211.141L23.9444 207.473L8.36328 217.356L9.91635 227.314Z" fill="#FDBC9B"/>
<path d="M11.6083 215.289L8.36328 217.356" stroke="#EFA987" stroke-width="0.48" stroke-miterlimit="10"/>
<path d="M45.8285 211.53L39.0859 231.497C38.979 231.832 38.7568 232.118 38.4586 232.305C38.1605 232.492 37.8056 232.568 37.4571 232.518L21.0426 230.375C20.816 230.35 20.598 230.274 20.4049 230.154C20.2117 230.033 20.0484 229.87 19.927 229.677C19.8057 229.485 19.7294 229.267 19.7039 229.041C19.6785 228.815 19.7044 228.586 19.7799 228.371L26.7119 208.429C26.8256 208.1 27.0503 207.821 27.3474 207.639C27.6445 207.457 27.9957 207.384 28.3407 207.433L44.5153 209.551C44.7433 209.57 44.964 209.64 45.1609 209.756C45.3578 209.873 45.5257 210.032 45.652 210.223C45.7784 210.413 45.8599 210.629 45.8904 210.856C45.921 211.082 45.8998 211.313 45.8285 211.53Z" fill="#090B0C"/>
<path d="M45.5375 210.055L46.3961 211.164L20.8779 230.829L19.9688 229.632L45.5375 210.055Z" fill="#090B0C"/>
<path d="M46.5487 212.527L39.8566 232.495C39.7454 232.827 39.5223 233.11 39.2253 233.297C38.9282 233.483 38.5757 233.56 38.2278 233.516L21.8133 231.36C21.5872 231.337 21.3693 231.263 21.1761 231.143C20.9829 231.024 20.8193 230.862 20.6978 230.67C20.5762 230.479 20.4998 230.262 20.4743 230.036C20.4488 229.811 20.4749 229.583 20.5506 229.369L27.6088 209.426C27.7243 209.098 27.9489 208.819 28.2452 208.635C28.5414 208.452 28.8917 208.375 29.2377 208.418L45.3491 210.523C45.5691 210.559 45.7786 210.642 45.9629 210.767C46.1473 210.892 46.302 211.055 46.4163 211.246C46.5306 211.437 46.6017 211.651 46.6245 211.872C46.6474 212.093 46.6215 212.317 46.5487 212.527Z" fill="#3D5057"/>
<path d="M45.8217 218.329L44.2939 222.464C44.2011 222.714 44.0249 222.924 43.795 223.059C43.565 223.195 43.2953 223.247 43.0313 223.207C42.6593 223.164 42.3015 223.039 41.9839 222.841C41.6663 222.643 41.3969 222.377 41.195 222.062C40.9932 221.747 40.864 221.391 40.8169 221.02C40.7698 220.649 40.8059 220.273 40.9226 219.917L41.3646 218.531C41.5267 217.995 41.8629 217.528 42.3201 217.204C42.7773 216.88 43.3296 216.717 43.8899 216.741H44.7485C44.9387 216.738 45.1265 216.784 45.2949 216.872C45.4634 216.96 45.6073 217.089 45.7137 217.246C45.8201 217.404 45.8856 217.585 45.9045 217.774C45.9234 217.963 45.8949 218.154 45.8217 218.329Z" fill="#FDBC9B"/>
<path d="M28.7579 184.235L27.9498 190.79C27.9392 191.273 27.82 191.748 27.6011 192.179C27.3821 192.61 27.0689 192.986 26.6847 193.28C26.3005 193.574 25.8551 193.778 25.3812 193.877C24.9074 193.977 24.4174 193.968 23.9472 193.853C22.0785 193.601 20.1593 192.428 20.4623 190.411L21.4345 180.125L28.7579 184.235Z" fill="#FDBC9B"/>
<path d="M28.0098 190.278C28.0098 190.278 20.6106 187.605 21.242 180.987C21.4187 179.021 28.8179 183.95 28.8179 183.95L28.0098 190.278Z" fill="#EFA987"/>
<path d="M29.5907 191.612L26.4088 190.125L20.7774 190.289L17.4819 190.755C17.4819 190.755 16.2192 195.684 24.5906 195.961C31.2574 196.125 29.5907 191.612 29.5907 191.612Z" fill="#FDBC9B"/>
<path d="M33.1635 175.735C33.1635 175.735 39.5777 170.957 36.6484 166.545C33.719 162.133 28.3906 165.953 28.3906 165.953L33.1635 175.735Z" fill="#171E21"/>
<path d="M28.0089 164.779C28.0089 164.779 9.92768 162.258 17.9077 176.2L19.9658 170.528L28.0089 164.779Z" fill="#171E21"/>
<path d="M33.5032 168.594C33.5032 168.594 36.5336 171.116 32.733 176.662L31.7229 169.578L33.5032 168.594Z" fill="#171E21"/>
<path d="M30.1352 178.305C30.0892 178.831 30.1993 179.359 30.4519 179.822C30.7044 180.286 31.0882 180.665 31.5552 180.912C32.0222 181.159 32.5518 181.263 33.0778 181.211C33.6038 181.16 34.1029 180.954 34.5127 180.621C34.9226 180.288 35.225 179.842 35.3822 179.338C35.5394 178.834 35.5444 178.295 35.3967 177.789C35.2489 177.282 34.9549 176.83 34.5514 176.489C34.1478 176.148 33.6527 175.934 33.1277 175.872C32.4083 175.802 31.6901 176.018 31.1296 176.474C30.5691 176.929 30.2117 177.588 30.1352 178.305Z" fill="#E49D7D"/>
<path d="M25.9675 186.565C27.7071 186.67 29.4229 186.121 30.778 185.027C32.133 183.933 33.0294 182.373 33.2909 180.653L33.8086 173.997C33.9959 172.11 33.4426 170.224 32.2651 168.735C31.0876 167.247 29.3778 166.273 27.4954 166.018C23.5433 165.539 19.2755 168.375 18.8083 172.447L18.4674 177.64C18.2951 179.813 18.9848 181.966 20.3878 183.635C21.7908 185.305 23.7947 186.357 25.9675 186.565Z" fill="#FDBC9B"/>
<path d="M33.8317 172.387C33.8317 172.387 34.0842 170.648 30.6498 170.219C27.2153 169.791 22.7834 170.081 20.3339 173.144V177.947L17.2656 174.921L18.8818 167.761L28.0613 164.773L33.5539 168.555L33.8317 172.387Z" fill="#171E21"/>
<path d="M14.9841 177.317C14.9377 177.838 15.0464 178.361 15.2965 178.821C15.5467 179.281 15.9271 179.657 16.3902 179.902C16.8533 180.147 17.3785 180.25 17.9001 180.199C18.4217 180.147 18.9165 179.943 19.3225 179.612C19.7285 179.281 20.0278 178.838 20.1828 178.338C20.3379 177.838 20.3418 177.304 20.194 176.802C20.0463 176.3 19.7536 175.853 19.3524 175.516C18.9512 175.179 18.4595 174.968 17.9387 174.909C17.5861 174.872 17.2298 174.906 16.8903 175.007C16.5507 175.108 16.2345 175.276 15.96 175.499C15.6854 175.723 15.4578 175.999 15.2903 176.311C15.1229 176.623 15.0188 176.964 14.9841 177.317Z" fill="#FDBC9B"/>
<path d="M30.7242 166.159C30.7242 166.159 31.5449 164.066 28.6661 162.907C26.1408 161.911 23.6155 162.339 18.0977 166.071L30.7242 166.159Z" fill="#171E21"/>
<path d="M32.6564 183.559C32.654 183.35 32.5907 183.145 32.4741 182.97C32.3576 182.796 32.1928 182.659 31.9999 182.576C31.1067 182.201 30.1688 181.942 29.2094 181.807C27.403 181.688 25.5897 181.893 23.8557 182.412C23.5852 182.476 23.3012 182.448 23.0478 182.334C22.7944 182.22 22.5858 182.026 22.4542 181.782C20.8121 178.583 20.3645 174.905 21.1915 171.407L19.2723 172.794L19.5248 175.731C19.5248 175.731 21.0148 178.908 18.6789 180.32C18.6789 180.32 18.5652 186.887 24.6765 188.072C26.5049 188.393 28.3878 188.142 30.068 187.354C30.8075 187.02 31.4405 186.49 31.8972 185.82C32.354 185.151 32.6167 184.368 32.6564 183.559Z" fill="#171E21"/>
<path d="M20.495 174.574C21.0179 174.487 21.5134 174.28 21.9423 173.969C22.3713 173.658 22.722 173.252 22.9669 172.783C23.2117 172.313 23.344 171.794 23.3533 171.264C23.3626 170.735 23.2486 170.211 23.0204 169.734C21.4673 165.826 19.5859 170.792 19.5859 170.792L20.495 174.574Z" fill="#171E21"/>
<path d="M73.3389 321.127L79.7784 310.903L87.3543 314.735L79.589 326.635L73.503 323.9L73.3389 321.127Z" fill="#FDBC9B"/>
<path d="M73.2132 320.333C73.2132 320.333 76.9128 326.295 81.8624 324.669L87.5317 338.787L67.5818 324.392L73.2132 320.333Z" fill="black"/>
<path d="M67.5859 324.412L66.3281 326.148L86.2701 340.545L87.5278 338.808L67.5859 324.412Z" fill="#C2B8C2"/>
<path d="M94.3494 259.867L86.5841 292.743L73.5156 314.639L85.9275 321.825L101.622 293.941L106.812 272.927L94.3494 259.867Z" fill="#1EB8D1"/>
<path d="M85.9626 322.5L72.5658 314.571L76.4169 308.23L89.7884 316.638L85.9626 322.5Z" fill="#00D1F3"/>
<path d="M133.189 331.184L128.328 320.128L135.752 316.019L141.258 329.116L135.563 332.608L133.189 331.184Z" fill="#FDBC9B"/>
<path d="M132.41 330.847C132.41 330.847 139.431 331.136 140.857 326.145L155.744 329.359L132.713 337.565L132.41 330.847Z" fill="black"/>
<path d="M155.825 329.335L132.691 337.75L133.426 339.764L156.56 331.348L155.825 329.335Z" fill="#C2B8C2"/>
<path d="M109.377 250.858V258.321L129.036 288.676L141.335 321.879L129.302 326.682L116.89 296.239L93.4295 265.985C93.4295 265.985 85.5379 255.787 94.9952 246.824L109.377 250.858Z" fill="#1EB8D1"/>
<path d="M104.881 280.761L93.0243 265.496" stroke="#0A92A8" stroke-width="0.75" stroke-miterlimit="10"/>
<path d="M142.257 321.5L128.267 327.248L125.59 320.328L139.946 314.895L142.257 321.5Z" fill="#00D1F3"/>
<path d="M110.771 223.922L119.9 230.565L130.91 216.484L134.319 218.35C134.319 218.35 130.228 232.216 124.786 239.225C124.321 239.818 123.676 240.245 122.947 240.44C122.219 240.636 121.446 240.59 120.746 240.309C115.166 237.956 110.01 234.707 105.48 230.691L110.771 223.922Z" fill="#EFA987"/>
<path d="M113.469 225.913L106.562 237.41L99.7814 232.204C98.4492 231.177 97.5543 229.686 97.2758 228.029C96.9972 226.372 97.3554 224.671 98.2789 223.266C98.7668 222.477 99.4152 221.798 100.182 221.274C100.949 220.751 101.818 220.394 102.732 220.226C103.646 220.059 104.585 220.084 105.488 220.302C106.391 220.519 107.239 220.924 107.976 221.489L113.469 225.913Z" fill="#E9B022"/>
<path d="M108.021 221.492L97.2252 217.773C97.2252 217.773 87.9573 226.043 95.0029 246.868L109.385 250.864C110.122 246.727 110.578 242.545 110.748 238.346C116.228 230.694 108.021 221.492 108.021 221.492Z" fill="#FFCE45"/>
<path d="M161.561 194.422H134.086C130.634 194.422 127.836 197.216 127.836 200.662V227.575C127.836 231.021 130.634 233.815 134.086 233.815H161.561C165.013 233.815 167.812 231.021 167.812 227.575V200.662C167.812 197.216 165.013 194.422 161.561 194.422Z" fill="black"/>
<path d="M155.438 212.627L154.175 212.413C154.028 211.86 153.807 211.33 153.519 210.837L154.264 209.791C154.401 209.603 154.466 209.371 154.445 209.139C154.424 208.907 154.319 208.69 154.15 208.53L153.392 207.774C153.228 207.608 153.01 207.508 152.778 207.492C152.545 207.476 152.315 207.545 152.13 207.685L151.082 208.417C150.587 208.133 150.056 207.916 149.503 207.774L149.289 206.513C149.253 206.291 149.139 206.09 148.968 205.944C148.797 205.799 148.579 205.719 148.354 205.719H147.268C147.04 205.715 146.818 205.794 146.642 205.939C146.466 206.085 146.348 206.288 146.309 206.513L146.082 207.774C145.533 207.923 145.007 208.144 144.516 208.429L143.468 207.723C143.28 207.586 143.048 207.521 142.815 207.542C142.583 207.563 142.366 207.668 142.205 207.837L141.448 208.58C141.281 208.742 141.178 208.958 141.157 209.19C141.136 209.421 141.199 209.652 141.334 209.841L142.066 210.887C141.784 211.378 141.568 211.904 141.422 212.45L140.16 212.677C139.932 212.714 139.726 212.83 139.577 213.006C139.429 213.182 139.349 213.405 139.352 213.635V214.694C139.349 214.924 139.429 215.147 139.577 215.323C139.726 215.499 139.932 215.616 140.16 215.652L141.422 215.879C141.568 216.426 141.784 216.951 142.066 217.442L141.334 218.489C141.199 218.678 141.136 218.909 141.157 219.14C141.178 219.371 141.281 219.587 141.448 219.749L142.205 220.506C142.368 220.673 142.585 220.775 142.818 220.793C143.05 220.812 143.281 220.746 143.468 220.606L144.516 219.875C145.013 220.158 145.543 220.378 146.094 220.531L146.309 221.791C146.345 222.018 146.462 222.225 146.638 222.373C146.815 222.521 147.038 222.601 147.268 222.598H148.354C148.583 222.596 148.804 222.514 148.979 222.367C149.155 222.22 149.273 222.016 149.314 221.791L149.529 220.531C150.082 220.384 150.612 220.163 151.107 219.875L152.13 220.594C152.318 220.731 152.55 220.796 152.782 220.775C153.015 220.754 153.232 220.649 153.392 220.48L154.15 219.724C154.319 219.564 154.424 219.347 154.445 219.115C154.466 218.883 154.401 218.651 154.264 218.463L153.519 217.404C153.805 216.914 154.025 216.389 154.175 215.841L155.438 215.614C155.663 215.578 155.868 215.464 156.016 215.29C156.164 215.117 156.246 214.897 156.246 214.669V213.598C156.247 213.367 156.166 213.143 156.018 212.966C155.871 212.788 155.665 212.668 155.438 212.627ZM147.862 217.001C147.29 217.001 146.731 216.832 146.256 216.515C145.78 216.197 145.409 215.747 145.191 215.219C144.972 214.692 144.914 214.111 145.026 213.551C145.138 212.991 145.413 212.477 145.817 212.073C146.222 211.669 146.737 211.394 147.298 211.283C147.859 211.172 148.44 211.229 148.968 211.447C149.497 211.666 149.948 212.036 150.266 212.511C150.584 212.985 150.753 213.543 150.753 214.114C150.753 214.497 150.677 214.875 150.53 215.228C150.382 215.581 150.166 215.901 149.893 216.169C149.621 216.438 149.297 216.649 148.942 216.792C148.587 216.935 148.207 217.006 147.824 217.001H147.862Z" fill="white"/>
<path d="M108.33 227.858L116.259 237.438L129.694 225.652L132.522 228.299C132.522 228.299 125.123 240.729 118.103 246.174C117.5 246.625 116.767 246.869 116.013 246.869C115.26 246.869 114.527 246.625 113.924 246.174C109.104 242.507 104.915 238.079 101.524 233.064L108.33 227.858Z" fill="#FDBC9B"/>
<path d="M139.514 221.639C139.416 221.545 139.29 221.487 139.154 221.473C139.019 221.459 138.884 221.491 138.769 221.564L136.787 222.824L136.635 222.711L138.718 220.606C138.834 220.488 138.899 220.33 138.899 220.165C138.899 220 138.834 219.841 138.718 219.723C138.585 219.598 138.409 219.529 138.226 219.529C138.043 219.529 137.867 219.598 137.734 219.723L135.423 221.791L135.208 221.627L137.393 218.614C137.477 218.501 137.515 218.359 137.499 218.218C137.483 218.078 137.413 217.949 137.304 217.858C137.174 217.749 137.006 217.694 136.837 217.706C136.667 217.718 136.509 217.795 136.395 217.921L133.87 220.631L133.63 220.442L135.006 217.921C135.077 217.794 135.097 217.646 135.062 217.505C135.027 217.364 134.939 217.242 134.817 217.164C134.669 217.074 134.491 217.044 134.321 217.081C134.152 217.119 134.003 217.221 133.908 217.366L132.494 219.585C132.494 219.585 131.988 220.744 131.395 221.992L130.991 219.799C130.97 219.69 130.917 219.589 130.838 219.51C130.759 219.432 130.658 219.379 130.549 219.358C130.468 219.342 130.385 219.342 130.304 219.36C130.224 219.378 130.148 219.412 130.081 219.461C130.015 219.509 129.959 219.571 129.918 219.642C129.877 219.714 129.851 219.793 129.842 219.875C129.741 221.261 129.842 225.371 129.64 225.648L132.468 228.295L137.948 223.77L139.425 222.383C139.482 222.341 139.529 222.288 139.564 222.228C139.599 222.167 139.621 222.1 139.629 222.03C139.638 221.961 139.632 221.89 139.612 221.823C139.592 221.756 139.559 221.693 139.514 221.639Z" fill="#FDBC9B"/>
<path d="M110.629 230.342L100.944 239.885L95.6792 233.217C94.6436 231.895 94.1475 230.231 94.2903 228.559C94.4332 226.887 95.2046 225.331 96.4494 224.203C97.1365 223.578 97.9473 223.103 98.8295 222.81C99.7117 222.516 100.646 222.411 101.571 222.5C102.497 222.589 103.393 222.871 104.203 223.327C105.013 223.783 105.718 224.404 106.273 225.149L110.629 230.342Z" fill="#FFCE45"/>
<path d="M104.309 236.762L100.938 239.876L95.6726 233.145" stroke="#EAAE28" stroke-width="0.75" stroke-miterlimit="10"/>
<path d="M110.629 230.34L105.578 224.289" stroke="#EAAE28" stroke-width="0.75" stroke-miterlimit="10"/>
<path d="M106.699 207.787L112.028 206.426C115.677 208.556 116.245 214.506 116.245 214.506H106.964L106.699 207.787Z" fill="#171E21"/>
<path d="M108.503 211.756L105.624 220.29L97.8086 217.113L102.14 204.293L108.503 211.756Z" fill="#FDBC9B"/>
<path d="M106.816 216.824C106.816 216.672 105.352 211.504 105.352 211.504L108.597 212.991L106.816 216.824Z" fill="#EFA987"/>
<path d="M110.83 194.033C110.83 194.033 114.883 194.702 115.11 199.807C115.11 199.807 115.224 203.5 115.35 208.82C115.373 209.48 115.247 210.137 114.981 210.741C114.715 211.346 114.317 211.883 113.815 212.313C113.312 212.743 112.72 213.054 112.081 213.224C111.442 213.394 110.772 213.419 110.123 213.295C108.229 212.906 106.444 212.106 104.895 210.95L102.547 208.744C97.0668 202.631 102.092 192.836 110.236 193.933L110.83 194.033Z" fill="#FDBC9B"/>
<path d="M114.724 205.098L116.568 206.85C116.623 206.905 116.661 206.974 116.678 207.049C116.696 207.125 116.692 207.204 116.667 207.277C116.642 207.351 116.597 207.416 116.537 207.465C116.477 207.514 116.405 207.546 116.328 207.556L114.484 207.745L114.724 205.098Z" fill="#FDBC9B"/>
<path d="M105.425 203.163C105.425 203.163 103.014 190.784 113.721 195.826C113.721 195.826 109.58 189.057 100.16 193.154C99.0786 193.673 98.1244 194.423 97.3652 195.351C96.6059 196.279 96.06 197.362 95.7662 198.524C95.1727 201.953 97.0288 204.827 100.135 210.248L103.721 206.088C104.177 205.052 104.749 204.071 105.425 203.163Z" fill="#171E21"/>
<path d="M101.975 199.532L104.122 204.638C117.834 200.364 111.584 193.961 111.584 193.961C111.584 193.961 100.498 190.671 101.975 199.532Z" fill="#171E21"/>
<path d="M108.874 201.976L106.942 204.837L104.53 201.484L108.874 201.976Z" fill="#171E21"/>
<path d="M109.602 194.628C109.602 194.628 114.299 195.41 114.981 198.675C114.981 198.675 118.681 194.893 111.029 193.279C106.483 192.334 109.602 194.628 109.602 194.628Z" fill="#171E21"/>
<path d="M104.628 206.087C104.628 206.087 103.744 212.302 104.338 214.508L92.8474 213.89C94.0163 211.656 94.7936 209.238 95.1454 206.742C95.2843 204.284 94.0343 198.675 97.8349 194.868L99.7289 202.229L104.628 206.087Z" fill="#171E21"/>
<path d="M101.612 204.854C101.576 205.388 101.699 205.92 101.966 206.384C102.232 206.848 102.63 207.223 103.11 207.462C103.59 207.7 104.129 207.791 104.661 207.724C105.192 207.657 105.692 207.435 106.097 207.084C106.502 206.734 106.794 206.272 106.937 205.757C107.08 205.241 107.066 204.695 106.898 204.187C106.731 203.679 106.416 203.232 105.994 202.902C105.573 202.572 105.062 202.374 104.528 202.333C104.17 202.304 103.81 202.346 103.469 202.458C103.127 202.569 102.811 202.748 102.54 202.982C102.268 203.217 102.046 203.504 101.887 203.825C101.727 204.146 101.634 204.496 101.612 204.854Z" fill="#FDBC9B"/>
<path d="M97.2188 217.769C100.23 220.303 104.078 221.629 108.014 221.488L103.368 215.954L98.7971 214.996L97.2188 217.769Z" fill="#FDBC9B"/>
</svg>
