<svg width="70" height="72" viewBox="0 0 70 72" fill="none" xmlns="http://www.w3.org/2000/svg">
<path d="M62.685 48.636H46.83C45.9017 48.636 45.0115 49.0153 44.3551 49.6904C43.6987 50.3655 43.33 51.2812 43.33 52.236C43.33 53.1908 43.6987 54.1064 44.3551 54.7816C45.0115 55.4567 45.9017 55.836 46.83 55.836H55.23C51.3693 59.9858 46.3904 62.8535 40.9331 64.0706C35.4757 65.2877 29.7892 64.7986 24.6042 62.6661C19.4192 60.5336 14.9725 56.8552 11.8356 52.1034C8.6986 47.3517 7.01462 41.7437 7 36C7 35.0452 6.63125 34.1295 5.97487 33.4544C5.3185 32.7793 4.42826 32.4 3.5 32.4C2.57174 32.4 1.6815 32.7793 1.02513 33.4544C0.368749 34.1295 0 35.0452 0 36C0.0185033 43.0301 2.03777 49.9007 5.80861 55.7641C9.57945 61.6275 14.9368 66.2269 21.2196 68.9948C27.5024 71.7627 34.4356 72.5779 41.1636 71.3399C47.8916 70.1019 54.1199 66.8647 59.08 62.028V68.4C59.08 69.3548 59.4487 70.2705 60.1051 70.9456C60.7615 71.6207 61.6517 72 62.58 72C63.5083 72 64.3985 71.6207 65.0549 70.9456C65.7113 70.2705 66.08 69.3548 66.08 68.4V52.2C66.0714 51.2699 65.7131 50.3793 65.0802 49.7149C64.4473 49.0505 63.5889 48.6639 62.685 48.636ZM35 0C26.0273 0.0263239 17.4072 3.59609 10.92 9.972V3.6C10.92 2.64522 10.5513 1.72955 9.89487 1.05442C9.2385 0.379284 8.34826 0 7.42 0C6.49174 0 5.6015 0.379284 4.94513 1.05442C4.28875 1.72955 3.92 2.64522 3.92 3.6V19.8C3.92 20.7548 4.28875 21.6705 4.94513 22.3456C5.6015 23.0207 6.49174 23.4 7.42 23.4H23.17C24.0983 23.4 24.9885 23.0207 25.6449 22.3456C26.3013 21.6705 26.67 20.7548 26.67 19.8C26.67 18.8452 26.3013 17.9295 25.6449 17.2544C24.9885 16.5793 24.0983 16.2 23.17 16.2H14.77C18.6286 12.0523 23.6043 9.1854 29.0584 7.96719C34.5125 6.74898 40.1961 7.23508 45.3796 9.3631C50.5632 11.4911 55.0102 15.164 58.1498 19.9102C61.2894 24.6564 62.9784 30.2594 63 36C63 36.9548 63.3687 37.8705 64.0251 38.5456C64.6815 39.2207 65.5717 39.6 66.5 39.6C67.4283 39.6 68.3185 39.2207 68.9749 38.5456C69.6313 37.8705 70 36.9548 70 36C70 31.2724 69.0947 26.5911 67.3358 22.2234C65.5769 17.8557 62.9988 13.8871 59.7487 10.5442C56.4987 7.20125 52.6403 4.54951 48.3939 2.74034C44.1475 0.931168 39.5963 0 35 0Z" fill="#252A34"/>
</svg>
