<svg width="291" height="259" viewBox="0 0 291 259" fill="none" xmlns="http://www.w3.org/2000/svg">
<path opacity="0.95" d="M113.55 130.902H14.211C6.36249 130.902 0 137.264 0 145.112V244.439C0 252.287 6.36249 258.648 14.211 258.648H113.55C121.399 258.648 127.761 252.287 127.761 244.439V145.112C127.761 137.264 121.399 130.902 113.55 130.902Z" fill="#FAFCFF"/>
<path d="M93.4572 229.566H34.3047V232.487H93.4572V229.566Z" fill="#96BFE6"/>
<path d="M85.0793 238.773H42.6836V241.694H85.0793V238.773Z" fill="#96BFE6"/>
<path d="M96.7733 180.652C93.9369 173.144 87.1232 169.705 83.9066 168.632C82.7609 168.252 80.7165 167.584 78.5608 166.886C74.6852 165.632 70.4319 164.266 70.4319 164.266H57.0299C57.0299 164.266 52.3889 165.82 47.4573 167.55C42.9133 169.143 38.1295 170.88 36.5138 171.691C33.1446 173.372 27.4766 185.397 26.3406 186.775C25.7496 187.484 23.1191 192.168 20.5273 197.4H34.9661C36.492 194.779 37.6668 192.747 37.6668 192.747C37.6668 192.747 38.58 194.75 39.6869 197.4H85.9509C86.6776 194.324 87.1378 190.446 87.1378 190.446C87.1378 190.446 89.6157 193.815 92.3189 197.4H105.641C102.395 191.97 98.3719 184.891 96.7733 180.652Z" fill="#385369"/>
<path d="M65.3293 127.442C65.3293 127.442 75.8101 129.094 74.2139 145.488C72.6177 161.882 63.3698 160.54 62.7497 160.523C62.1296 160.506 53.4654 160.821 52.7896 140.804C52.7896 140.806 52.4941 126.004 65.3293 127.442Z" fill="#EEA886"/>
<path d="M74.3734 140.857C74.3734 140.857 75.5215 139.631 75.943 140.871C76.3644 142.111 74.3783 147.653 74.3056 147.895C74.3056 147.895 74.0949 148.379 73.8212 148.11C73.5475 147.842 74.3734 140.857 74.3734 140.857Z" fill="#EEA886"/>
<path d="M53.068 140.652C53.068 140.652 51.9442 139.405 51.4985 140.638C51.0528 141.871 52.9155 147.441 53.0002 147.703C53.0002 147.703 53.2013 148.187 53.4847 147.928C53.7681 147.669 53.068 140.652 53.068 140.652Z" fill="#EEA886"/>
<path d="M74.3697 143.372L72.8703 145.378C72.8703 145.378 72.9115 140.98 72.6717 140.292C72.4319 139.604 72.0637 137.497 71.8603 137C71.6568 136.504 62.8618 134.038 55.089 137.727C55.089 137.727 55.4305 140.888 54.6869 141.171C53.9433 141.454 54.3066 146.32 54.3066 146.32L53.0737 144.927C53.0737 144.927 51.1868 132.314 51.6519 130.999C52.1169 129.684 53.6042 121.781 69.5471 126.472C69.5471 126.472 74.5175 125.419 75.5154 128.851C76.5133 132.283 74.3697 143.372 74.3697 143.372Z" fill="#434343"/>
<path d="M71.7334 163.977C71.7334 163.963 70.3891 163.316 70.3891 163.316C69.7351 161.863 70.2219 155.697 70.2219 155.697C70.2219 155.697 56.8732 152.306 57.2559 154.898C57.6386 157.489 56.1054 163.529 56.1054 163.529L49.2578 166.92C49.2578 166.92 56.5535 186.508 64.9391 183.98C73.3248 181.451 76.4906 166.213 76.4906 166.213L71.7334 163.977Z" fill="#EEA886"/>
<path d="M57.4492 157.782C57.4492 157.782 59.5977 160.55 63.3327 160.55C65.7888 160.55 67.5497 159.862 69.9962 157.477C69.9962 157.477 68.9352 162.006 63.3497 162.427C63.3472 162.434 59.2973 162.948 57.4492 157.782Z" fill="#A77860"/>
<path d="M68.8533 215.293H58.9102V217.134H68.8533V215.293Z" fill="#4598E6"/>
<path d="M93.6833 144.176V145.975H104.288V155.927H106.087V144.176H93.6833ZM21.6762 155.927H23.4783V145.978H34.0827V144.178H21.6762V155.927ZM104.273 207.271V217.225H93.6688V219.025H106.073V207.271H104.273ZM23.4662 207.271H21.6641V219.027H34.0681V217.225H23.4783L23.4662 207.271Z" fill="#4598E6"/>
<path opacity="0.95" d="M111.185 9.02734H40.6822C34.2303 9.02734 29 14.257 29 20.7082V81.8759C29 88.327 34.2303 93.5567 40.6822 93.5567H111.185C117.637 93.5567 122.867 88.327 122.867 81.8759V20.7082C122.867 14.257 117.637 9.02734 111.185 9.02734Z" fill="white"/>
<path d="M79.3013 77.5703H71.8555V78.9484H79.3013V77.5703Z" fill="#4598E6"/>
<path d="M82.3078 1.62472C82.3078 1.62472 88.3051 4.91851 86.4013 13.0077C84.4975 21.0969 83.7732 22.1746 85.321 25.4466C86.8688 28.7186 88.2276 42.4314 86.5781 44.9405C84.9286 47.4496 68.1961 32.7051 66.3383 20.9079C64.4805 9.11083 68.6636 4.10233 70.1484 2.23262C71.6332 0.362905 77.0177 -1.38329 82.3078 1.62472Z" fill="#344052"/>
<path d="M93.5704 68.5535H87.1492C86.8391 65.3856 86.5509 63.1817 86.6115 62.8547C86.7059 62.3171 80.2217 45.308 79.6162 43.9009C79.0106 42.4938 76.6296 38.7253 76.3196 35.182C76.0096 31.6388 80.6383 30.1953 80.6383 30.1953C86.8924 31.3167 89.0094 39.9653 89.0094 39.9653C89.0094 39.9653 91.6351 57.5047 92.9624 62.4406C93.304 63.6976 93.4881 65.933 93.5704 68.5535Z" fill="#EEA886"/>
<path d="M90.3416 44.1811L80.7788 48.2136C80.7788 48.2136 71.9886 26.4019 79.357 28.8384C86.7253 31.2748 90.0049 35.828 90.3416 44.1811Z" fill="#EB4747"/>
<path d="M87.5 35.9999C87.1 33.1999 83.6667 30.8332 82 29.9999L81 30.999L75 32.999C73.3333 31.8326 69.9 29.3999 69.5 28.9999C69.1 28.5999 66.6667 29.1665 65.5 29.4999V31.4999L68.5 39.4999L66 48.499L67.5 57.9999C67.8333 59.8332 68.6 64.3999 69 67.9999C73.8333 68.1665 84.2 68.4999 87 68.4999V63.9999C87 56.4999 87 56.9999 88 50.9999C89 44.9999 88 39.4999 87.5 35.9999Z" fill="#EB4747"/>
<path d="M80.2367 28.8392C80.2367 28.8392 84.5821 36.2672 82.9665 36.8315C81.3509 37.3958 72.832 35.5115 69.5039 28.4953C69.5039 28.4832 75.0968 25.9426 80.2367 28.8392Z" fill="#EEA886"/>
<path d="M79.614 32.2314C79.614 32.2314 75.753 33.8638 72.2578 28.4871C72.2578 28.4871 73.1976 22.3815 71.2114 18.8504C69.2252 15.3192 79.8926 23.0839 79.8926 23.0839C79.8926 23.0839 79.7206 23.8104 79.5413 24.8858C79.4493 25.4355 79.3548 26.0749 79.2846 26.7555C79.224 27.3222 79.178 27.9156 79.1586 28.5065C79.1102 29.8822 79.2095 31.2457 79.614 32.2314Z" fill="#EEA886"/>
<path d="M70.0248 40.5508C69.2303 44.639 63.5284 49.754 63.5284 49.754C63.2474 48.9185 62.9568 48.0587 62.6758 47.182C66.6119 44.6753 70.0248 40.5508 70.0248 40.5508Z" fill="#393D63"/>
<path d="M68.5993 43.8003C68.2384 45.2897 66.5744 60.3758 66.756 60.8917C66.8626 61.1871 67.6668 64.6771 68.4734 68.5546H61.0299C60.2669 66.0552 59.8188 63.9796 59.9254 62.805C60.4098 57.719 58.6756 41.4922 58.6756 41.4922C58.6756 41.4922 57.1302 31.6786 65.2736 30.4531C65.2736 30.4531 70.0841 31.0852 70.3748 34.6382C70.6655 38.1911 68.9602 42.3132 68.5993 43.8003Z" fill="#EEA886"/>
<path d="M58.0739 45.8857L68.1794 48.2471C68.1794 48.2471 76.1968 32.6839 68.9762 29.8406C61.356 26.8447 56.25 37.3969 58.0739 45.8857Z" fill="#EB4747"/>
<path d="M81.3745 2.48905C81.3745 2.48905 90.1574 5.71261 84.5912 20.8665C79.025 36.0204 67.6527 18.2799 69.3749 8.96523C71.0971 -0.349421 81.3745 2.48905 81.3745 2.48905Z" fill="#EEA987"/>
<path d="M85.9369 11.7015C85.9369 11.7015 81.3008 15.8381 73.8622 16.0319C73.8622 16.0319 72.1231 20.2702 71.8421 21.5708C71.8421 21.5708 64.4932 8.95262 72.9418 2.57816C81.3904 -3.7963 89.0566 9.05676 85.9369 11.7015Z" fill="#344052"/>
<path d="M74.8678 16.937C74.8678 15.8157 74.2937 13.2339 72.5958 13.8685C70.8978 14.503 72.4189 19.7755 73.538 19.5091C73.538 19.5091 74.8799 19.5939 74.8678 16.937Z" fill="#EEA987"/>
<path d="M79.1666 28.2501C75.0489 27.1094 73.443 23.1641 73.3945 23.043C76.7517 27.3709 79.2804 26.7558 79.2804 26.7558C79.2223 27.3225 79.2175 27.6761 79.1666 28.2501Z" fill="#A77860"/>
<path d="M98.2429 24.3203V25.6717H106.18V33.1215H107.53V24.3203H98.2429ZM44.3345 33.1191H45.6836V25.6717H53.6212V24.3227H44.3345V33.1191ZM106.18 71.5596V79.0118H98.2429V80.3608H107.53V71.5572L106.18 71.5596ZM45.6812 71.5596H44.332V80.3584H53.6188V79.0094H45.6836L45.6812 71.5596Z" fill="#4598E6"/>
<path opacity="0.95" d="M276.716 39.4968H160.735C153.149 39.4968 147 45.6456 147 53.2305V194.123C147 201.708 153.149 207.857 160.735 207.857H276.716C284.302 207.857 290.451 201.708 290.451 194.123V53.2305C290.451 45.6456 284.302 39.4968 276.716 39.4968Z" fill="white"/>
<path d="M223.421 138.821H212.043V140.927H223.421V138.821Z" fill="#4598E6"/>
<path d="M235.052 158.126H168.848V162.205H235.052V158.126Z" fill="#96BFE6"/>
<path d="M222.384 177.708H168.848V181.787H222.384V177.708Z" fill="#96BFE6"/>
<path d="M200.233 167.919H168.848V171.998H200.233V167.919Z" fill="#96BFE6"/>
<path d="M252.372 56.2781V58.3445H264.504V69.7296H266.564V56.2781H252.372ZM169.988 69.7296H172.049V58.3445H184.181V56.2781H169.988V69.7296ZM264.506 128.473V139.862H252.374V141.915H266.566V128.473H264.506ZM172.049 128.473H169.988V141.915H184.181V139.862H172.049V128.473Z" fill="#4598E6"/>
<path d="M260.141 182.089C257.742 182.089 255.396 181.378 253.4 180.045C251.405 178.712 249.85 176.817 248.931 174.6C248.013 172.383 247.773 169.944 248.241 167.59C248.709 165.237 249.865 163.075 251.562 161.378C253.259 159.682 255.421 158.526 257.774 158.058C260.128 157.59 262.568 157.83 264.785 158.748C267.002 159.667 268.897 161.222 270.23 163.217C271.563 165.212 272.275 167.558 272.275 169.957C272.271 173.174 270.992 176.257 268.717 178.532C266.442 180.806 263.358 182.086 260.141 182.089ZM260.141 160.173C258.206 160.173 256.314 160.747 254.705 161.822C253.096 162.897 251.842 164.425 251.101 166.213C250.361 168.001 250.167 169.968 250.545 171.866C250.922 173.764 251.854 175.507 253.223 176.875C254.591 178.243 256.334 179.175 258.232 179.553C260.131 179.93 262.098 179.736 263.886 178.996C265.674 178.255 267.202 177.002 268.277 175.393C269.352 173.784 269.926 171.892 269.926 169.957C269.923 167.363 268.891 164.877 267.057 163.043C265.222 161.208 262.735 160.177 260.141 160.173Z" fill="#4598E6"/>
<path d="M259.368 174.731L253.855 169.219L255.515 167.56L259.368 171.411L264.767 166.012L266.426 167.674L259.368 174.731Z" fill="#4598E6"/>
<path d="M259.58 127.531H252.68C252.555 127.255 252.452 127.014 252.368 126.821C250.322 121.987 239.768 110.902 239.768 110.902V110.92C239.767 110.924 239.767 110.928 239.768 110.932V110.944C239.768 110.962 239.756 110.974 239.75 110.992C239.744 111.009 239.738 111.045 239.726 111.083C239.719 111.102 239.715 111.122 239.714 111.143L239.696 111.19C239.263 112.806 237.139 120.853 236.076 127.523H189.377C189.27 126.905 189.143 126.315 189 125.77C188.595 124.182 188.295 122.569 188.1 120.942C188.1 120.865 188.082 120.791 188.076 120.714C188.04 120.431 188.01 120.149 187.986 119.873C187.735 117.304 187.709 114.718 187.909 112.144C187.778 112.426 186.834 115.885 185.598 120.155C184.918 122.498 184.151 125.085 183.388 127.523H172.359L186.196 87.6075C186.502 87.367 190.093 85.6325 192.712 84.3827C195.385 83.1091 198.61 81.2414 201.523 79.6439C203.013 78.8273 204.418 78.0881 205.636 77.5298L205.823 77.4463C207.834 76.5284 209.174 75.9204 209.174 75.9204L210.044 75.8369C212.854 75.5667 221.569 74.7501 224.493 74.5812C224.733 74.5633 224.938 74.5574 225.089 74.5514C225.187 74.5454 225.285 74.5454 225.383 74.5514C225.748 74.5752 227.551 75.1991 229.912 76.1012C230.001 76.131 230.092 76.1668 230.182 76.2025L230.518 76.3277C230.716 76.4052 230.933 76.4847 231.142 76.5681C231.563 76.737 232 76.9039 232.439 77.0788L232.902 77.2596C237.628 79.1332 243.037 81.4579 244.33 82.3819C245.183 82.9879 247.832 87.979 250.9 94.1524C254.213 104.737 258.252 120.002 259.58 127.531Z" fill="#DECBC4"/>
<path d="M225.313 73.2006C225.188 79.4773 213.037 82.9107 213.037 82.9107C213.037 82.9107 207.954 76.5386 209.168 75.9287C209.645 75.6882 209.838 74.7365 209.897 73.6715C209.935 72.7219 209.912 71.7708 209.828 70.8242C209.792 70.3812 209.758 70.095 209.758 70.095C209.758 70.095 211.495 68.2631 213.703 66.0814C217.564 62.2646 222.869 57.3767 222.877 59.3259C222.875 59.4504 222.86 59.5743 222.832 59.6955C221.9 64.0647 225.313 73.2006 225.313 73.2006Z" fill="#EEA886"/>
<path d="M220.632 64.0039C220.608 64.0397 220.093 64.8106 219.213 65.9173C217.347 68.2639 213.847 72.1185 209.897 73.6663C209.935 72.7167 209.912 71.7657 209.827 70.8191C209.422 70.8095 209.018 70.7609 208.621 70.674C209.42 69.3305 210.303 68.0385 211.264 66.8055L213.704 66.0763L220.632 64.0039Z" fill="#A77860"/>
<path d="M222.967 59.4051C221.916 61.6921 220.918 63.3492 220.634 64.0068C220.449 64.434 219.949 65.1314 219.215 65.9203C217.212 68.0781 213.49 70.9233 209.83 70.824C209.424 70.8144 209.02 70.7659 208.624 70.6789C207.145 70.3571 205.401 69.6696 204.451 67.7899C196.87 52.9476 202.358 40.8095 202.358 40.8095C202.358 40.8095 223.09 34.948 226.333 41.187C228.597 45.5662 225.437 54.0325 222.967 59.4051Z" fill="#EEA886"/>
<path d="M202.348 40.8082C202.348 40.8082 200.422 40.7009 199.947 37.051C199.476 33.4447 200.428 32.4453 200.428 32.4453C200.428 32.4453 208.987 28.8688 212.061 28.3979C215.135 27.927 222.692 27.4839 224.463 29.5106C224.463 29.5106 228.767 28.5171 229.939 35.6542C231.799 46.9796 223.6 57.9932 223.6 57.9932C223.6 57.9932 223.67 50.5879 222.036 49.6083C220.403 48.6288 218.994 50.9594 218.994 50.9594L215.654 51.5555C215.654 51.5555 220.727 40.6016 214.64 40.1963C208.554 39.7909 205.831 41.4441 202.348 40.8082Z" fill="#664032"/>
<path d="M219.084 48.0117C219.402 44.7492 225.302 43.5034 224.906 46.9229C224.511 50.3424 221.605 53.6267 220.264 53.5115C218.923 53.3963 218.841 50.4993 219.084 48.0117Z" fill="#EEA886"/>
<path d="M253.616 94.4627C251.694 88.3032 250.039 83.4372 249.292 82.9087C248 81.9848 237.766 79.1673 232.908 77.2638L232.445 77.083C232.006 76.9082 231.568 76.7413 231.147 76.5724C230.937 76.4889 230.726 76.4095 230.523 76.332L230.187 76.2068C230.098 76.171 230.007 76.1353 229.917 76.1055C229.917 76.1055 229.905 76.1234 229.893 76.1293C227.981 78.3156 226.19 80.6046 224.528 82.9862C219.506 90.1192 212.967 101.679 213.97 112.351C214.294 115.774 214.691 120.696 215.361 126.21C215.409 126.649 215.463 127.086 215.524 127.531H238.178C238.454 121.755 238.947 114.145 239.692 111.199L239.71 111.151C239.711 111.131 239.715 111.11 239.722 111.091C239.722 111.061 239.74 111.032 239.746 111C239.752 110.968 239.758 110.97 239.764 110.952V110.94C239.762 110.936 239.762 110.932 239.764 110.928C239.764 110.928 245.246 119.498 245.526 127.531H259.794C259.095 120.06 256.913 105.025 253.616 94.4627Z" fill="#3C4145"/>
<path d="M205.728 77.6149C205.728 77.6149 204.017 83.3075 201.807 97.522C201.73 97.9968 201.656 98.4836 201.579 98.9804C201.579 99.034 201.561 99.0936 201.555 99.1552C201.501 99.4791 201.453 99.8169 201.404 100.149C201.404 100.19 201.392 100.226 201.386 100.268C201.35 100.49 201.314 100.719 201.284 100.951C201.201 101.51 201.115 102.086 201.032 102.668C200.203 108.468 199.099 117.687 197.976 127.523H189.022C188.535 124.791 188.08 122.305 188.115 120.598C188.099 120.635 188.085 120.674 188.074 120.713C187.358 122.7 186.571 124.85 185.773 126.946L185.556 127.523H170.122L185.496 87.3072C185.802 87.0668 189.761 84.9348 192.378 83.693C195.11 82.3895 198.564 80.7861 201.626 79.3754C203.091 78.6958 204.468 78.066 205.632 77.5315L205.728 77.6149Z" fill="#3C4145"/>
<path d="M226.551 91.677L220.635 95.025L223.163 97.608L217.614 127.531H215.524C214.755 121.479 214.316 116.045 213.974 112.351C212.43 95.8495 228.898 77.24 229.919 76.1055C230.714 76.4055 231.564 76.7353 232.447 77.085L226.551 91.677Z" fill="#51565C"/>
<path d="M205.818 77.4578C205.818 77.4578 203.608 84.6703 201.037 102.678C200.208 108.472 199.098 117.697 197.975 127.532H197.104L195.958 99.2424L198.774 96.1925L196.27 93.0631L201.635 79.3831C203.1 78.7036 204.477 78.0737 205.641 77.5392L205.818 77.4578Z" fill="#51565C"/>
<path d="M230.218 76.1791L225.315 73.1987C225.315 73.1987 225.178 75.887 213.039 82.9088L216.487 92.6189L230.218 76.1791Z" fill="#F5E2D9"/>
<path d="M209.811 74.5625C209.811 74.5625 210.009 77.4634 213.04 82.9175L206.311 91.6878L205.82 77.4634L209.811 74.5625Z" fill="#F5E2D9"/>
<path d="M213.055 82.9062C213.055 82.9062 214.358 88.1219 213.889 89.5823C213.889 89.5823 211.022 90.6254 208.961 89.322C208.961 89.326 210.42 85.674 213.055 82.9062Z" fill="#D44040"/>
<path d="M211.475 100.643C210.1 110.011 210.1 119.487 210.611 127.532H204.864C204.786 126.397 204.713 125.215 204.641 123.977C203.572 105.427 210.13 88.8543 210.13 88.8543L213.055 88.1211C213.055 88.1211 212.103 96.3192 211.475 100.643Z" fill="#D44040"/>
<path d="M188.297 112.2C188.078 116.651 188.11 120.603 188.11 120.603C188.11 120.624 188.11 120.744 188.094 120.942L188.066 120.72C187.355 122.707 186.564 124.855 185.769 126.951C185.594 124.692 185.535 122.425 185.59 120.16C185.91 107.68 189.835 101.137 189.835 101.137C188.937 103.316 188.504 107.984 188.297 112.2Z" fill="#2D3133"/>
</svg>
